<svg width="375" height="668" viewBox="0 0 375 668" fill="none" xmlns="http://www.w3.org/2000/svg">
<g clip-path="url(#clip0_153_9259)">
<path d="M64.1197 81.2585C53.2526 76.2619 40.5616 78.1509 29.5037 81.4753C23.6236 83.237 18.0567 85.9226 12.1629 87.6333C9.25109 88.5545 6.19605 88.9388 3.14672 88.7676C2.72282 88.7388 2.30367 88.6868 1.88178 88.6246C-13.7809 72.3931 -8.94808 44.1197 -28.9665 30.7202C-35.0641 26.6123 -41.5149 23.0551 -48.2427 20.0904C-54.539 17.3746 -61.3939 16.2067 -68.2338 16.6842C-81.7724 17.6173 -94.0756 24.5505 -103.961 33.5193C-103.751 33.3208 -97.8328 37.0146 -97.2654 37.3336C-96.6981 37.6525 -90.8998 41.3894 -90.4907 40.995C-81.7936 33.1112 -71.3574 26.8535 -59.6704 24.7735C-53.6652 23.6816 -47.4982 23.8534 -41.5629 25.2779C-40.6972 25.4841 -39.8308 25.7338 -38.9821 25.9993C-37.7451 27.0165 -36.5981 28.1385 -35.5537 29.3526C-27.8462 38.4161 -25.7733 50.5668 -22.2952 61.5851C-20.5607 67.5216 -17.8172 73.1151 -14.1847 78.1205C-10.4607 83.0266 -5.81028 85.9538 -0.528134 88.9089C4.94836 91.9763 10.6045 95.9594 17.0657 96.2436C23.2761 96.573 29.0992 93.8625 34.7621 91.6989C45.7841 87.464 58.2879 84.0589 70.1384 86.3494C70.7178 86.4679 71.2999 86.5968 71.8745 86.7386C72.6586 87.4546 73.3918 88.2244 74.0689 89.0423C77.0779 92.9355 79.4388 97.2887 81.0608 101.934C84.7361 111.563 86.6311 121.987 92.0289 130.892C94.8189 135.505 98.6602 139.392 103.239 142.237C104.186 142.827 105.145 143.424 106.112 144.009C106.33 144.169 106.815 144.466 107.433 144.849C112.152 147.804 117.103 150.372 122.238 152.525C127.495 154.686 133.183 155.593 138.852 155.173C144.52 154.753 150.013 153.018 154.894 150.106C154.435 150.394 148.87 146.671 148.189 146.294C147.508 145.918 142.15 142.151 141.425 142.63C137.09 145.234 132.259 146.903 127.242 147.528C122.225 148.154 117.132 147.723 112.291 146.263C112.136 146.217 111.979 146.161 111.814 146.117C111.183 145.563 110.571 144.994 109.989 144.416C106.603 140.703 103.928 136.4 102.097 131.721C98.1084 122.231 96.345 111.848 91.5077 102.706C89.236 98.2125 85.9409 94.3155 81.888 91.3286C76.2861 87.4347 70.3384 84.0638 64.1197 81.2585ZM0.303866 88.3354C0.0359799 88.2758 -0.244855 88.2086 -0.518219 88.1285C-1.19103 87.9473 -1.84287 87.6401 -2.51294 87.4691C-1.55638 87.719 -0.613433 88.0184 0.312088 88.3661L0.303866 88.3354ZM4.65774 91.1778C3.88762 90.5517 3.21692 89.8879 2.49241 89.2277C7.54694 91.6195 7.99486 93.986 4.63531 91.2167L4.65774 91.1778ZM72.5112 86.9075C73.1479 87.0764 73.7873 87.2556 74.42 87.4914C75.0527 87.7271 75.7596 87.954 76.4134 88.2279C80.4374 89.9209 78.7616 91.4324 72.4581 86.9546L72.5112 86.9075Z" fill="#F7F8FC" fill-opacity="0.05"/>
<path d="M183.756 23.9243C181.49 17.8089 175.866 13.6432 170.319 10.6603C167.371 9.07183 164.189 7.96005 161.256 6.34659C159.777 5.57876 158.451 4.54884 157.34 3.30708C157.188 3.13253 157.046 2.9509 156.908 2.76426C157.122 -9.52892 169.885 -18.559 167.328 -31.4405C166.559 -35.3744 165.442 -39.2324 163.989 -42.9688C162.607 -46.4429 160.413 -49.5361 157.59 -51.9895C152.008 -56.8503 144.59 -58.9229 137.319 -59.2788C137.477 -59.2745 138.336 -55.5693 138.432 -55.2276C138.528 -54.886 139.324 -51.2104 139.634 -51.2047C146.028 -50.8887 152.466 -49.2757 157.776 -45.5708C160.513 -43.676 162.826 -41.2319 164.566 -38.3944C164.821 -37.9812 165.059 -37.5509 165.284 -37.1214C165.369 -36.2525 165.379 -35.3779 165.314 -34.5074C164.793 -28.0434 160.909 -22.5626 158.004 -16.9762C156.385 -14.0201 155.287 -10.8071 154.759 -7.47795C154.304 -4.15173 154.97 -1.23073 155.868 1.94458C156.799 5.23806 157.445 8.95365 159.828 11.5545C162.097 14.0761 165.388 15.2771 168.406 16.627C174.291 19.2452 180.427 22.7546 184.115 28.2065C184.293 28.4756 184.468 28.7497 184.635 29.0259C184.661 29.6041 184.647 30.1834 184.593 30.7596C184.253 33.4198 183.486 36.0074 182.321 38.4227C180.027 43.5499 176.74 48.2968 175.39 53.809C174.688 56.6621 174.672 59.6411 175.341 62.5028C175.479 63.095 175.619 63.6952 175.767 64.2932C175.789 64.4392 175.862 64.7407 175.952 65.1259C176.633 68.0843 177.554 70.9827 178.704 73.7923C179.899 76.6522 181.744 79.1948 184.093 81.2187C186.441 83.2426 189.229 84.6921 192.235 85.4523C191.946 85.3858 191.235 81.8057 191.117 81.3982C190.999 80.9906 190.385 77.4733 189.92 77.3781C187.244 76.7101 184.738 75.4902 182.561 73.7967C180.384 72.1032 178.586 69.9734 177.281 67.5443C177.239 67.4669 177.2 67.3844 177.153 67.3041C177.124 66.8476 177.107 66.3918 177.105 65.9448C177.23 63.2089 177.857 60.5196 178.954 58.0107C181.074 52.8161 184.396 48.1359 186.054 42.7482C186.909 40.141 187.14 37.369 186.728 34.6554C186.068 30.9951 185.073 27.4029 183.756 23.9243ZM156.41 2.04441C156.33 1.91813 156.248 1.78396 156.173 1.6477C155.983 1.31846 155.85 0.948736 155.658 0.624493C155.93 1.08962 156.179 1.56857 156.402 2.0594L156.41 2.04441ZM156.994 4.81837C156.939 4.28018 156.936 3.76582 156.911 3.23207C157.939 6.10255 157.199 7.18707 156.971 4.82471L156.994 4.81837ZM184.815 29.3364C184.996 29.647 185.173 29.9626 185.327 30.2974C185.48 30.6322 185.665 30.9922 185.812 31.3498C186.711 33.5537 185.482 33.4899 184.777 29.3341L184.815 29.3364Z" fill="#F7F8FC" fill-opacity="0.05"/>
<path d="M307.586 140.024C317.08 128.142 318.641 111.896 317.931 97.2245C317.561 89.4248 315.955 81.7283 315.652 73.9274C315.409 70.05 315.872 66.1606 317.018 62.4488C317.183 61.9343 317.376 61.4328 317.582 60.9311C342.404 46.5771 375.796 61.2204 398.46 40.6201C405.396 34.3533 411.762 27.4815 417.481 20.0859C422.761 13.1467 426.304 5.04278 427.812 -3.54769C430.812 -20.5474 426.032 -37.8635 418.001 -52.8191C418.181 -52.4993 411.811 -46.327 411.243 -45.7245C410.676 -45.122 404.289 -39.1109 404.65 -38.4849C411.708 -25.3287 416.226 -10.5247 415.209 4.54128C414.714 12.2898 412.612 19.8502 409.035 26.7401C408.515 27.7455 407.942 28.7384 407.354 29.7047C405.72 30.9195 403.984 31.9912 402.167 32.9079C388.624 39.6411 373.002 38.4711 358.345 39.3831C350.492 39.7025 342.751 41.3727 335.464 44.3208C328.271 47.4124 323.234 52.2549 317.97 57.8688C312.508 63.6881 305.861 69.4482 303.529 77.3373C301.219 84.903 302.777 92.9234 303.709 100.578C305.553 115.485 305.919 131.966 299.461 145.892C299.137 146.571 298.8 147.25 298.449 147.916C297.325 148.664 296.151 149.333 294.934 149.918C289.21 152.437 283.117 154.016 276.89 154.593C263.886 156.175 250.448 155.315 237.81 159.246C231.265 161.274 225.292 164.823 220.379 169.603C219.362 170.59 218.331 171.591 217.314 172.606C217.049 172.826 216.533 173.333 215.873 173.978C210.78 178.896 206.095 184.221 201.865 189.899C197.587 195.726 194.725 202.47 193.505 209.597C192.285 216.723 192.741 224.036 194.836 230.956C194.623 230.3 200.921 224.574 201.594 223.848C202.266 223.122 208.556 217.665 208.187 216.622C206.304 210.472 205.727 203.996 206.494 197.61C207.261 191.225 209.353 185.07 212.638 179.541C212.743 179.365 212.86 179.187 212.964 178.997C213.841 178.389 214.732 177.808 215.623 177.266C221.24 174.227 227.368 172.245 233.7 171.42C246.629 169.409 259.975 170.418 272.735 167.253C278.974 165.827 284.79 162.955 289.717 158.869C296.238 153.148 302.219 146.84 307.586 140.024ZM318.422 59.0719C318.578 58.7595 318.747 58.4334 318.93 58.1205C319.359 57.3456 319.938 56.6352 320.355 55.8604C319.753 56.9646 319.095 58.0368 318.382 59.0726L318.422 59.0719ZM313.582 63.5744C314.59 62.8158 315.614 62.1916 316.651 61.4998C312.151 67.0056 309.095 66.8322 313.54 63.5348L313.582 63.5744ZM298.045 148.65C297.642 149.384 297.225 150.118 296.74 150.827C296.255 151.536 295.758 152.339 295.22 153.062C291.898 157.51 290.548 154.977 298.003 148.57L298.045 148.65Z" fill="#F7F8FC" fill-opacity="0.05"/>
<path d="M286.974 626.73C297.841 631.726 310.532 629.837 321.59 626.513C327.47 624.751 333.037 622.066 338.931 620.355C341.843 619.434 344.898 619.049 347.947 619.221C348.371 619.25 348.79 619.301 349.212 619.364C364.875 635.595 360.042 663.869 380.06 677.268C386.158 681.376 392.609 684.933 399.336 687.898C405.633 690.614 412.488 691.782 419.328 691.304C432.866 690.371 445.169 683.438 455.054 674.469C454.845 674.668 448.927 670.974 448.359 670.655C447.792 670.336 441.994 666.599 441.584 666.993C432.887 674.877 422.451 681.135 410.764 683.215C404.759 684.307 398.592 684.135 392.657 682.71C391.791 682.504 390.925 682.254 390.076 681.989C388.839 680.972 387.692 679.85 386.647 678.636C378.94 669.572 376.867 657.421 373.389 646.403C371.654 640.467 368.911 634.873 365.278 629.868C361.554 624.962 356.904 622.034 351.622 619.079C346.145 616.012 340.489 612.029 334.028 611.745C327.818 611.415 321.995 614.126 316.332 616.289C305.31 620.524 292.806 623.929 280.955 621.639C280.376 621.52 279.794 621.391 279.219 621.25C278.435 620.534 277.702 619.764 277.025 618.946C274.016 615.053 271.655 610.7 270.033 606.054C266.358 596.425 264.463 586.001 259.065 577.096C256.275 572.484 252.434 568.596 247.855 565.751C246.908 565.161 245.949 564.564 244.982 563.98C244.763 563.819 244.278 563.522 243.661 563.14C238.942 560.184 233.991 557.616 228.856 555.463C223.599 553.302 217.91 552.395 212.242 552.815C206.573 553.235 201.081 554.97 196.199 557.882C196.659 557.595 202.223 561.318 202.905 561.694C203.586 562.07 208.943 565.837 209.669 565.358C214.003 562.754 218.834 561.086 223.852 560.46C228.869 559.834 233.962 560.265 238.803 561.725C238.958 561.771 239.115 561.827 239.28 561.871C239.91 562.425 240.523 562.995 241.105 563.573C244.49 567.285 247.165 571.588 248.997 576.267C252.985 585.758 254.749 596.14 259.586 605.282C261.858 609.776 265.153 613.673 269.206 616.66C274.808 620.554 280.755 623.925 286.974 626.73ZM350.79 619.653C351.058 619.713 351.339 619.78 351.612 619.86C352.285 620.041 352.937 620.348 353.607 620.519C352.65 620.269 351.707 619.97 350.782 619.622L350.79 619.653ZM346.436 616.81C347.206 617.437 347.877 618.1 348.601 618.761C343.547 616.369 343.099 614.002 346.458 616.772L346.436 616.81ZM278.583 621.081C277.946 620.912 277.306 620.733 276.674 620.497C276.041 620.261 275.334 620.034 274.68 619.76C270.656 618.067 272.332 616.556 278.636 621.034L278.583 621.081Z" fill="#F7F8FC" fill-opacity="0.05"/>
<path d="M151.569 673.182C153.835 679.298 159.458 683.463 165.005 686.446C167.953 688.035 171.136 689.146 174.068 690.76C175.547 691.528 176.873 692.558 177.984 693.799C178.136 693.974 178.278 694.156 178.417 694.342C178.202 706.635 165.439 715.665 167.997 728.547C168.765 732.481 169.883 736.339 171.335 740.075C172.717 743.549 174.911 746.643 177.734 749.096C183.316 753.957 190.735 756.029 198.005 756.385C197.848 756.381 196.988 752.676 196.893 752.334C196.797 751.992 196 748.317 195.691 748.311C189.297 747.995 182.859 746.382 177.549 742.677C174.811 740.782 172.498 738.338 170.758 735.501C170.503 735.088 170.266 734.657 170.04 734.228C169.955 733.359 169.945 732.484 170.01 731.614C170.531 725.15 174.415 719.669 177.32 714.083C178.94 711.127 180.037 707.914 180.565 704.584C181.02 701.258 180.354 698.337 179.456 695.162C178.526 691.868 177.879 688.153 175.496 685.552C173.227 683.03 169.936 681.829 166.918 680.479C161.034 677.861 154.898 674.352 151.209 668.9C151.031 668.631 150.856 668.357 150.689 668.081C150.663 667.502 150.677 666.923 150.731 666.347C151.071 663.687 151.838 661.099 153.003 658.684C155.297 653.557 158.584 648.81 159.934 643.297C160.636 640.444 160.653 637.465 159.983 634.604C159.845 634.011 159.705 633.411 159.557 632.813C159.535 632.667 159.463 632.366 159.372 631.98C158.691 629.022 157.771 626.124 156.62 623.314C155.425 620.454 153.58 617.912 151.231 615.888C148.883 613.864 146.095 612.414 143.09 611.654C143.378 611.721 144.089 615.301 144.207 615.708C144.325 616.116 144.939 619.633 145.404 619.728C148.08 620.396 150.587 621.616 152.763 623.31C154.94 625.003 156.738 627.133 158.043 629.562C158.085 629.64 158.124 629.722 158.171 629.802C158.201 630.259 158.217 630.715 158.219 631.162C158.094 633.898 157.467 636.587 156.37 639.096C154.25 644.29 150.929 648.971 149.271 654.358C148.415 656.965 148.184 659.737 148.596 662.451C149.256 666.111 150.251 669.704 151.569 673.182ZM178.914 695.062C178.994 695.188 179.077 695.322 179.151 695.459C179.341 695.788 179.474 696.158 179.667 696.482C179.394 696.017 179.146 695.538 178.923 695.047L178.914 695.062ZM178.33 692.288C178.386 692.826 178.389 693.341 178.414 693.874C177.386 691.004 178.125 689.919 178.354 692.282L178.33 692.288ZM150.509 667.77C150.328 667.459 150.151 667.144 149.998 666.809C149.844 666.474 149.659 666.114 149.513 665.757C148.613 663.553 149.842 663.617 150.548 667.772L150.509 667.77Z" fill="#F7F8FC" fill-opacity="0.05"/>
<path d="M43.5082 567.964C34.0135 579.846 32.4524 596.093 33.1625 610.764C33.5327 618.563 35.1384 626.26 35.4413 634.061C35.6848 637.938 35.2222 641.828 34.0761 645.54C33.9106 646.054 33.718 646.555 33.5119 647.057C8.68957 661.411 -24.7018 646.768 -47.3665 667.368C-54.3027 673.635 -60.6681 680.507 -66.3875 687.902C-71.6676 694.842 -75.2099 702.945 -76.718 711.536C-79.718 728.536 -74.9385 745.852 -66.9068 760.807C-67.0875 760.488 -60.717 754.315 -60.1496 753.713C-59.5822 753.11 -53.1953 747.099 -53.5563 746.473C-60.6139 733.317 -65.1326 718.513 -64.1149 703.447C-63.6206 695.698 -61.5179 688.138 -57.9411 681.248C-57.4214 680.243 -56.8478 679.25 -56.2601 678.284C-54.6262 677.069 -52.8907 675.997 -51.073 675.08C-37.5307 668.347 -21.9083 669.517 -7.25171 668.605C0.602236 668.286 8.3425 666.616 15.63 663.668C22.823 660.576 27.8594 655.733 33.1237 650.119C38.5861 644.3 45.2331 638.54 47.5646 630.651C49.875 623.085 48.3172 615.065 47.3847 607.41C45.5406 592.504 45.1743 576.023 51.6327 562.096C51.9566 561.417 52.294 560.738 52.645 560.072C53.7686 559.324 54.9429 558.655 56.1593 558.071C61.8837 555.551 67.9769 553.972 74.2041 553.396C87.2077 551.814 100.646 552.673 113.284 548.743C119.829 546.714 125.802 543.165 130.714 538.386C131.732 537.398 132.763 536.397 133.78 535.383C134.045 535.162 134.56 534.655 135.221 534.01C140.314 529.092 144.998 523.767 149.229 518.09C153.506 512.263 156.368 505.518 157.588 498.392C158.808 491.265 158.353 483.952 156.257 477.032C156.471 477.688 150.173 483.415 149.5 484.14C148.827 484.866 142.538 490.323 142.907 491.366C144.79 497.516 145.366 503.992 144.6 510.378C143.833 516.764 141.74 522.919 138.456 528.447C138.351 528.624 138.233 528.801 138.129 528.991C137.253 529.599 136.362 530.181 135.471 530.722C129.854 533.762 123.726 535.743 117.394 536.568C104.465 538.58 91.1184 537.57 78.3587 540.736C72.1201 542.161 66.3033 545.033 61.3766 549.12C54.8562 554.84 48.8749 561.148 43.5082 567.964ZM32.6714 648.916C32.5157 649.229 32.3468 649.555 32.1641 649.868C31.7344 650.643 31.1556 651.353 30.7392 652.128C31.3408 651.024 31.9992 649.951 32.7118 648.916L32.6714 648.916ZM37.5122 644.414C36.5038 645.172 35.4795 645.797 34.443 646.488C38.9427 640.983 41.9989 641.156 37.5533 644.454L37.5122 644.414ZM53.0485 559.338C53.4521 558.604 53.8692 557.87 54.354 557.161C54.8387 556.452 55.3353 555.649 55.8736 554.926C59.1955 550.478 60.546 553.011 53.0904 559.418L53.0485 559.338Z" fill="#F7F8FC" fill-opacity="0.05"/>
</g>
<defs>
<clipPath id="clip0_153_9259">
<rect width="375" height="668" fill="white"/>
</clipPath>
</defs>
</svg>
