<svg width="1440" height="900" viewBox="0 0 1440 900" fill="none" xmlns="http://www.w3.org/2000/svg">
<g clip-path="url(#clip0_149_9060)">
<g clip-path="url(#clip1_149_9060)">
<path d="M998.88 97.1857C1014.17 78.7668 1017.09 53.2556 1016.39 30.1579C1016.03 17.8786 1013.72 5.72635 1013.47 -6.55292C1013.2 -12.6589 1014.04 -18.7636 1015.95 -24.5695C1016.22 -25.3741 1016.54 -26.1574 1016.88 -26.9407C1056.37 -48.8105 1108.52 -24.8236 1144.79 -56.5804C1155.89 -66.2398 1166.11 -76.8672 1175.32 -88.3371C1183.83 -99.1015 1189.64 -111.748 1192.26 -125.217C1197.47 -151.872 1190.44 -179.246 1178.22 -203C1178.5 -202.492 1168.29 -192.965 1167.38 -192.033C1166.47 -191.102 1156.25 -181.829 1156.8 -180.834C1167.53 -159.938 1174.22 -136.523 1172.19 -112.853C1171.19 -100.679 1167.66 -88.8469 1161.84 -78.1114C1160.99 -76.5447 1160.06 -74.9992 1159.1 -73.4961C1156.5 -71.6319 1153.73 -69.9956 1150.85 -68.6055C1129.33 -58.401 1104.77 -60.6875 1081.67 -59.6713C1069.3 -59.3933 1057.06 -56.987 1045.51 -52.5578C1034.09 -47.9002 1026.02 -40.4267 1017.58 -31.7466C1008.81 -22.7488 998.181 -13.8781 994.285 -1.53535C990.431 10.2993 992.655 22.9597 993.904 35.0273C996.381 58.5272 996.487 84.4619 985.921 106.183C985.392 107.242 984.841 108.301 984.27 109.338C982.48 110.483 980.612 111.501 978.68 112.387C969.596 116.187 959.957 118.496 950.137 119.225C929.62 121.342 908.488 119.606 888.478 125.428C878.116 128.432 868.612 133.844 860.741 141.222C859.11 142.746 857.458 144.292 855.828 145.858C855.405 146.197 854.579 146.98 853.52 147.975C845.362 155.566 837.835 163.808 831.012 172.619C824.111 181.662 819.413 192.189 817.288 203.364C815.164 214.539 815.672 226.056 818.773 237C818.456 235.963 828.535 227.134 829.615 226.012C830.695 224.89 840.752 216.485 840.202 214.834C837.413 205.107 836.69 194.904 838.079 184.881C839.469 174.858 842.94 165.236 848.269 156.634C848.438 156.359 848.629 156.084 848.798 155.787C850.196 154.856 851.614 153.967 853.033 153.141C861.964 148.52 871.667 145.578 881.66 144.461C902.072 141.666 923.056 143.635 943.234 139.02C953.097 136.956 962.337 132.605 970.21 126.317C980.639 117.505 990.236 107.754 998.88 97.1857ZM1018.25 -29.8412C1018.51 -30.3281 1018.78 -30.8362 1019.08 -31.3232C1019.78 -32.5299 1020.71 -33.6308 1021.39 -34.8376C1020.41 -33.1179 1019.34 -31.4502 1018.19 -29.8412H1018.25ZM1010.5 -22.897C1012.11 -24.0615 1013.74 -25.0142 1015.4 -26.0727C1008.15 -17.5407 1003.35 -17.9007 1010.44 -22.9606L1010.5 -22.897ZM983.613 110.481C982.957 111.624 982.28 112.768 981.496 113.869C980.713 114.97 979.908 116.219 979.04 117.341C973.683 124.242 971.629 120.22 983.55 110.354L983.613 110.481Z" fill="#F7F8FC" fill-opacity="0.05"/>
<path d="M412.262 47.6647C422.309 55.9961 436.224 57.5885 448.823 57.2077C455.521 57.0116 462.149 55.7538 468.847 55.6153C472.178 55.4668 475.507 55.9243 478.674 56.9654C479.113 57.1155 479.54 57.2885 479.968 57.4731C491.897 78.9939 478.813 107.415 496.135 127.182C501.404 133.231 507.2 138.799 513.457 143.822C519.328 148.46 526.226 151.625 533.573 153.053C548.112 155.892 563.043 152.061 576 145.402C575.723 145.552 570.526 139.991 570.018 139.494C569.51 138.998 564.452 133.425 563.909 133.725C552.512 139.575 539.74 143.222 526.829 142.114C520.189 141.569 513.735 139.647 507.879 136.471C507.024 136.009 506.181 135.502 505.361 134.983C504.345 133.562 503.452 132.056 502.694 130.482C497.128 118.758 498.375 105.373 497.821 92.7833C497.669 86.0398 496.357 79.3727 493.941 73.0742C491.4 66.8546 487.324 62.458 482.589 57.8538C477.681 53.0766 472.843 47.2839 466.11 45.1606C459.655 43.0605 452.749 44.2722 446.167 44.953C433.349 46.3031 419.203 46.3608 407.354 40.6027C406.777 40.3142 406.2 40.0141 405.634 39.7026C405.009 38.7269 404.454 37.709 403.971 36.6562C401.898 31.7055 400.639 26.453 400.241 21.1012C399.086 9.91966 400.033 -1.59654 396.857 -12.5012C395.219 -18.1483 392.267 -23.3281 388.243 -27.6176C387.411 -28.5061 386.568 -29.4063 385.714 -30.2948C385.529 -30.5256 385.102 -30.9756 384.559 -31.5526C380.418 -35.9984 375.923 -40.1007 371.117 -43.8188C366.184 -47.5796 360.442 -50.1402 354.347 -51.298C348.251 -52.4557 341.97 -52.1786 336 -50.4886C336.566 -50.6617 341.381 -45.1688 341.993 -44.5803C342.605 -43.9918 347.19 -38.5107 348.091 -38.8107C353.396 -40.3304 358.961 -40.7244 364.429 -39.9673C369.896 -39.2101 375.144 -37.3186 379.836 -34.4143C379.986 -34.322 380.136 -34.2181 380.298 -34.1258C380.806 -33.3642 381.291 -32.5911 381.741 -31.8179C384.262 -26.951 385.867 -21.6629 386.476 -16.2168C388 -5.09292 386.926 6.34247 389.444 17.3394C390.57 22.7143 392.943 27.7498 396.372 32.0405C401.179 37.7239 406.498 42.954 412.262 47.6647ZM481.55 58.2232C481.815 58.3617 482.092 58.5117 482.358 58.6732C483.016 59.054 483.617 59.5617 484.275 59.931C483.337 59.3977 482.427 58.8161 481.55 58.1885L481.55 58.2232ZM477.762 53.9998C478.397 54.8768 478.917 55.7653 479.494 56.6654C474.84 52.719 475.037 50.0995 477.797 53.9651L477.762 53.9998ZM405.01 39.3449C404.387 38.9872 403.763 38.6179 403.163 38.191C402.562 37.764 401.881 37.3255 401.269 36.8524C397.504 33.933 399.698 32.8136 405.08 39.3103L405.01 39.3449Z" fill="#F7F8FC" fill-opacity="0.05"/>
<path d="M1333.26 197.665C1343.31 205.996 1357.22 207.589 1369.82 207.208C1376.52 207.012 1383.15 205.754 1389.85 205.615C1393.18 205.467 1396.51 205.924 1399.67 206.965C1400.11 207.115 1400.54 207.288 1400.97 207.473C1412.9 228.994 1399.81 257.415 1417.13 277.182C1422.4 283.231 1428.2 288.799 1434.46 293.822C1440.33 298.46 1447.23 301.625 1454.57 303.053C1469.11 305.892 1484.04 302.061 1497 295.402C1496.72 295.552 1491.53 289.991 1491.02 289.494C1490.51 288.998 1485.45 283.425 1484.91 283.725C1473.51 289.575 1460.74 293.222 1447.83 292.114C1441.19 291.569 1434.73 289.647 1428.88 286.471C1428.02 286.009 1427.18 285.502 1426.36 284.983C1425.34 283.562 1424.45 282.056 1423.69 280.482C1418.13 268.758 1419.38 255.373 1418.82 242.783C1418.67 236.04 1417.36 229.373 1414.94 223.074C1412.4 216.855 1408.32 212.458 1403.59 207.854C1398.68 203.077 1393.84 197.284 1387.11 195.161C1380.65 193.06 1373.75 194.272 1367.17 194.953C1354.35 196.303 1340.2 196.361 1328.35 190.603C1327.78 190.314 1327.2 190.014 1326.63 189.703C1326.01 188.727 1325.45 187.709 1324.97 186.656C1322.9 181.705 1321.64 176.453 1321.24 171.101C1320.09 159.92 1321.03 148.403 1317.86 137.499C1316.22 131.852 1313.27 126.672 1309.24 122.382C1308.41 121.494 1307.57 120.594 1306.71 119.705C1306.53 119.474 1306.1 119.024 1305.56 118.447C1301.42 114.002 1296.92 109.899 1292.12 106.181C1287.18 102.42 1281.44 99.8598 1275.35 98.702C1269.25 97.5443 1262.97 97.8214 1257 99.5114C1257.57 99.3383 1262.38 104.831 1262.99 105.42C1263.61 106.008 1268.19 111.489 1269.09 111.189C1274.4 109.67 1279.96 109.276 1285.43 110.033C1290.9 110.79 1296.14 112.681 1300.84 115.586C1300.99 115.678 1301.14 115.782 1301.3 115.874C1301.81 116.636 1302.29 117.409 1302.74 118.182C1305.26 123.049 1306.87 128.337 1307.48 133.783C1309 144.907 1307.93 156.342 1310.44 167.339C1311.57 172.714 1313.94 177.75 1317.37 182.04C1322.18 187.724 1327.5 192.954 1333.26 197.665ZM1402.55 208.223C1402.82 208.362 1403.09 208.512 1403.36 208.673C1404.02 209.054 1404.62 209.562 1405.28 209.931C1404.34 209.398 1403.43 208.816 1402.55 208.189L1402.55 208.223ZM1398.76 204C1399.4 204.877 1399.92 205.765 1400.49 206.665C1395.84 202.719 1396.04 200.099 1398.8 203.965L1398.76 204ZM1326.01 189.345C1325.39 188.987 1324.76 188.618 1324.16 188.191C1323.56 187.764 1322.88 187.326 1322.27 186.852C1318.5 183.933 1320.7 182.814 1326.08 189.31L1326.01 189.345Z" fill="#F7F8FC" fill-opacity="0.05"/>
<path d="M179.175 -20.9572C160.173 2.82184 157.049 35.3361 158.47 64.6972C159.211 80.3065 162.424 95.7093 163.031 111.321C163.518 119.081 162.592 126.865 160.298 134.293C159.967 135.323 159.582 136.326 159.169 137.33C109.493 166.057 42.6676 136.751 -2.69061 177.978C-16.5719 190.52 -29.3108 204.272 -40.7569 219.073C-51.3238 232.96 -58.4129 249.178 -61.431 266.37C-67.4348 300.391 -57.8698 335.045 -41.7962 364.976C-42.1577 364.336 -29.4086 351.983 -28.2731 350.777C-27.1376 349.572 -14.3557 337.542 -15.0782 336.289C-29.2024 309.96 -38.2455 280.333 -36.2088 250.182C-35.2195 234.675 -31.0116 219.544 -23.8534 205.756C-22.8133 203.744 -21.6652 201.757 -20.4891 199.823C-17.2192 197.392 -13.7461 195.247 -10.1083 193.412C16.9934 179.937 48.2582 182.279 77.5901 180.454C93.308 179.815 108.798 176.472 123.383 170.572C137.778 164.385 147.857 154.694 158.392 143.459C169.324 131.813 182.627 120.285 187.292 104.497C191.916 89.3559 188.799 73.3049 186.933 57.9854C183.242 28.1537 182.509 -4.82929 195.434 -32.7C196.082 -34.0585 196.757 -35.4175 197.46 -36.7501C199.708 -38.2474 202.058 -39.5861 204.493 -40.7566C215.949 -45.7992 228.143 -48.9584 240.605 -50.1123C266.629 -53.2782 293.522 -51.5575 318.815 -59.4239C331.913 -63.4837 343.866 -70.586 353.698 -80.1511C355.735 -82.1275 357.798 -84.1312 359.834 -86.1614C360.364 -86.602 361.395 -87.6174 362.717 -88.9073C372.909 -98.7504 382.284 -109.406 390.751 -120.769C399.311 -132.431 405.039 -145.928 407.48 -160.19C409.922 -174.452 409.01 -189.088 404.817 -202.936C405.244 -201.624 392.64 -190.163 391.294 -188.711C389.947 -187.259 377.361 -176.337 378.098 -174.25C381.866 -161.942 383.021 -148.983 381.487 -136.203C379.952 -123.423 375.764 -111.105 369.19 -100.042C368.982 -99.6876 368.746 -99.3331 368.537 -98.9523C366.783 -97.7352 365.001 -96.5716 363.217 -95.4887C351.975 -89.4052 339.713 -85.4394 327.039 -83.7884C301.166 -79.7633 274.456 -81.7836 248.92 -75.4481C236.435 -72.5955 224.794 -66.8484 214.934 -58.6698C201.885 -47.2218 189.915 -34.5978 179.175 -20.9572ZM157.487 141.051C157.176 141.676 156.837 142.329 156.472 142.955C155.612 144.506 154.454 145.928 153.62 147.478C154.824 145.268 156.142 143.123 157.568 141.05L157.487 141.051ZM167.175 132.04C165.157 133.558 163.107 134.808 161.033 136.192C170.038 125.174 176.154 125.52 167.257 132.12L167.175 132.04ZM198.267 -38.2193C199.075 -39.6885 199.91 -41.1582 200.88 -42.5765C201.85 -43.9948 202.844 -45.602 203.921 -47.0491C210.569 -55.9508 213.272 -50.8821 198.351 -38.0593L198.267 -38.2193Z" fill="#F7F8FC" fill-opacity="0.05"/>
</g>
<g clip-path="url(#clip2_149_9060)">
<path d="M441.12 802.814C425.832 821.233 422.91 846.744 423.609 869.842C423.969 882.121 426.277 894.274 426.531 906.553C426.804 912.659 425.964 918.764 424.054 924.57C423.778 925.374 423.461 926.157 423.122 926.941C383.633 948.811 331.481 924.824 295.21 956.58C284.111 966.24 273.893 976.867 264.677 988.337C256.166 999.101 250.358 1011.75 247.738 1025.22C242.529 1051.87 249.559 1079.25 261.776 1103C261.501 1102.49 271.707 1092.96 272.617 1092.03C273.528 1091.1 283.755 1081.83 283.204 1080.83C272.469 1059.94 265.778 1036.52 267.811 1012.85C268.81 1000.68 272.337 988.847 278.165 978.111C279.012 976.545 279.943 974.999 280.896 973.496C283.503 971.632 286.266 969.996 289.154 968.606C310.667 958.401 335.229 960.688 358.33 959.671C370.704 959.393 382.937 956.987 394.495 952.558C405.908 947.9 413.975 940.427 422.424 931.747C431.19 922.749 441.819 913.878 445.715 901.535C449.569 889.701 447.345 877.04 446.096 864.973C443.619 841.473 443.513 815.538 454.079 793.817C454.608 792.758 455.159 791.699 455.73 790.662C457.52 789.517 459.388 788.499 461.32 787.613C470.404 783.813 480.043 781.504 489.863 780.775C510.38 778.658 531.512 780.394 551.522 774.572C561.884 771.568 571.388 766.156 579.259 758.778C580.89 757.254 582.542 755.708 584.172 754.142C584.595 753.803 585.421 753.02 586.48 752.025C594.638 744.434 602.165 736.192 608.988 727.381C615.889 718.338 620.587 707.811 622.712 696.636C624.836 685.461 624.328 673.944 621.227 663C621.544 664.037 611.465 672.866 610.385 673.988C609.305 675.11 599.248 683.515 599.798 685.166C602.587 694.893 603.31 705.096 601.921 715.119C600.531 725.142 597.06 734.764 591.731 743.366C591.562 743.641 591.371 743.916 591.202 744.213C589.804 745.144 588.386 746.033 586.967 746.859C578.036 751.48 568.333 754.422 558.34 755.539C537.928 758.334 516.944 756.365 496.766 760.98C486.903 763.044 477.663 767.395 469.79 773.683C459.361 782.495 449.764 792.246 441.12 802.814ZM421.746 929.841C421.492 930.328 421.216 930.836 420.92 931.323C420.221 932.53 419.29 933.631 418.612 934.838C419.591 933.118 420.658 931.45 421.809 929.841H421.746ZM429.496 922.897C427.886 924.061 426.256 925.014 424.604 926.073C431.846 917.541 436.652 917.901 429.559 922.961L429.496 922.897ZM456.387 789.519C457.043 788.376 457.72 787.232 458.504 786.131C459.287 785.03 460.092 783.781 460.96 782.659C466.317 775.758 468.371 779.78 456.45 789.646L456.387 789.519Z" fill="#F7F8FC" fill-opacity="0.05"/>
<path d="M1027.74 852.335C1017.69 844.004 1003.78 842.411 991.177 842.792C984.479 842.988 977.851 844.246 971.153 844.385C967.822 844.533 964.493 844.076 961.326 843.035C960.887 842.885 960.46 842.712 960.032 842.527C948.103 821.006 961.187 792.585 943.865 772.818C938.596 766.769 932.8 761.201 926.543 756.178C920.672 751.54 913.774 748.375 906.427 746.947C891.888 744.108 876.957 747.939 864 754.598C864.277 754.448 869.474 760.009 869.982 760.506C870.49 761.002 875.548 766.575 876.091 766.275C887.488 760.425 900.26 756.778 913.171 757.886C919.811 758.431 926.265 760.353 932.121 763.529C932.976 763.991 933.819 764.498 934.639 765.017C935.655 766.438 936.548 767.944 937.306 769.518C942.872 781.242 941.625 794.627 942.179 807.217C942.331 813.96 943.643 820.627 946.059 826.926C948.6 833.145 952.676 837.542 957.411 842.146C962.319 846.923 967.157 852.716 973.89 854.839C980.345 856.94 987.251 855.728 993.833 855.047C1006.65 853.697 1020.8 853.639 1032.65 859.397C1033.22 859.686 1033.8 859.986 1034.37 860.297C1034.99 861.273 1035.55 862.291 1036.03 863.344C1038.1 868.295 1039.36 873.547 1039.76 878.899C1040.91 890.08 1039.97 901.597 1043.14 912.501C1044.78 918.148 1047.73 923.328 1051.76 927.618C1052.59 928.506 1053.43 929.406 1054.29 930.295C1054.47 930.526 1054.9 930.976 1055.44 931.553C1059.58 935.998 1064.08 940.101 1068.88 943.819C1073.82 947.58 1079.56 950.14 1085.65 951.298C1091.75 952.456 1098.03 952.179 1104 950.489C1103.43 950.662 1098.62 945.169 1098.01 944.58C1097.39 943.992 1092.81 938.511 1091.91 938.811C1086.6 940.33 1081.04 940.724 1075.57 939.967C1070.1 939.21 1064.86 937.319 1060.16 934.414C1060.01 934.322 1059.86 934.218 1059.7 934.126C1059.19 933.364 1058.71 932.591 1058.26 931.818C1055.74 926.951 1054.13 921.663 1053.52 916.217C1052 905.093 1053.07 893.658 1050.56 882.661C1049.43 877.286 1047.06 872.25 1043.63 867.96C1038.82 862.276 1033.5 857.046 1027.74 852.335ZM958.45 841.777C958.185 841.638 957.908 841.488 957.642 841.327C956.984 840.946 956.383 840.438 955.725 840.069C956.663 840.602 957.573 841.184 958.45 841.811L958.45 841.777ZM962.238 846C961.603 845.123 961.083 844.235 960.506 843.335C965.16 847.281 964.963 849.901 962.203 846.035L962.238 846ZM1034.99 860.655C1035.61 861.013 1036.24 861.382 1036.84 861.809C1037.44 862.236 1038.12 862.674 1038.73 863.148C1042.5 866.067 1040.3 867.186 1034.92 860.69L1034.99 860.655Z" fill="#F7F8FC" fill-opacity="0.05"/>
<path d="M106.738 702.335C96.691 694.004 82.7758 692.411 70.177 692.792C63.4792 692.988 56.8507 694.246 50.153 694.385C46.8224 694.533 43.4926 694.076 40.3257 693.035C39.8869 692.885 39.4596 692.712 39.0323 692.527C27.1033 671.006 40.1871 642.585 22.8653 622.818C17.5965 616.769 11.7997 611.201 5.54342 606.178C-0.328074 601.54 -7.22599 598.375 -14.573 596.947C-29.1118 594.108 -44.0432 597.939 -57 604.598C-56.7228 604.448 -51.5263 610.009 -51.0182 610.506C-50.5101 611.002 -45.4521 616.575 -44.9094 616.275C-33.5116 610.425 -20.7396 606.778 -7.82905 607.886C-1.18861 608.431 5.26532 610.353 11.1211 613.529C11.9756 613.991 12.8186 614.498 13.6385 615.017C14.6554 616.438 15.5478 617.944 16.3061 619.518C21.8722 631.242 20.625 644.627 21.1793 657.217C21.3309 663.96 22.6435 670.627 25.0594 676.926C27.5999 683.145 31.6763 687.542 36.411 692.146C41.3188 696.923 46.1574 702.716 52.8898 704.839C59.3451 706.94 66.2507 705.728 72.833 705.047C85.6512 703.697 99.7974 703.639 111.646 709.397C112.223 709.686 112.8 709.986 113.366 710.297C113.991 711.273 114.546 712.291 115.029 713.344C117.102 718.295 118.361 723.547 118.759 728.899C119.914 740.08 118.967 751.597 122.143 762.501C123.781 768.148 126.733 773.328 130.757 777.618C131.589 778.506 132.432 779.406 133.286 780.295C133.471 780.526 133.898 780.976 134.441 781.553C138.582 785.998 143.077 790.101 147.883 793.819C152.816 797.58 158.558 800.14 164.653 801.298C170.749 802.456 177.03 802.179 183 800.489C182.434 800.662 177.619 795.169 177.007 794.58C176.395 793.992 171.81 788.511 170.909 788.811C165.604 790.33 160.039 790.724 154.571 789.967C149.104 789.21 143.856 787.319 139.164 784.414C139.014 784.322 138.864 784.218 138.702 784.126C138.194 783.364 137.709 782.591 137.259 781.818C134.738 776.951 133.133 771.663 132.524 766.217C131 755.093 132.074 743.658 129.556 732.661C128.43 727.286 126.057 722.25 122.628 717.96C117.821 712.276 112.502 707.046 106.738 702.335ZM37.4503 691.777C37.1847 691.638 36.9075 691.488 36.6419 691.327C35.9837 690.946 35.3832 690.438 34.725 690.069C35.663 690.602 36.5726 691.184 37.4503 691.811L37.4503 691.777ZM41.238 696C40.6028 695.123 40.0832 694.235 39.5058 693.335C44.1596 697.281 43.9633 699.901 41.2033 696.035L41.238 696ZM113.99 710.655C114.613 711.013 115.237 711.382 115.837 711.809C116.438 712.236 117.119 712.674 117.731 713.148C121.496 716.067 119.302 717.186 113.92 710.69L113.99 710.655Z" fill="#F7F8FC" fill-opacity="0.05"/>
<path d="M1260.83 920.957C1279.83 897.178 1282.95 864.664 1281.53 835.303C1280.79 819.693 1277.58 804.291 1276.97 788.679C1276.48 780.919 1277.41 773.135 1279.7 765.707C1280.03 764.677 1280.42 763.674 1280.83 762.67C1330.51 733.943 1397.33 763.249 1442.69 722.022C1456.57 709.48 1469.31 695.728 1480.76 680.927C1491.32 667.04 1498.41 650.822 1501.43 633.63C1507.43 599.609 1497.87 564.955 1481.8 535.024C1482.16 535.664 1469.41 548.017 1468.27 549.223C1467.14 550.428 1454.36 562.458 1455.08 563.711C1469.2 590.04 1478.25 619.667 1476.21 649.818C1475.22 665.325 1471.01 680.456 1463.85 694.244C1462.81 696.256 1461.67 698.243 1460.49 700.177C1457.22 702.608 1453.75 704.753 1450.11 706.588C1423.01 720.063 1391.74 717.721 1362.41 719.546C1346.69 720.185 1331.2 723.528 1316.62 729.428C1302.22 735.615 1292.14 745.306 1281.61 756.541C1270.68 768.187 1257.37 779.715 1252.71 795.503C1248.08 810.644 1251.2 826.695 1253.07 842.015C1256.76 871.846 1257.49 904.829 1244.57 932.7C1243.92 934.059 1243.24 935.418 1242.54 936.75C1240.29 938.247 1237.94 939.586 1235.51 940.757C1224.05 945.799 1211.86 948.958 1199.39 950.112C1173.37 953.278 1146.48 951.558 1121.19 959.424C1108.09 963.484 1096.13 970.586 1086.3 980.151C1084.27 982.127 1082.2 984.131 1080.17 986.161C1079.64 986.602 1078.6 987.617 1077.28 988.907C1067.09 998.75 1057.72 1009.41 1049.25 1020.77C1040.69 1032.43 1034.96 1045.93 1032.52 1060.19C1030.08 1074.45 1030.99 1089.09 1035.18 1102.94C1034.76 1101.62 1047.36 1090.16 1048.71 1088.71C1050.05 1087.26 1062.64 1076.34 1061.9 1074.25C1058.13 1061.94 1056.98 1048.98 1058.51 1036.2C1060.05 1023.42 1064.24 1011.11 1070.81 1000.04C1071.02 999.688 1071.25 999.333 1071.46 998.952C1073.22 997.735 1075 996.572 1076.78 995.489C1088.02 989.405 1100.29 985.439 1112.96 983.788C1138.83 979.763 1165.54 981.784 1191.08 975.448C1203.57 972.595 1215.21 966.848 1225.07 958.67C1238.12 947.222 1250.09 934.598 1260.83 920.957ZM1282.51 758.949C1282.82 758.324 1283.16 757.671 1283.53 757.045C1284.39 755.494 1285.55 754.072 1286.38 752.522C1285.18 754.732 1283.86 756.877 1282.43 758.95L1282.51 758.949ZM1272.83 767.96C1274.84 766.442 1276.89 765.192 1278.97 763.808C1269.96 774.826 1263.85 774.48 1272.74 767.88L1272.83 767.96ZM1241.73 938.219C1240.92 939.689 1240.09 941.158 1239.12 942.577C1238.15 943.995 1237.16 945.602 1236.08 947.049C1229.43 955.951 1226.73 950.882 1241.65 938.059L1241.73 938.219Z" fill="#F7F8FC" fill-opacity="0.05"/>
</g>
</g>
<defs>
<clipPath id="clip0_149_9060">
<rect width="1440" height="900" fill="white"/>
</clipPath>
<clipPath id="clip1_149_9060">
<rect width="1440" height="400" fill="white"/>
</clipPath>
<clipPath id="clip2_149_9060">
<rect width="1440" height="400" fill="white" transform="matrix(-1 0 0 -1 1440 900)"/>
</clipPath>
</defs>
</svg>
