<svg width="878" height="177" viewBox="0 0 878 177" fill="none" xmlns="http://www.w3.org/2000/svg">
<path d="M579.212 89.5102L580.683 90.511C581.08 90.7818 581.392 91.1586 581.585 91.5984C581.777 92.0382 581.842 92.5233 581.773 92.9983C581.744 93.3643 581.605 93.713 581.375 93.9991C581.119 94.3859 580.888 94.7891 580.683 95.2059C578.858 98.4928 576.734 100.131 574.311 100.122C572.937 99.8444 571.67 99.1806 570.661 98.2083C569.315 97.3168 568.209 96.1091 567.438 94.6908C567.183 93.9748 566.815 93.3041 566.349 92.7039C566.127 92.5206 565.976 92.2655 565.922 91.9828C565.961 91.359 566.193 90.7628 566.584 90.2756C567.061 89.5788 567.391 88.7928 567.555 87.9649C567.65 87.5128 567.85 87.0893 568.139 86.7288C568.428 86.3683 568.798 86.0809 569.219 85.8898C569.95 85.5681 570.622 85.1253 571.205 84.5799C571.416 84.3614 571.67 84.1905 571.952 84.0788C572.234 83.9671 572.536 83.9172 572.839 83.9323C573.297 83.948 573.735 84.1253 574.075 84.4327C574.616 84.8443 575.204 85.1901 575.827 85.463C576.785 86.0204 577.577 86.823 578.123 87.7883L579.212 89.5102Z" fill="white"/>
<path d="M646.372 75.9125L646.99 74.4407L649.007 72.3803C649.614 71.2487 650.501 70.2912 651.582 69.5987C651.687 69.2199 651.846 68.8581 652.053 68.5243C652.307 68.0342 652.462 67.4992 652.509 66.9495L653.216 65.8163C653.422 65.625 653.525 65.4778 653.525 65.3895C653.372 65.0701 653.162 64.7809 652.907 64.5359L652.509 63.0641C652.509 62.6815 651.141 61.4305 648.388 59.2818H647.77L642.163 56.7798L641.854 56.0587L641.221 55.9262L640.441 56.2058H640.294L637.645 55.4994C636.215 55.1888 634.809 54.7807 633.436 54.2778C633.303 54.3844 633.134 54.437 632.965 54.425L629.815 53.8363C629.237 53.7781 628.684 53.5701 628.211 53.2329C627.83 52.9135 627.374 52.6958 626.886 52.6001C626.402 52.4818 625.944 52.2774 625.532 51.9966C625.16 51.7605 624.72 51.6568 624.281 51.7023L622.456 52.0702C622.456 51.9378 621.72 51.6876 620.278 51.3638C620.057 50.8928 619.91 50.6426 619.807 50.6426L617.541 50.937C616.069 50.2747 615.26 49.9362 615.215 49.9362C615.171 49.9362 614.038 49.8037 612.478 49.5388C611.432 49.4254 610.409 49.1524 609.446 48.7294C608.783 48.3573 608.076 48.0705 607.342 47.8758L606.885 47.4342C606.62 47.2909 606.331 47.1962 606.032 47.1546H604.56C604.087 47.0641 603.655 46.8273 603.324 46.4776C602.679 45.91 601.973 45.4164 601.219 45.0059C600.276 44.4494 599.479 43.6756 598.895 42.7489C598.312 41.8221 597.958 40.7693 597.864 39.6782C597.774 39.6042 597.716 39.4989 597.702 39.3838L598.173 37.1026C598.742 34.0148 600.29 31.1923 602.588 29.0522C602.778 28.4183 603.108 27.8352 603.554 27.3461C604 26.857 604.55 26.4743 605.163 26.2264L605.472 25.2257C606.596 24.374 607.653 23.4393 608.637 22.4293C609.272 21.7227 610.023 21.1303 610.859 20.678C611.538 20.3114 612.187 19.8932 612.802 19.427L614.273 18.853C614.273 18.4262 615.377 17.3813 617.747 15.9095C619.488 14.6108 621.369 13.51 623.354 12.6275C624.256 12.318 625.136 11.9492 625.989 11.5237C627.239 11.0546 628.53 10.6999 629.844 10.4641C629.999 9.93271 630.316 9.46335 630.752 9.12257C631.188 8.7818 631.72 8.58691 632.273 8.56554H633.436L634.996 7.0938L637.1 7.24097L637.954 6.34321C638.272 6.06473 638.644 5.85443 639.046 5.72533C639.448 5.59623 639.873 5.55106 640.294 5.59262L649.698 2.9582H650.331L650.949 3.10538C651.582 2.9721 652.145 2.61713 652.539 2.10459C652.869 1.77239 653.264 1.51201 653.7 1.33979C654.136 1.16757 654.602 1.08723 655.07 1.10381C655.496 1.20633 655.893 1.40241 656.233 1.67778C656.233 1.78081 656.233 1.82496 656.395 1.82496L658.411 1.25098L660.825 1.39815L663.871 0.677001C665.639 0.639321 667.383 1.08184 668.919 1.95742L669.081 1.67778V1.20683C669.081 0.39737 669.567 0 670.553 0C670.965 0 671.23 0.0883039 671.333 0.27963L672.26 0.780023H672.805C673.502 1.01247 674.181 1.29784 674.836 1.63363C675.279 1.31103 675.778 1.07167 676.307 0.927198C676.761 0.905961 677.213 0.99852 677.621 1.19645C678.03 1.39437 678.383 1.69138 678.647 2.06044L679.972 1.91326C680.384 1.54533 680.649 1.354 680.752 1.354C681.262 1.60799 681.691 2.00077 681.988 2.48724L682.459 2.63442H684.402C684.505 2.63442 684.711 2.78159 685.035 3.06122L685.888 3.69407C686.203 3.97424 686.489 4.28482 686.742 4.62127C686.895 4.85981 687.078 5.07749 687.287 5.26884C687.999 4.97172 688.726 4.71137 689.465 4.48881C689.98 4.48881 690.377 4.88618 690.627 5.69564C690.678 6.10896 690.829 6.50354 691.068 6.8448C691.307 7.18607 691.625 7.46359 691.996 7.65306C692.368 7.85822 692.685 8.14984 692.921 8.50332C693.157 8.8568 693.304 9.26176 693.35 9.68406C693.844 9.82771 694.277 10.1279 694.585 10.5394C694.893 10.9509 695.059 11.4513 695.057 11.9653L696.529 15.468L696.22 16.6748C696.467 17.0807 696.674 17.5095 696.838 17.9552L696.529 20.5897L696.838 23.3713C696.844 24.1726 696.637 24.9612 696.239 25.6566C695.841 26.3521 695.266 26.9296 694.572 27.3302C694.042 27.4188 693.539 27.625 693.1 27.9337C692.721 28.1783 692.316 28.3807 691.893 28.5371C691.407 28.6027 690.912 28.5573 690.445 28.4044C689.979 28.2514 689.553 27.9949 689.2 27.654C688.851 27.1434 688.418 26.6955 687.919 26.3295C687.728 26.209 687.571 26.0416 687.463 25.8432C687.355 25.6449 687.299 25.4222 687.301 25.1962C687.301 24.0924 688.096 23.0328 689.715 21.9878C690.008 22.0136 690.303 21.9681 690.574 21.8554C690.846 21.7426 691.086 21.5659 691.275 21.3403C691.321 20.9657 691.282 20.5856 691.159 20.2286C691.037 19.8716 690.835 19.5472 690.569 19.2798C690.026 18.806 689.533 18.2784 689.097 17.7051C688.597 17.085 688.007 16.5441 687.345 16.1009C686.757 15.7189 686.256 15.2174 685.874 14.6291C685.476 14.011 685.138 13.7019 684.814 13.7019L683.725 13.8491L681.326 13.2898C679.1 13.0429 676.908 12.5493 674.791 11.8181H673.231L668.978 11.2588C667.971 11.5844 666.915 11.7289 665.858 11.6856L660.722 12.4068L658.632 12.2596C658.47 12.2596 657.042 12.657 654.349 13.4664L653.569 13.6136H651.464C650.787 13.805 650.123 14.041 649.478 14.32C648.485 14.733 647.461 15.0676 646.416 15.3208L645.71 15.6152C645.575 15.7165 645.407 15.7637 645.239 15.7476L644.003 15.6152L637.144 18.6764L636.055 18.1024C635.582 17.8682 635.09 17.6761 634.583 17.5284C633.862 17.5284 633.494 17.8669 633.494 18.5292L633.332 19.8832C632.873 20.1314 632.435 20.4169 632.023 20.7368C631.799 20.9379 631.532 21.0841 631.243 21.1636H630.301C629.642 21.1777 629.014 21.4468 628.549 21.9142C628.156 22.3347 627.642 22.6226 627.078 22.7384C626.451 22.858 625.845 23.0714 625.282 23.3713C625.179 23.5626 624.767 23.7539 624.031 23.9452C623.676 24.0358 623.344 24.2007 623.057 24.429C622.771 24.6574 622.536 24.9439 622.368 25.2698C621.971 25.9615 621.514 26.3 620.999 26.3L619.439 26.0204L618.586 27.4921C617.497 27.7276 616.878 27.8601 616.717 27.9189C616.144 28.6369 615.464 29.2624 614.7 29.7733C614.023 30.2001 613.361 30.6564 612.713 31.1568C612.125 31.5388 611.624 32.0402 611.242 32.6285C610.948 33.1627 610.502 33.5979 609.961 33.8795C609.281 34.3326 608.764 34.9933 608.489 35.7633L607.709 36.4845C607.154 36.8265 606.688 37.296 606.35 37.8539C606.013 38.4118 605.812 39.0422 605.767 39.6929C605.767 40.4876 606.4 41.1646 607.636 41.4737C608.502 41.6632 609.336 41.9806 610.108 42.4156C610.526 42.6776 611.015 42.8012 611.507 42.7688C612.122 42.768 612.732 42.888 613.302 43.122L616.172 44.27C616.437 45.0206 616.687 45.4032 616.952 45.4032C617.217 45.4032 617.261 45.2119 617.57 44.8293C617.751 44.6228 617.98 44.4638 618.236 44.3663C618.493 44.2688 618.77 44.2357 619.042 44.27C619.431 44.2975 619.808 44.414 620.145 44.6105C620.482 44.807 620.769 45.0782 620.985 45.4032L621.617 44.9764H621.926L622.942 45.2561H623.089L624.031 44.8293C624.161 44.7289 624.324 44.6816 624.487 44.6968C625.304 44.8875 626.11 45.1233 626.901 45.4032H627.063C627.481 45.3382 627.894 45.2447 628.299 45.1236C628.76 45.1986 629.206 45.3425 629.624 45.5504L630.713 46.1097C630.713 46.2568 630.816 46.3304 631.022 46.3304C631.355 46.2896 631.676 46.1793 631.964 46.0066C632.321 45.8107 632.719 45.6999 633.126 45.6829C633.4 45.7164 633.665 45.804 633.905 45.9404C634.145 46.0768 634.356 46.2594 634.525 46.4776C634.974 46.2674 635.442 46.0998 635.923 45.9772C636.797 46.1434 637.622 46.5057 638.336 47.0369L639.808 47.3312H641.736L644.297 47.758C644.934 48.4307 645.674 48.9971 646.49 49.4358C646.537 49.1908 646.676 48.9732 646.878 48.828C647.081 48.6828 647.332 48.6212 647.579 48.6558C648.89 48.7653 650.176 49.0781 651.391 49.583L652.009 49.7302L652.642 50.157C653.179 50.022 653.725 49.9237 654.275 49.8626C655.306 49.8626 655.747 50.2011 655.747 50.8634C655.713 51.6188 655.559 52.364 655.291 53.071C655.394 53.071 655.541 53.174 655.747 53.3654C655.971 53.0898 656.274 52.8894 656.615 52.7914L657.852 52.1438C657.974 52.0022 658.14 51.9041 658.323 51.8642C660.161 52.175 661.88 52.9786 663.297 54.1895C664.244 54.7518 665.065 55.5034 665.708 56.3974C666.351 57.2913 666.803 58.3083 667.035 59.3848C667.078 60.0919 667.29 60.7784 667.654 61.3864L667.344 62.3136L667.506 63.4615C667.432 63.7986 667.329 64.1286 667.197 64.4476L667.035 65.5219C666.92 65.7236 666.759 65.895 666.564 66.0223C666.369 66.144 666.211 66.3172 666.108 66.5227L666.564 67.7296V68.0092C666.564 68.1956 666.373 68.4605 665.99 68.8039C665.664 69.0386 665.409 69.3597 665.255 69.7311C665.119 70.0516 664.936 70.3494 664.71 70.6142C664.444 70.9357 664.252 71.3129 664.151 71.718C664.048 72.1448 663.547 72.6305 662.679 73.1897C661.811 73.749 661.325 74.1464 661.325 74.426C661.325 74.7056 661.428 74.8528 661.634 74.8528C662.368 74.8109 663.067 74.5262 663.621 74.0433C664.05 73.6235 664.548 73.28 665.093 73.0278C665.744 72.81 666.371 72.5238 666.962 72.1742L674.321 69.0394C677.247 67.5985 680.289 66.4071 683.416 65.4778C684.24 65.4778 684.652 65.8605 684.652 66.611C684.652 66.9054 684.284 67.4499 683.563 68.2594C683.627 69.1955 683.333 70.1211 682.74 70.8481C682.147 71.5752 681.299 72.0493 680.369 72.1742C679.694 72.5564 679.091 73.0546 678.589 73.646H677.97C677.41 74.2633 676.729 74.7593 675.97 75.1035C675.211 75.4478 674.389 75.6329 673.555 75.6475H673.099C671.173 77.4078 668.698 78.4477 666.093 78.591C664.269 80.2541 662.767 81.093 661.575 81.093L660.339 81.3726C659.471 81.74 658.553 81.978 657.616 82.079C657.498 82.079 657.292 82.2704 656.983 82.653L655.821 83.4331C654.654 83.7185 653.564 84.256 652.627 85.0078C651.866 85.6682 650.98 86.1688 650.022 86.4796C649.37 86.6158 648.734 86.818 648.123 87.083C647.446 87.3773 644.724 88.9962 639.955 91.9397L638.94 92.2193C637.564 92.6845 636.276 93.3759 635.128 94.2651C634.584 94.8249 633.953 95.2922 633.259 95.6485H632.95C631.339 95.8508 629.849 96.6111 628.741 97.7972C627.702 98.4121 626.551 98.8125 625.356 98.9746C623.185 99.5204 621.104 100.373 619.174 101.506C617.938 101.786 616.407 102.168 614.583 102.639C613.282 103.005 611.96 103.291 610.624 103.493L605.178 104.567C603.986 104.759 602.603 105.038 601.057 105.421C600.28 105.154 599.465 105.01 598.644 104.994L597.245 105.127C596.88 105.065 596.542 104.896 596.274 104.641C595.732 104.246 595.144 103.92 594.523 103.67C593.787 103.36 593.434 102.551 593.434 101.212C593.434 99.8724 594.905 98.8569 597.716 97.6795C600.527 96.5021 602.441 95.7074 603.324 95.2217C603.598 94.9302 603.928 94.6977 604.295 94.5383C604.662 94.3789 605.058 94.2959 605.458 94.2945C606.384 94.2355 607.281 93.9417 608.063 93.4409C609.11 92.8467 610.241 92.4149 611.418 92.1605L614.524 90.6887C614.644 90.6144 614.78 90.569 614.921 90.5563H615.995C616.604 90.4504 617.17 90.1749 617.629 89.7615C618.318 89.2628 619.083 88.88 619.895 88.6283H620.823C620.926 88.6283 621.088 88.5106 621.294 88.2751C621.736 87.8948 622.232 87.5824 622.765 87.3479L623.001 87.2007H623.781C624.399 86.7486 625.077 86.3868 625.797 86.1263C626.592 85.8322 627.352 85.4522 628.064 84.9931L634.142 82.8591L635.54 82.9915C636.009 82.9141 636.436 82.6745 636.747 82.3145C637.793 81.6223 638.97 81.1515 640.206 80.9311C640.666 80.3868 641.219 79.9284 641.839 79.5771C642.88 78.897 643.864 78.1341 644.783 77.2959L646.372 75.9125ZM619.218 93.7058L618.129 93.5586C617.462 93.9127 616.732 94.1327 615.981 94.2062C614.812 94.4266 613.698 94.8714 612.699 95.5161C611.053 96.4264 609.346 97.223 607.592 97.9003C605.678 98.6656 604.648 99.166 604.648 99.372C607.37 99.0491 610.043 98.4019 612.61 97.444L618.218 95.9723C618.734 95.8611 619.23 95.6725 619.689 95.413C620.225 95.1012 620.787 94.8353 621.367 94.6183L622.603 93.7647L624.325 93.2054C625.208 92.9111 625.65 92.6314 625.65 92.3371C625.65 92.0427 625.65 92.1016 625.4 92.1016C623.889 92.0419 622.383 92.3079 620.985 92.8816C620.421 93.2066 619.83 93.4824 619.218 93.7058Z" fill="white"/>
<path d="M675.135 69.0415L676.386 68.0407H676.915C677.283 68.0407 677.828 67.6875 678.549 66.9664L679.329 66.6867C679.95 65.5964 680.876 64.7113 681.993 64.1406L683.229 63.287C683.494 63.0644 683.799 62.8946 684.127 62.7866C684.824 62.3977 685.455 61.901 685.996 61.3149C686.529 60.6993 687.256 60.284 688.057 60.1375C688.479 60.12 688.901 60.1697 689.308 60.2847C689.769 59.5684 690.415 58.9891 691.177 58.6069C692.055 58.1366 692.826 57.4903 693.443 56.7083L694.444 56.2815C695.257 55.9097 696.007 55.4131 696.666 54.8098C697.36 54.1903 698.269 53.8679 699.198 53.912C700.97 54.0223 702.643 54.7698 703.907 56.0166C704.583 56.4778 705.151 57.0796 705.573 57.7806C705.994 58.4817 706.26 59.2656 706.35 60.0786L705.026 65.6271C704.143 69.7185 703.162 71.8575 702.082 72.0439L701.773 73.5156C701.037 73.9866 700.684 74.3692 700.684 74.6489L701.155 76.3708C701.155 76.6063 700.861 76.9595 700.287 77.4305C700.184 77.4305 700.14 77.5776 700.14 77.8573V80.8008C700.14 81.3159 699.772 81.7427 699.05 82.0812C699.187 82.2048 699.347 82.2999 699.521 82.3608C700.153 81.995 700.887 81.8452 701.611 81.934L702.862 82.0812L704.569 80.5064C705.088 80.3476 705.583 80.1199 706.041 79.8294C707.111 79.3019 708.212 78.8399 709.338 78.446L719.64 71.3374C720.467 70.3723 721.581 69.6968 722.819 69.4095C723.599 69.4095 723.997 69.8657 723.997 70.7635C724.031 71.6774 723.801 72.5819 723.334 73.3684C722.844 74.152 722.44 74.9859 722.127 75.8557C721.892 76.6397 721.444 77.3428 720.832 77.8867C720.373 78.2401 719.971 78.662 719.64 79.1377C718.903 79.918 718.049 80.5784 717.109 81.0951C715.86 81.848 714.687 82.7204 713.606 83.7001C712.883 84.4078 712.089 85.0391 711.236 85.5839L707.866 87.8062L707.395 88.5127C706.927 88.7651 706.434 88.9673 705.924 89.1161C705.112 89.4108 704.341 89.8064 703.628 90.2935L702.229 90.9999C701.77 91.2251 701.269 91.3505 700.758 91.3679C700.069 91.3997 699.418 91.6886 698.933 92.1773C698.611 92.5594 698.17 92.8235 697.682 92.9279L696.519 92.7807L694.959 93.2222C693.759 93.0743 692.634 92.5604 691.736 91.7505C691.193 91.4256 690.736 90.9755 690.404 90.4377C690.071 89.9 689.872 89.2904 689.823 88.6598V88.233L689.985 87.2323C689.886 86.7249 689.728 86.2309 689.514 85.7605C689.322 85.3372 689.164 84.8991 689.043 84.4507L689.205 83.4499L689.043 83.0231C688.968 82.2008 689.073 81.3721 689.352 80.5947C689.595 80.1678 689.755 79.6982 689.823 79.2113C689.926 78.6226 690.029 78.1222 690.132 77.7395L690.529 75.9587C690.65 75.4979 690.925 75.0925 691.309 74.8108C691.412 74.4281 691.618 73.7952 691.927 72.8828L692.236 71.6024L693.016 70.6016C693.431 70.2154 693.692 69.6929 693.752 69.1298C693.867 68.3683 694.165 67.6461 694.621 67.0252C694.916 66.637 695.15 66.205 695.312 65.7448C695.312 65.1708 695.003 64.8912 694.385 64.8912C693.685 65.1699 693.03 65.5518 692.442 66.0245L690.971 65.5977C690.868 65.5977 690.588 65.8331 690.117 66.3188C690.117 66.5101 689.882 66.6426 689.425 66.7456C689.146 66.8262 688.884 66.9613 688.657 67.1431C688.43 67.325 688.241 67.55 688.101 67.8053L687.468 67.9524L686.467 67.5256H686.158C685.628 67.5256 685.319 68.0555 685.216 69.1004C684.656 69.8343 683.861 70.3538 682.964 70.5721L681.242 70.9989C680.952 71.107 680.689 71.2797 680.475 71.5041C680.261 71.7285 680.101 71.9986 680.006 72.2941C679.68 73.0566 679.131 73.7029 678.431 74.1485C677.979 74.5362 677.446 74.8178 676.871 74.9727C676.617 75.0143 676.356 75.0044 676.106 74.9436C675.855 74.8827 675.619 74.7722 675.412 74.6185C675.204 74.4647 675.03 74.271 674.899 74.0487C674.768 73.8264 674.683 73.5801 674.649 73.3243C674.62 73.144 674.62 72.9601 674.649 72.7798L675.282 69.4242L675.135 69.0415ZM708.72 33.3959L708.278 30.6438V30.217C708.278 27.9946 709.102 26.7584 710.766 26.5229C711.138 26.464 712.227 26.155 714.033 25.5957C715.252 25.9614 716.298 26.756 716.976 27.8328C717.832 28.7938 718.349 30.0086 718.448 31.2913C718.398 31.5166 718.319 31.7343 718.213 31.9389C717.992 32.5419 717.888 33.181 717.903 33.8227C717.862 34.3136 717.708 34.7882 717.452 35.2095C717.197 35.6308 716.848 35.9873 716.432 36.2511C715.55 36.9167 714.476 37.2781 713.371 37.2813C712.312 37.1068 711.34 36.5898 710.604 35.8096C709.713 35.2497 709.047 34.3958 708.72 33.3959Z" fill="white"/>
<path d="M252.597 85.6308C251.627 85.2824 250.745 84.7228 250.017 83.9923C249.29 83.2618 248.733 82.3787 248.388 81.4069C248.01 80.3496 247.825 79.2328 247.843 78.1102C247.834 76.4581 248.191 74.8245 248.888 73.327C249.645 71.6885 250.68 70.1944 251.95 68.9118C253.43 67.412 255.091 66.1019 256.895 65.0117C258.978 63.6904 261.181 62.5669 263.473 61.6561C264.072 61.3874 264.716 61.2326 265.372 61.1998C265.704 61.1713 266.038 61.228 266.341 61.3645C266.645 61.501 266.909 61.7128 267.109 61.9799C267.467 62.4925 267.652 63.106 267.638 63.7312V74.887C267.686 76.64 267.371 78.3838 266.711 80.0087C266.139 81.3467 265.28 82.5426 264.195 83.5114C263.108 84.4515 261.834 85.149 260.456 85.5572C259.028 86.0051 257.538 86.2285 256.041 86.2195C254.856 86.2455 253.678 86.0457 252.568 85.6308M247.711 32.0152C245.009 32.485 242.379 33.296 239.881 34.4289C237.929 35.3028 236.198 36.6057 234.819 38.2407C233.877 39.4117 233.275 40.8186 233.078 42.3081C232.881 43.7977 233.096 45.3128 233.7 46.6885C234.139 47.5867 234.773 48.376 235.554 48.9991C236.334 49.617 237.23 50.0724 238.189 50.3384C239.178 50.632 240.204 50.7808 241.235 50.7799C243.184 50.8836 245.1 50.2416 246.593 48.9844C247.891 47.7571 248.741 46.13 249.006 44.3631C249.14 43.6952 249.433 43.0693 249.86 42.5382C250.353 41.9106 250.95 41.3729 251.626 40.9487C252.45 40.4639 253.336 40.0926 254.26 39.8449C255.367 39.5675 256.504 39.4291 257.645 39.4328C259.978 39.32 262.288 39.9373 264.253 41.1989C265.04 41.7531 265.673 42.497 266.095 43.3615C266.517 44.226 266.714 45.1831 266.667 46.1439C266.726 47.4229 266.398 48.6899 265.725 49.7791C264.862 50.9694 263.766 51.971 262.502 52.7226C260.702 53.8568 258.812 54.8413 256.851 55.6661C254.569 56.6374 251.817 57.7413 248.609 58.9481C245.368 60.1371 242.24 61.6148 239.263 63.3633C237.124 64.6069 235.176 66.1536 233.479 67.9551C232.172 69.364 231.17 71.0274 230.536 72.8413C229.99 74.5141 229.712 76.2624 229.712 78.0219C229.662 80.4779 230.245 82.9055 231.404 85.0715C232.59 87.1562 234.267 88.9194 236.29 90.2079C238.679 91.7251 241.314 92.8157 244.076 93.431C247.456 94.1944 250.913 94.5648 254.378 94.5348C256.47 94.562 258.559 94.3895 260.618 94.0197C262.178 93.7247 263.717 93.3264 265.225 92.8276C266.535 92.386 267.624 91.9887 268.536 91.6355C269.281 91.3142 270.08 91.1345 270.891 91.1056C271.46 91.1041 272.024 91.2089 272.554 91.4147L274.276 92.077C274.951 92.3283 275.639 92.5444 276.336 92.7245C277.217 92.9458 278.122 93.0497 279.03 93.0336C279.943 93.0492 280.853 92.915 281.723 92.6362C282.489 92.4007 283.204 92.0211 283.828 91.5177C284.404 91.0661 284.868 90.4867 285.182 89.8252C285.552 89.1739 285.755 88.4404 285.77 87.6912C285.786 87.0385 285.696 86.3876 285.505 85.7632C285.329 85.2334 285.137 84.6888 284.931 84.1296C284.683 83.4849 284.471 82.8264 284.299 82.1574C284.125 81.2458 284.046 80.3185 284.063 79.3906V53.8411C284.094 50.8251 283.56 47.83 282.488 45.0107C281.436 42.2751 279.769 39.8179 277.617 37.8286C275.233 35.6751 272.433 34.0323 269.39 33.0013C265.643 31.7554 261.711 31.1581 257.763 31.2352C254.418 31.2055 251.078 31.4863 247.785 32.0741M384.289 85.6308C383.315 85.2774 382.431 84.7147 381.698 83.9824C380.988 83.2468 380.441 82.369 380.094 81.4069C379.711 80.3504 379.522 79.2337 379.535 78.1102C379.521 76.4639 379.857 74.8336 380.521 73.327C381.288 71.691 382.328 70.1978 383.597 68.9118C385.06 67.3942 386.707 66.0643 388.498 64.9528C390.58 63.6286 392.782 62.505 395.077 61.5972C395.676 61.3324 396.32 61.1875 396.975 61.1704C397.305 61.1402 397.637 61.1962 397.939 61.3329C398.241 61.4696 398.502 61.6824 398.697 61.9504C399.055 62.4631 399.241 63.0765 399.227 63.7018V74.8576C399.275 76.6105 398.959 78.3543 398.3 79.9793C397.743 81.3217 396.887 82.5197 395.798 83.482C394.726 84.4082 393.473 85.1 392.118 85.513C390.688 85.9539 389.2 86.1772 387.703 86.1753C386.519 86.1931 385.342 85.9935 384.23 85.5866M379.373 31.9711C376.719 32.4705 374.138 33.3012 371.691 34.4436C369.733 35.3156 367.997 36.6186 366.613 38.2554C365.429 39.6647 364.782 41.448 364.788 43.2887C364.756 44.4662 364.998 45.6351 365.495 46.7032C365.912 47.5942 366.52 48.3828 367.275 49.0138C368.055 49.6318 368.951 50.0872 369.91 50.3531C370.899 50.6468 371.925 50.7955 372.956 50.7946C374.916 50.909 376.844 50.2662 378.343 48.9991C379.651 47.7768 380.506 46.1481 380.771 44.3778C380.907 43.7131 381.194 43.0887 381.61 42.5529C382.125 41.9097 382.754 41.3661 383.465 40.9487C384.286 40.4578 385.173 40.0861 386.099 39.8449C387.163 39.5862 388.256 39.4626 389.351 39.4769C391.695 39.351 394.02 39.958 396.004 41.2136C396.787 41.7707 397.418 42.5151 397.84 43.3789C398.262 44.2427 398.46 45.1984 398.417 46.1586C398.435 47.4218 398.077 48.6618 397.387 49.7203C396.519 50.9109 395.417 51.9124 394.149 52.6637C392.354 53.7979 390.469 54.7824 388.513 55.6072C386.217 56.5786 383.465 57.6824 380.256 58.8892C377.015 60.0782 373.887 61.5559 370.911 63.3044C368.776 64.5482 366.832 66.0949 365.141 67.8963C363.834 69.3052 362.832 70.9686 362.198 72.7824C361.638 74.4518 361.36 76.2024 361.374 77.963C361.326 80.4171 361.904 82.8429 363.051 85.0126C364.231 87.122 365.908 88.9107 367.938 90.2226C370.318 91.7455 372.949 92.8366 375.708 93.4457C379.089 94.2091 382.546 94.5795 386.011 94.5495C388.102 94.5767 390.192 94.4042 392.251 94.0344C393.816 93.7394 395.36 93.3412 396.872 92.8423C398.167 92.4008 399.271 92.0034 400.184 91.6502C400.923 91.3273 401.717 91.1476 402.524 91.1203C403.092 91.1188 403.656 91.2236 404.187 91.4294L405.923 92.0917C406.598 92.3451 407.286 92.5613 407.984 92.7393C408.864 92.9605 409.77 93.0644 410.677 93.0483C411.59 93.0639 412.5 92.9297 413.37 92.651C414.132 92.4151 414.841 92.0354 415.46 91.5324C416.041 91.0813 416.509 90.5021 416.829 89.8399C417.137 89.1811 417.298 88.4628 417.3 87.7353C417.315 87.0827 417.226 86.4317 417.035 85.8074C416.844 85.2775 416.667 84.733 416.461 84.1737C416.223 83.547 416.036 82.9023 415.902 82.2457C415.723 81.3346 415.639 80.4073 415.652 79.4789V53.8411C415.681 50.8226 415.137 47.826 414.047 45.0107C412.992 42.2768 411.326 39.8203 409.176 37.8286C406.786 35.6754 403.981 34.0327 400.934 33.0013C397.187 31.7554 393.255 31.1581 389.307 31.2352C385.962 31.2055 382.622 31.4863 379.329 32.0741M468.62 31.7356C467.659 32.0611 466.766 32.5599 465.985 33.2073C465.208 33.857 464.572 34.6583 464.116 35.5621C463.614 36.5556 463.367 37.6579 463.395 38.7705C463.385 40.0504 463.508 41.328 463.763 42.5823C464.001 43.7177 464.306 44.8381 464.675 45.9379C465.028 47.0122 465.426 48.1013 465.867 49.1757C466.309 50.2501 466.692 51.4128 467.059 52.649C467.439 53.9841 467.739 55.3405 467.957 56.711C468.219 58.3856 468.342 60.079 468.325 61.7738C468.309 63.1673 468.136 64.5545 467.81 65.9094C467.455 67.4668 467.003 69.0004 466.456 70.5013C465.904 72.0111 465.26 73.4856 464.528 74.9165C463.862 76.2459 463.099 77.5248 462.247 78.743C461.551 79.7325 460.746 80.6408 459.848 81.451C459.247 82.0368 458.462 82.3958 457.626 82.4665C457.075 82.4623 456.533 82.3207 456.051 82.0544C455.548 81.7465 455.184 81.256 455.035 80.6857L443.261 43.5095C442.407 40.3036 440.582 37.4402 438.037 35.3119C435.597 33.5208 432.628 32.5985 429.604 32.6922C428.729 32.6767 427.858 32.8111 427.028 33.0896C426.36 33.3117 425.744 33.6672 425.218 34.1345C424.755 34.5328 424.396 35.038 424.173 35.6063C423.952 36.1279 423.837 36.6882 423.834 37.2546C423.824 38.1269 423.949 38.9955 424.202 39.8302C424.453 40.5701 424.763 41.2887 425.13 41.9789L426.307 44.1424C426.761 44.9991 427.135 45.8957 427.425 46.8209L440.097 87.6912C440.537 89.3575 441.588 90.7971 443.041 91.7238C444.589 92.6213 446.359 93.065 448.148 93.0042H456.095C457.797 93.024 459.49 92.7502 461.099 92.1947C462.491 91.7351 463.763 90.9709 464.822 89.9577C467.635 87.2347 470.155 84.2259 472.343 80.98C474.636 77.556 476.583 73.9128 478.156 70.1039C481.557 61.8312 483.293 52.969 483.263 44.0246C483.326 41.9149 482.95 39.8151 482.16 37.858C481.513 36.3546 480.555 35.0053 479.349 33.899C478.257 32.9148 476.96 32.1858 475.551 31.765C474.294 31.3678 472.985 31.1594 471.666 31.1469C470.664 31.1504 469.669 31.3195 468.723 31.6473M512.639 85.6308C511.666 85.2774 510.781 84.7147 510.049 83.9824C509.381 83.236 508.875 82.359 508.563 81.4069C508.18 80.3504 507.99 79.2337 508.003 78.1102C508.016 76.4795 508.373 74.8699 509.048 73.3859C509.815 71.7499 510.855 70.2567 512.124 68.9706C513.586 67.4568 515.226 66.1272 517.01 65.0117C519.099 63.6905 521.306 62.5671 523.604 61.6561C524.197 61.3899 524.838 61.2448 525.488 61.2293C525.82 61.2008 526.153 61.2574 526.457 61.3939C526.761 61.5304 527.025 61.7422 527.224 62.0093C527.562 62.529 527.727 63.1419 527.695 63.7607V74.9165C527.743 76.6694 527.427 78.4132 526.768 80.0381C526.207 81.3784 525.352 82.5754 524.266 83.5409C523.189 84.4674 521.931 85.1591 520.572 85.5719C519.143 86.0198 517.654 86.2432 516.157 86.2342C514.973 86.2519 513.796 86.0524 512.683 85.6455M507.827 32.0299C505.13 32.4998 502.504 33.3109 500.012 34.4436C498.049 35.315 496.309 36.618 494.92 38.2554C493.745 39.6693 493.104 41.4507 493.109 43.2887C493.077 44.4662 493.319 45.6351 493.816 46.7032C494.245 47.6075 494.88 48.3988 495.67 49.0138C496.444 49.632 497.335 50.0876 498.29 50.3531C499.279 50.6468 500.305 50.7955 501.336 50.7946C503.3 50.9098 505.233 50.2671 506.738 48.9991C508.03 47.7631 508.874 46.132 509.137 44.3631C509.259 43.6942 509.547 43.0667 509.975 42.5382C510.466 41.8977 511.076 41.358 511.771 40.9487C512.592 40.4578 513.479 40.0861 514.405 39.8449C515.506 39.5614 516.639 39.4228 517.776 39.4328C520.12 39.3069 522.445 39.9138 524.428 41.1694C525.209 41.7282 525.837 42.4733 526.256 43.337C526.675 44.2007 526.871 45.1555 526.827 46.1145C526.845 47.3777 526.486 48.6176 525.797 49.6761C524.938 50.8697 523.84 51.872 522.574 52.6196C520.779 53.7537 518.893 54.7382 516.937 55.5631C514.641 56.5344 511.889 57.6382 508.68 58.8451C505.439 60.0341 502.311 61.5117 499.335 63.2603C497.195 64.5039 495.247 66.0505 493.551 67.8521C492.244 69.261 491.242 70.9244 490.607 72.7383C490.067 74.4118 489.794 76.1602 489.798 77.9188C489.727 80.3574 490.296 82.7719 491.448 84.9226C492.599 87.0732 494.293 88.8852 496.362 90.1784C498.745 91.7132 501.381 92.8144 504.147 93.431C507.527 94.1944 510.984 94.5648 514.45 94.5348C516.541 94.562 518.631 94.3895 520.69 94.0197C522.25 93.7263 523.789 93.328 525.296 92.8276C526.601 92.386 527.705 91.9887 528.608 91.6355C529.353 91.3142 530.151 91.1345 530.962 91.1056C531.531 91.1041 532.095 91.2089 532.626 91.4147L534.362 92.077C535.032 92.3304 535.715 92.5465 536.408 92.7245C537.288 92.9458 538.194 93.0497 539.101 93.0336C540.019 93.0482 540.934 92.914 541.809 92.6362C542.571 92.4004 543.28 92.0207 543.899 91.5177C544.489 91.0675 544.969 90.4892 545.303 89.8263C545.637 89.1634 545.816 88.4334 545.827 87.6912C545.842 87.0385 545.753 86.3876 545.562 85.7632L544.973 84.1296C544.756 83.4976 544.574 82.8539 544.429 82.2016C544.236 81.2925 544.152 80.3637 544.179 79.4347V53.8411C544.193 50.824 543.649 47.8302 542.575 45.0107C541.518 42.2737 539.846 39.8163 537.688 37.8286C535.307 35.6707 532.507 34.0273 529.461 33.0013C525.714 31.7554 521.782 31.1581 517.835 31.2352C514.49 31.2055 511.149 31.4863 507.856 32.0741M299.457 7.49598C298.71 7.73619 298.011 8.11019 297.397 8.59979C296.841 9.05872 296.39 9.63066 296.072 10.2776C295.744 10.9405 295.578 11.6719 295.587 12.4116C295.575 13.0486 295.659 13.6837 295.837 14.2954C295.999 14.8253 296.19 15.3551 296.396 15.8996C296.602 16.4442 296.808 17.1065 296.97 17.7246C297.158 18.5847 297.242 19.4642 297.22 20.3443V66.763C297.173 69.9916 297.519 73.2139 298.251 76.3588C298.875 78.9074 299.866 81.3515 301.194 83.6145C302.306 85.571 303.751 87.319 305.462 88.7803C307.079 90.1331 308.877 91.2527 310.805 92.1064C312.782 92.9678 314.858 93.5808 316.986 93.9314C322.547 94.8411 328.235 94.6107 333.705 93.2544C336.459 92.5339 339.082 91.3814 341.476 89.8399C343.596 88.4692 345.468 86.7472 347.009 84.7477C348.499 82.7439 349.716 80.5516 350.63 78.2279C351.553 75.854 352.214 73.3865 352.602 70.8692C352.997 68.2583 353.193 65.6212 353.191 62.9806C353.193 60.3743 352.997 57.7715 352.602 55.1951C352.216 52.6835 351.575 50.2178 350.689 47.8364C349.832 45.4847 348.674 43.2536 347.245 41.1989C345.802 39.1673 344.02 37.3998 341.976 35.9742C339.723 34.4338 337.239 33.2614 334.617 32.5009C331.545 31.63 328.362 31.2087 325.169 31.2499C324.408 31.2501 323.649 31.324 322.902 31.4707C322.174 31.6064 321.47 31.8494 320.812 32.1918C320.206 32.4943 319.677 32.9325 319.267 33.4722C318.881 34.0226 318.684 34.684 318.708 35.3561C318.702 35.8577 318.787 36.3562 318.958 36.8278C319.117 37.2735 319.362 37.6836 319.679 38.0346C320.002 38.3921 320.392 38.6822 320.827 38.8882C321.327 39.1121 321.869 39.2227 322.417 39.212H323.653C324.884 39.203 326.095 39.5286 327.156 40.1539C328.292 40.8166 329.291 41.6909 330.099 42.7295C330.97 43.8853 331.692 45.1462 332.248 46.4824C332.91 48.0703 333.441 49.7093 333.837 51.3833C334.279 53.2103 334.603 55.0635 334.809 56.9318C335.027 58.8865 335.135 60.8519 335.133 62.8188C335.135 65.7101 334.924 68.5978 334.5 71.4579C334.143 74.0376 333.44 76.5574 332.41 78.949C331.576 80.9751 330.275 82.7753 328.613 84.2032C326.956 85.5567 324.864 86.2627 322.726 86.19C321.175 86.2541 319.639 85.86 318.311 85.0568C317.148 84.2904 316.193 83.249 315.529 82.025C314.793 80.6469 314.295 79.1541 314.057 77.6098C313.773 75.8779 313.635 74.1253 313.645 72.3704V22.0809C313.628 20.004 313.351 17.9373 312.821 15.9291C312.415 14.2268 311.697 12.6148 310.702 11.1753C309.762 9.87526 308.519 8.82439 307.081 8.11412C305.515 7.39127 303.801 7.04356 302.077 7.09861C301.183 7.08301 300.293 7.21732 299.443 7.49598M174.153 6.02424C171.96 6.32237 169.798 6.81489 167.692 7.49598C165.76 8.11414 163.9 8.93814 162.144 9.95379C160.531 10.9229 159.077 12.134 157.832 13.5448C156.625 14.8899 155.668 16.44 155.006 18.122C154.33 19.9288 153.99 21.8443 154.005 23.7734C153.955 25.2951 154.263 26.8073 154.903 28.1887C155.442 29.3228 156.211 30.3325 157.161 31.1534C158.111 31.9743 159.222 32.5886 160.422 32.9571C161.55 33.3382 162.734 33.5321 163.925 33.5311C165.045 33.5293 166.16 33.3708 167.236 33.0601C168.286 32.7631 169.281 32.2957 170.18 31.6767C170.975 31.0543 171.632 30.2722 172.108 29.3808C172.637 28.4176 172.896 27.3295 172.858 26.2313C172.873 25.6701 172.784 25.111 172.593 24.5829C172.43 24.1251 172.238 23.6778 172.019 23.2436C171.812 22.8363 171.625 22.4188 171.46 21.9926C171.282 21.5229 171.197 21.0231 171.21 20.5209C171.217 19.4413 171.529 18.3856 172.108 17.4744C172.671 16.604 173.426 15.8741 174.315 15.3404C175.278 14.7659 176.326 14.3486 177.421 14.1041C178.645 13.8492 179.893 13.7258 181.144 13.7362C183.373 13.7506 185.598 13.9425 187.796 14.3101C190.096 14.6778 192.364 15.219 194.581 15.9291C195.004 16.0789 195.394 16.3087 195.729 16.6061C195.93 16.7926 196.087 17.0214 196.189 17.2759C196.29 17.5303 196.335 17.8042 196.318 18.0778C196.302 18.5294 196.217 18.976 196.068 19.4024C195.859 20.0057 195.583 20.5834 195.243 21.1243L158.98 82.0691C158.493 82.821 157.962 83.5435 157.39 84.2326C156.919 84.8054 156.482 85.4049 156.08 86.0281C155.713 86.588 155.417 87.1911 155.197 87.8236C154.965 88.5205 154.855 89.2526 154.874 89.9871C154.857 90.6393 155.008 91.2849 155.312 91.8621C155.616 92.4393 156.063 92.9288 156.61 93.2838C158.059 94.181 159.751 94.6077 161.452 94.5054C162.194 94.5151 162.936 94.4807 163.675 94.4023C164.286 94.3665 164.893 94.2678 165.485 94.108L167.295 93.7548C167.928 93.637 168.678 93.5193 169.532 93.4016C170.386 93.2838 171.445 93.1955 172.652 93.1219C173.859 93.0483 175.316 93.0042 177.067 93.0042C178.819 93.0042 180.394 93.0925 182.292 93.2544L188.179 93.7695C190.225 93.9608 192.344 94.1374 194.493 94.2846C196.642 94.4318 198.776 94.5054 200.895 94.5054C204.836 94.5905 208.765 94.0236 212.522 92.8276C215.423 91.885 218.113 90.3852 220.44 88.4123C222.394 86.7696 223.945 84.7002 224.973 82.3635C225.914 80.234 226.414 77.9362 226.444 75.6082C226.473 74.0261 226.183 72.4543 225.591 70.9869C225.057 69.7021 224.265 68.5401 223.265 67.5725C222.277 66.6462 221.117 65.9214 219.851 65.4385C218.537 64.9507 217.146 64.7015 215.745 64.7026C214.478 64.6886 213.219 64.8927 212.021 65.306C210.963 65.7177 209.99 66.3214 209.151 67.0868C208.36 67.7648 207.736 68.6158 207.326 69.5741C206.884 70.5644 206.663 71.6391 206.679 72.7236C206.666 73.3654 206.75 74.0055 206.929 74.6221C207.076 75.1225 207.238 75.6082 207.429 76.0939C207.621 76.5795 207.827 77.0947 208.003 77.5656C208.214 78.1461 208.324 78.7584 208.327 79.3759C208.354 80.2134 208.182 81.0454 207.827 81.8042C207.406 82.6561 206.785 83.3933 206.017 83.953C205.012 84.6749 203.892 85.2222 202.705 85.5719C201.079 86.0363 199.392 86.2546 197.701 86.2195C196.509 86.2195 195.317 86.2195 194.14 86.0428C192.962 85.8662 191.858 85.7779 190.71 85.6013C189.563 85.4247 188.385 85.1892 187.208 84.9538L183.499 84.1737C183.166 84.1069 182.841 84.0084 182.528 83.8794C182.154 83.7199 181.802 83.5121 181.483 83.2612C181.154 82.9945 180.871 82.6764 180.644 82.3193C180.398 81.9279 180.275 81.4716 180.291 81.0095C180.295 80.6805 180.345 80.3537 180.438 80.0381C180.554 79.6162 180.744 79.2177 180.997 78.8607L215.774 20.6092C216.307 19.7112 216.907 18.8551 217.57 18.0484C218.158 17.3419 218.688 16.6797 219.159 16.0321C219.601 15.4294 219.981 14.7835 220.292 14.1041C220.595 13.2758 220.726 12.3943 220.675 11.5138C220.675 10.9069 220.571 10.3044 220.366 9.73303C220.168 9.15896 219.817 8.64998 219.351 8.26129C218.825 7.82522 218.221 7.49532 217.57 7.28994C216.694 7.03977 215.787 6.92074 214.876 6.93672C211.639 6.93672 208.641 6.86313 205.884 6.71596C203.117 6.55407 200.424 6.39218 197.79 6.20085C195.155 6.00952 192.491 5.83292 189.798 5.67103C187.105 5.50913 184.235 5.43555 181.159 5.43555C178.801 5.4356 176.445 5.59787 174.109 5.92122" fill="white"/>
<mask id="mask0_149_9222" style="mask-type:luminance" maskUnits="userSpaceOnUse" x="154" y="5" width="392" height="90">
<path d="M252.597 85.6337C251.627 85.2854 250.745 84.7257 250.017 83.9952C249.29 83.2648 248.733 82.3817 248.388 81.4098C248.01 80.3525 247.825 79.2358 247.843 78.1131C247.834 76.461 248.191 74.8274 248.888 73.3299C249.645 71.6915 250.68 70.1974 251.95 68.9147C253.43 67.4149 255.091 66.1048 256.895 65.0146C258.978 63.6933 261.181 62.5699 263.473 61.659C264.072 61.3903 264.716 61.2356 265.372 61.2028C265.704 61.1743 266.038 61.2309 266.341 61.3674C266.645 61.5039 266.909 61.7157 267.109 61.9828C267.467 62.4955 267.652 63.1089 267.638 63.7342V74.89C267.686 76.6429 267.371 78.3867 266.711 80.0116C266.139 81.3497 265.28 82.5455 264.195 83.5144C263.108 84.4545 261.834 85.1519 260.456 85.5601C259.028 86.008 257.538 86.2314 256.041 86.2224C254.856 86.2485 253.678 86.0487 252.568 85.6337M247.711 32.0181C245.009 32.4879 242.379 33.2989 239.881 34.4318C237.929 35.3057 236.198 36.6086 234.819 38.2436C233.877 39.4146 233.275 40.8215 233.078 42.3111C232.881 43.8006 233.096 45.3157 233.7 46.6914C234.139 47.5896 234.773 48.3789 235.554 49.002C236.334 49.62 237.23 50.0754 238.189 50.3413C239.178 50.635 240.204 50.7837 241.235 50.7828C243.184 50.8865 245.1 50.2446 246.593 48.9873C247.891 47.76 248.741 46.133 249.006 44.366C249.14 43.6981 249.433 43.0723 249.86 42.5411C250.353 41.9136 250.95 41.3758 251.626 40.9516C252.45 40.4668 253.336 40.0955 254.26 39.8478C255.367 39.5705 256.504 39.432 257.645 39.4357C259.978 39.3229 262.288 39.9402 264.253 41.2018C265.04 41.756 265.673 42.4999 266.095 43.3644C266.517 44.2289 266.714 45.186 266.667 46.1469C266.726 47.4258 266.398 48.6928 265.725 49.7821C264.862 50.9723 263.766 51.9739 262.502 52.7255C260.702 53.8598 258.812 54.8442 256.851 55.669C254.569 56.6404 251.817 57.7442 248.609 58.951C245.368 60.14 242.24 61.6177 239.263 63.3662C237.124 64.6099 235.176 66.1565 233.479 67.9581C232.172 69.367 231.17 71.0304 230.536 72.8442C229.99 74.517 229.712 76.2654 229.712 78.0248C229.662 80.4809 230.245 82.9084 231.404 85.0744C232.59 87.1591 234.267 88.9224 236.29 90.2108C238.679 91.728 241.314 92.8186 244.076 93.4339C247.456 94.1974 250.913 94.5678 254.378 94.5377C256.47 94.5649 258.559 94.3924 260.618 94.0226C262.178 93.7276 263.717 93.3294 265.225 92.8305C266.535 92.389 267.624 91.9916 268.536 91.6384C269.281 91.3171 270.08 91.1374 270.891 91.1086C271.46 91.107 272.024 91.2118 272.554 91.4176L274.276 92.0799C274.951 92.3312 275.639 92.5474 276.336 92.7275C277.217 92.9487 278.122 93.0526 279.03 93.0365C279.943 93.0521 280.853 92.9179 281.723 92.6392C282.489 92.4037 283.204 92.024 283.828 91.5207C284.404 91.069 284.868 90.4896 285.182 89.8281C285.552 89.1769 285.755 88.4434 285.77 87.6941C285.786 87.0414 285.696 86.3905 285.505 85.7661C285.329 85.2363 285.137 84.6918 284.931 84.1325C284.683 83.4878 284.471 82.8294 284.299 82.1604C284.125 81.2487 284.046 80.3214 284.063 79.3935V53.8441C284.094 50.8281 283.56 47.8329 282.488 45.0136C281.436 42.278 279.769 39.8208 277.617 37.8315C275.233 35.678 272.433 34.0352 269.39 33.0042C265.643 31.7583 261.711 31.1611 257.763 31.2381C254.418 31.2084 251.078 31.4892 247.785 32.077M384.289 85.6337C383.315 85.2803 382.431 84.7177 381.698 83.9853C380.988 83.2497 380.441 82.372 380.094 81.4098C379.711 80.3534 379.522 79.2366 379.535 78.1131C379.521 76.4669 379.857 74.8365 380.521 73.3299C381.288 71.6939 382.328 70.2007 383.597 68.9147C385.06 67.3971 386.707 66.0673 388.498 64.9557C390.58 63.6315 392.782 62.508 395.077 61.6001C395.676 61.3354 396.32 61.1904 396.975 61.1733C397.305 61.1431 397.637 61.1991 397.939 61.3358C398.241 61.4726 398.502 61.6854 398.697 61.9534C399.055 62.466 399.241 63.0795 399.227 63.7047V74.8605C399.275 76.6135 398.959 78.3573 398.3 79.9822C397.743 81.3247 396.887 82.5226 395.798 83.4849C394.726 84.4111 393.473 85.1029 392.118 85.5159C390.688 85.9568 389.2 86.1801 387.703 86.1782C386.519 86.196 385.342 85.9965 384.23 85.5895M379.373 31.974C376.719 32.4735 374.138 33.3041 371.691 34.4465C369.733 35.3186 367.997 36.6216 366.613 38.2583C365.429 39.6676 364.782 41.4509 364.788 43.2917C364.756 44.4692 364.998 45.638 365.495 46.7061C365.912 47.5971 366.52 48.3858 367.275 49.0168C368.055 49.6347 368.951 50.0901 369.91 50.356C370.899 50.6497 371.925 50.7984 372.956 50.7976C374.916 50.9119 376.844 50.2691 378.343 49.002C379.651 47.7797 380.506 46.151 380.771 44.3808C380.907 43.7161 381.194 43.0916 381.61 42.5558C382.125 41.9127 382.754 41.369 383.465 40.9516C384.286 40.4607 385.173 40.089 386.099 39.8478C387.163 39.5892 388.256 39.4656 389.351 39.4799C391.695 39.354 394.02 39.9609 396.004 41.2165C396.787 41.7736 397.418 42.518 397.84 43.3819C398.262 44.2457 398.46 45.2013 398.417 46.1616C398.435 47.4248 398.077 48.6647 397.387 49.7232C396.519 50.9138 395.417 51.9153 394.149 52.6667C392.354 53.8008 390.469 54.7853 388.513 55.6101C386.217 56.5815 383.465 57.6853 380.256 58.8921C377.015 60.0812 373.887 61.5588 370.911 63.3074C368.776 64.5511 366.832 66.0978 365.141 67.8992C363.834 69.3081 362.832 70.9715 362.198 72.7854C361.638 74.4547 361.36 76.2054 361.374 77.9659C361.326 80.42 361.904 82.8458 363.051 85.0156C364.231 87.1249 365.908 88.9137 367.938 90.2255C370.318 91.7484 372.949 92.8395 375.708 93.4486C379.089 94.2121 382.546 94.5825 386.011 94.5524C388.102 94.5796 390.192 94.4072 392.251 94.0373C393.816 93.7423 395.36 93.3441 396.872 92.8452C398.167 92.4037 399.271 92.0063 400.184 91.6531C400.923 91.3303 401.717 91.1505 402.524 91.1233C403.092 91.1217 403.656 91.2266 404.187 91.4324L405.923 92.0946C406.598 92.348 407.286 92.5642 407.984 92.7422C408.864 92.9634 409.77 93.0673 410.677 93.0513C411.59 93.0669 412.5 92.9326 413.37 92.6539C414.132 92.418 414.841 92.0383 415.46 91.5354C416.041 91.0843 416.509 90.505 416.829 89.8429C417.137 89.1841 417.298 88.4658 417.3 87.7383C417.315 87.0856 417.226 86.4347 417.035 85.8103C416.844 85.2805 416.667 84.7359 416.461 84.1767C416.223 83.55 416.036 82.9052 415.902 82.2487C415.723 81.3375 415.639 80.4103 415.652 79.4818V53.8441C415.681 50.8255 415.137 47.8289 414.047 45.0136C412.992 42.2798 411.326 39.8232 409.176 37.8315C406.786 35.6783 403.981 34.0357 400.934 33.0042C397.187 31.7583 393.255 31.1611 389.307 31.2381C385.962 31.2084 382.622 31.4892 379.329 32.077M468.62 31.7385C467.659 32.064 466.766 32.5628 465.985 33.2102C465.208 33.8599 464.572 34.6612 464.116 35.565C463.614 36.5586 463.367 37.6608 463.395 38.7734C463.385 40.0534 463.508 41.3309 463.763 42.5852C464.001 43.7206 464.306 44.841 464.675 45.9408C465.028 47.0152 465.426 48.1043 465.867 49.1786C466.309 50.253 466.692 51.4157 467.059 52.652C467.439 53.987 467.739 55.3434 467.957 56.714C468.219 58.3885 468.342 60.0819 468.325 61.7768C468.309 63.1702 468.136 64.5575 467.81 65.9123C467.455 67.4697 467.003 69.0033 466.456 70.5042C465.904 72.014 465.26 73.4885 464.528 74.9194C463.862 76.2488 463.099 77.5277 462.247 78.7459C461.551 79.7354 460.746 80.6437 459.848 81.4539C459.247 82.0397 458.462 82.3987 457.626 82.4694C457.075 82.4652 456.533 82.3236 456.051 82.0574C455.548 81.7494 455.184 81.2589 455.035 80.6886L443.261 43.5124C442.407 40.3065 440.582 37.4432 438.037 35.3148C435.597 33.5237 432.628 32.6014 429.604 32.6951C428.729 32.6797 427.858 32.8141 427.028 33.0925C426.36 33.3146 425.744 33.6701 425.218 34.1374C424.755 34.5357 424.396 35.0409 424.173 35.6092C423.952 36.1308 423.837 36.6911 423.834 37.2575C423.824 38.1298 423.949 38.9985 424.202 39.8331C424.453 40.5731 424.763 41.2916 425.13 41.9818L426.307 44.1453C426.761 45.002 427.135 45.8986 427.425 46.8239L440.097 87.6941C440.537 89.3604 441.588 90.8 443.041 91.7267C444.589 92.6243 446.359 93.068 448.148 93.0071H456.095C457.797 93.027 459.49 92.7531 461.099 92.1977C462.491 91.738 463.763 90.9738 464.822 89.9606C467.635 87.2376 470.155 84.2288 472.343 80.983C474.636 77.5589 476.583 73.9157 478.156 70.1068C481.557 61.8341 483.293 52.9719 483.263 44.0275C483.326 41.9178 482.95 39.818 482.16 37.861C481.513 36.3575 480.555 35.0082 479.349 33.902C478.257 32.9177 476.96 32.1887 475.551 31.7679C474.294 31.3707 472.985 31.1624 471.666 31.1498C470.664 31.1533 469.669 31.3224 468.723 31.6502M512.639 85.6337C511.666 85.2803 510.781 84.7177 510.049 83.9853C509.381 83.2389 508.875 82.3619 508.563 81.4098C508.18 80.3534 507.99 79.2366 508.003 78.1131C508.016 76.4825 508.373 74.8729 509.048 73.3888C509.815 71.7528 510.855 70.2596 512.124 68.9736C513.586 67.4597 515.226 66.1302 517.01 65.0146C519.099 63.6935 521.306 62.5701 523.604 61.659C524.197 61.3928 524.838 61.2477 525.488 61.2322C525.82 61.2037 526.153 61.2604 526.457 61.3969C526.761 61.5334 527.025 61.7452 527.224 62.0122C527.562 62.5319 527.727 63.1448 527.695 63.7636V74.9194C527.743 76.6723 527.427 78.4162 526.768 80.0411C526.207 81.3813 525.352 82.5784 524.266 83.5438C523.189 84.4703 521.931 85.162 520.572 85.5748C519.143 86.0227 517.654 86.2461 516.157 86.2371C514.973 86.2549 513.796 86.0553 512.683 85.6484M507.827 32.0328C505.13 32.5027 502.504 33.3138 500.012 34.4465C498.049 35.318 496.309 36.6209 494.92 38.2583C493.745 39.6722 493.104 41.4536 493.109 43.2917C493.077 44.4692 493.319 45.638 493.816 46.7061C494.245 47.6104 494.88 48.4017 495.67 49.0168C496.444 49.635 497.335 50.0905 498.29 50.356C499.279 50.6497 500.305 50.7984 501.336 50.7976C503.3 50.9127 505.233 50.27 506.738 49.002C508.03 47.766 508.874 46.1349 509.137 44.366C509.259 43.6971 509.547 43.0696 509.975 42.5411C510.466 41.9007 511.076 41.361 511.771 40.9516C512.592 40.4607 513.479 40.089 514.405 39.8478C515.506 39.5643 516.639 39.4258 517.776 39.4357C520.12 39.3098 522.445 39.9168 524.428 41.1724C525.209 41.7311 525.837 42.4763 526.256 43.34C526.675 44.2037 526.871 45.1585 526.827 46.1174C526.845 47.3806 526.486 48.6205 525.797 49.679C524.938 50.8727 523.84 51.875 522.574 52.6225C520.779 53.7567 518.893 54.7412 516.937 55.566C514.641 56.5373 511.889 57.6412 508.68 58.848C505.439 60.037 502.311 61.5147 499.335 63.2632C497.195 64.5068 495.247 66.0535 493.551 67.855C492.244 69.2639 491.242 70.9273 490.607 72.7412C490.067 74.4147 489.794 76.1631 489.798 77.9218C489.727 80.3603 490.296 82.7748 491.448 84.9255C492.599 87.0762 494.293 88.8881 496.362 90.1814C498.745 91.7162 501.381 92.8173 504.147 93.4339C507.527 94.1974 510.984 94.5678 514.45 94.5377C516.541 94.5649 518.631 94.3924 520.69 94.0226C522.25 93.7292 523.789 93.331 525.296 92.8305C526.601 92.389 527.705 91.9916 528.608 91.6384C529.353 91.3171 530.151 91.1374 530.962 91.1086C531.531 91.107 532.095 91.2118 532.626 91.4176L534.362 92.0799C535.032 92.3333 535.715 92.5495 536.408 92.7275C537.288 92.9487 538.194 93.0526 539.101 93.0365C540.019 93.0511 540.934 92.9169 541.809 92.6392C542.571 92.4033 543.28 92.0236 543.899 91.5207C544.489 91.0705 544.969 90.4921 545.303 89.8292C545.637 89.1664 545.816 88.4363 545.827 87.6941C545.842 87.0414 545.753 86.3905 545.562 85.7661L544.973 84.1325C544.756 83.5005 544.574 82.8568 544.429 82.2045C544.236 81.2955 544.152 80.3666 544.179 79.4377V53.8441C544.193 50.8269 543.649 47.8331 542.575 45.0136C541.518 42.2766 539.846 39.8193 537.688 37.8315C535.307 35.6736 532.507 34.0302 529.461 33.0042C525.714 31.7583 521.782 31.1611 517.835 31.2381C514.49 31.2084 511.149 31.4892 507.856 32.077M299.457 7.49891C298.71 7.73912 298.011 8.11312 297.397 8.60272C296.841 9.06165 296.39 9.63359 296.072 10.2805C295.744 10.9435 295.578 11.6748 295.587 12.4145C295.575 13.0515 295.659 13.6866 295.837 14.2984C295.999 14.8282 296.19 15.358 296.396 15.9026C296.602 16.4471 296.808 17.1094 296.97 17.7275C297.158 18.5876 297.242 19.4671 297.22 20.3472V66.766C297.173 69.9945 297.519 73.2169 298.251 76.3617C298.875 78.9103 299.866 81.3545 301.194 83.6174C302.306 85.5739 303.751 87.3219 305.462 88.7832C307.079 90.1361 308.877 91.2557 310.805 92.1094C312.782 92.9708 314.858 93.5838 316.986 93.9343C322.547 94.844 328.235 94.6137 333.705 93.2573C336.459 92.5368 339.082 91.3844 341.476 89.8429C343.596 88.4721 345.468 86.7501 347.009 84.7506C348.499 82.7469 349.716 80.5545 350.63 78.2308C351.553 75.8569 352.214 73.3894 352.602 70.8721C352.997 68.2612 353.193 65.6242 353.191 62.9836C353.193 60.3772 352.997 57.7744 352.602 55.1981C352.216 52.6864 351.575 50.2207 350.689 47.8394C349.832 45.4876 348.674 43.2566 347.245 41.2018C345.802 39.1702 344.02 37.4027 341.976 35.9771C339.723 34.4367 337.239 33.2643 334.617 32.5038C331.545 31.633 328.362 31.2116 325.169 31.2528C324.408 31.253 323.649 31.3269 322.902 31.4736C322.174 31.6093 321.47 31.8523 320.812 32.1947C320.206 32.4973 319.677 32.9354 319.267 33.4752C318.881 34.0255 318.684 34.6869 318.708 35.359C318.702 35.8606 318.787 36.3591 318.958 36.8307C319.117 37.2764 319.362 37.6865 319.679 38.0376C320.002 38.395 320.392 38.6851 320.827 38.8912C321.327 39.1151 321.869 39.2256 322.417 39.215H323.653C324.884 39.206 326.095 39.5315 327.156 40.1569C328.292 40.8195 329.291 41.6938 330.099 42.7324C330.97 43.8882 331.692 45.1491 332.248 46.4854C332.91 48.0732 333.441 49.7123 333.837 51.3863C334.279 53.2132 334.603 55.0664 334.809 56.9347C335.027 58.8894 335.135 60.8548 335.133 62.8217C335.135 65.7131 334.924 68.6007 334.5 71.4608C334.143 74.0405 333.44 76.5603 332.41 78.952C331.576 80.978 330.275 82.7783 328.613 84.2061C326.956 85.5597 324.864 86.2657 322.726 86.1929C321.175 86.257 319.639 85.8629 318.311 85.0597C317.148 84.2933 316.193 83.252 315.529 82.0279C314.793 80.6498 314.295 79.157 314.057 77.6127C313.773 75.8809 313.635 74.1282 313.645 72.3733V22.0839C313.628 20.0069 313.351 17.9402 312.821 15.932C312.415 14.2297 311.697 12.6178 310.702 11.1783C309.762 9.87819 308.519 8.82732 307.081 8.11705C305.515 7.3942 303.801 7.04649 302.077 7.10154C301.183 7.08594 300.293 7.22025 299.443 7.49891M174.153 6.02717C171.96 6.3253 169.798 6.81782 167.692 7.49891C165.76 8.11706 163.9 8.94107 162.144 9.95672C160.531 10.9258 159.077 12.1369 157.832 13.5478C156.625 14.8928 155.668 16.4429 155.006 18.1249C154.33 19.9317 153.99 21.8472 154.005 23.7764C153.955 25.298 154.263 26.8102 154.903 28.1916C155.442 29.3258 156.211 30.3354 157.161 31.1564C158.111 31.9773 159.222 32.5915 160.422 32.96C161.55 33.3411 162.734 33.535 163.925 33.534C165.045 33.5323 166.16 33.3737 167.236 33.0631C168.286 32.766 169.281 32.2987 170.18 31.6796C170.975 31.0572 171.632 30.2751 172.108 29.3837C172.637 28.4205 172.896 27.3324 172.858 26.2342C172.873 25.673 172.784 25.114 172.593 24.5858C172.43 24.128 172.238 23.6807 172.019 23.2465C171.812 22.8393 171.625 22.4217 171.46 21.9956C171.282 21.5259 171.197 21.026 171.21 20.5238C171.217 19.4442 171.529 18.3885 172.108 17.4773C172.671 16.607 173.426 15.877 174.315 15.3433C175.278 14.7689 176.326 14.3515 177.421 14.107C178.645 13.8521 179.893 13.7288 181.144 13.7391C183.373 13.7535 185.598 13.9455 187.796 14.3131C190.096 14.6807 192.364 15.2219 194.581 15.932C195.004 16.0818 195.394 16.3116 195.729 16.609C195.93 16.7956 196.087 17.0243 196.189 17.2788C196.29 17.5333 196.335 17.8072 196.318 18.0807C196.302 18.5323 196.217 18.9789 196.068 19.4053C195.859 20.0087 195.583 20.5864 195.243 21.1272L158.98 82.0721C158.493 82.824 157.962 83.5464 157.39 84.2355C156.919 84.8084 156.482 85.4079 156.08 86.0311C155.713 86.591 155.417 87.194 155.197 87.8266C154.965 88.5235 154.855 89.2556 154.874 89.99C154.857 90.6422 155.008 91.2878 155.312 91.8651C155.616 92.4423 156.063 92.9318 156.61 93.2867C158.059 94.184 159.751 94.6107 161.452 94.5083C162.194 94.518 162.936 94.4836 163.675 94.4053C164.286 94.3694 164.893 94.2708 165.485 94.1109L167.295 93.7577C167.928 93.64 168.678 93.5222 169.532 93.4045C170.386 93.2867 171.445 93.1984 172.652 93.1248C173.859 93.0513 175.316 93.0071 177.067 93.0071C178.819 93.0071 180.394 93.0954 182.292 93.2573L188.179 93.7724C190.225 93.9637 192.344 94.1404 194.493 94.2875C196.642 94.4347 198.776 94.5083 200.895 94.5083C204.836 94.5934 208.765 94.0265 212.522 92.8305C215.423 91.8879 218.113 90.3882 220.44 88.4153C222.394 86.7726 223.945 84.7031 224.973 82.3664C225.914 80.2369 226.414 77.9391 226.444 75.6111C226.473 74.029 226.183 72.4573 225.591 70.9899C225.057 69.705 224.265 68.543 223.265 67.5754C222.277 66.6491 221.117 65.9243 219.851 65.4414C218.537 64.9536 217.146 64.7044 215.745 64.7055C214.478 64.6915 213.219 64.8956 212.021 65.3089C210.963 65.7206 209.99 66.3244 209.151 67.0897C208.36 67.7677 207.736 68.6188 207.326 69.577C206.884 70.5673 206.663 71.6421 206.679 72.7265C206.666 73.3684 206.75 74.0085 206.929 74.6251C207.076 75.1254 207.238 75.6111 207.429 76.0968C207.621 76.5825 207.827 77.0976 208.003 77.5685C208.214 78.149 208.324 78.7613 208.327 79.3788C208.354 80.2163 208.182 81.0483 207.827 81.8072C207.406 82.659 206.785 83.3963 206.017 83.9559C205.012 84.6778 203.892 85.2251 202.705 85.5748C201.079 86.0393 199.392 86.2575 197.701 86.2224C196.509 86.2224 195.317 86.2224 194.14 86.0458C192.962 85.8692 191.858 85.7809 190.71 85.6042C189.563 85.4276 188.385 85.1922 187.208 84.9567L183.499 84.1767C183.166 84.1099 182.841 84.0113 182.528 83.8823C182.154 83.7228 181.802 83.515 181.483 83.2642C181.154 82.9974 180.871 82.6794 180.644 82.3223C180.398 81.9308 180.275 81.4745 180.291 81.0124C180.295 80.6834 180.345 80.3566 180.438 80.0411C180.554 79.6191 180.744 79.2207 180.997 78.8637L215.774 20.6121C216.307 19.7141 216.907 18.858 217.57 18.0513C218.158 17.3449 218.688 16.6826 219.159 16.035C219.601 15.4324 219.981 14.7864 220.292 14.107C220.595 13.2788 220.726 12.3973 220.675 11.5168C220.675 10.9098 220.571 10.3073 220.366 9.73596C220.168 9.16189 219.817 8.65291 219.351 8.26422C218.825 7.82815 218.221 7.49825 217.57 7.29287C216.694 7.0427 215.787 6.92367 214.876 6.93965C211.639 6.93965 208.641 6.86606 205.884 6.71889C203.117 6.557 200.424 6.39511 197.79 6.20378C195.155 6.01245 192.491 5.83585 189.798 5.67396C187.105 5.51206 184.235 5.43848 181.159 5.43848C178.801 5.43853 176.445 5.6008 174.109 5.92415" fill="white"/>
</mask>
<g mask="url(#mask0_149_9222)">
<path d="M548.725 2.84473H150.928V97.6102H548.725V2.84473Z" fill="white"/>
</g>
<path d="M364.724 167.421L366.74 154.731H368.612L367.712 160.437H367.748L374.408 154.731H376.802L369.026 161.319L368.99 160.437L375.254 167.421H372.95L367.586 161.499H367.55L366.596 167.421H364.724ZM376.234 167.421L377.314 160.527C377.374 160.179 377.416 159.825 377.44 159.465C377.476 159.093 377.5 158.721 377.512 158.349H379.276L379.15 160.257H378.916C379.264 159.573 379.72 159.057 380.284 158.709C380.848 158.361 381.496 158.187 382.228 158.187C382.96 158.187 383.548 158.367 383.992 158.727C384.436 159.087 384.682 159.627 384.73 160.347H384.442C384.778 159.699 385.258 159.177 385.882 158.781C386.506 158.385 387.19 158.187 387.934 158.187C388.954 158.187 389.68 158.493 390.112 159.105C390.556 159.717 390.676 160.677 390.472 161.985L389.608 167.421H387.79L388.672 161.895C388.792 161.115 388.738 160.545 388.51 160.185C388.282 159.825 387.862 159.645 387.25 159.645C386.554 159.645 385.978 159.885 385.522 160.365C385.066 160.845 384.772 161.493 384.64 162.309L383.812 167.421H381.994L382.876 161.895C383.008 161.115 382.96 160.545 382.732 160.185C382.516 159.825 382.096 159.645 381.472 159.645C380.776 159.645 380.2 159.885 379.744 160.365C379.288 160.845 378.994 161.493 378.862 162.309L378.052 167.421H376.234ZM395.849 167.583C395.021 167.583 394.319 167.385 393.743 166.989C393.179 166.593 392.777 166.029 392.537 165.297C392.309 164.553 392.273 163.665 392.429 162.633C392.669 161.181 393.209 160.077 394.049 159.321C394.901 158.565 395.915 158.187 397.091 158.187C397.871 158.187 398.525 158.385 399.053 158.781C399.581 159.165 399.905 159.693 400.025 160.365L399.827 160.401L400.349 158.349H402.095C402.011 158.721 401.921 159.093 401.825 159.465C401.741 159.825 401.669 160.179 401.609 160.527L400.529 167.421H398.711L399.035 165.369H399.323C399.011 166.053 398.561 166.593 397.973 166.989C397.385 167.385 396.677 167.583 395.849 167.583ZM396.389 166.161C397.157 166.161 397.817 165.891 398.369 165.351C398.933 164.811 399.299 164.007 399.467 162.939C399.647 161.823 399.533 160.995 399.125 160.455C398.729 159.903 398.123 159.627 397.307 159.627C396.539 159.627 395.879 159.897 395.327 160.437C394.787 160.977 394.427 161.769 394.247 162.813C394.079 163.941 394.187 164.781 394.571 165.333C394.967 165.885 395.573 166.161 396.389 166.161ZM403.181 167.421L405.287 154.173H407.105L404.999 167.421H403.181ZM411.012 167.583C409.932 167.583 409.14 167.277 408.636 166.665C408.132 166.053 407.976 165.117 408.168 163.857L409.032 158.349H410.85L409.986 163.803C409.866 164.619 409.938 165.213 410.202 165.585C410.478 165.945 410.946 166.125 411.606 166.125C412.35 166.125 412.962 165.885 413.442 165.405C413.922 164.925 414.228 164.283 414.36 163.479L415.17 158.349H416.988L415.548 167.421H413.784L414.072 165.477H414.342C414.006 166.149 413.55 166.671 412.974 167.043C412.398 167.403 411.744 167.583 411.012 167.583ZM427.887 167.583C427.107 167.583 426.453 167.391 425.925 167.007C425.397 166.611 425.073 166.077 424.953 165.405L425.133 165.369L424.809 167.421H423.009L425.115 154.173H426.933L425.943 160.365L425.655 160.401C425.967 159.717 426.417 159.177 427.005 158.781C427.593 158.385 428.301 158.187 429.129 158.187C429.969 158.187 430.671 158.385 431.235 158.781C431.799 159.177 432.201 159.747 432.441 160.491C432.681 161.223 432.717 162.099 432.549 163.119C432.309 164.583 431.763 165.693 430.911 166.449C430.071 167.205 429.063 167.583 427.887 167.583ZM427.671 166.161C428.451 166.161 429.111 165.891 429.651 165.351C430.191 164.811 430.551 164.007 430.731 162.939C430.899 161.823 430.791 160.995 430.407 160.455C430.023 159.903 429.417 159.627 428.589 159.627C427.821 159.627 427.155 159.897 426.591 160.437C426.039 160.977 425.679 161.769 425.511 162.813C425.343 163.941 425.457 164.781 425.853 165.333C426.249 165.885 426.855 166.161 427.671 166.161ZM438.01 167.583C437.074 167.583 436.294 167.391 435.67 167.007C435.046 166.623 434.602 166.059 434.338 165.315C434.086 164.571 434.038 163.677 434.194 162.633C434.35 161.673 434.656 160.863 435.112 160.203C435.58 159.531 436.156 159.027 436.84 158.691C437.536 158.355 438.31 158.187 439.162 158.187C440.122 158.187 440.908 158.385 441.52 158.781C442.144 159.165 442.582 159.729 442.834 160.473C443.098 161.205 443.146 162.087 442.978 163.119C442.822 164.091 442.51 164.907 442.042 165.567C441.586 166.227 441.01 166.731 440.314 167.079C439.63 167.415 438.862 167.583 438.01 167.583ZM438.136 166.161C438.892 166.161 439.546 165.891 440.098 165.351C440.65 164.811 441.01 164.007 441.178 162.939C441.358 161.823 441.244 160.995 440.836 160.455C440.44 159.903 439.846 159.627 439.054 159.627C438.274 159.627 437.614 159.897 437.074 160.437C436.546 160.977 436.192 161.769 436.012 162.813C435.844 163.941 435.952 164.781 436.336 165.333C436.72 165.885 437.32 166.161 438.136 166.161ZM448.624 171.309L450.316 160.527C450.376 160.179 450.418 159.825 450.442 159.465C450.478 159.093 450.502 158.721 450.514 158.349H452.278L452.152 160.401H451.882C452.194 159.717 452.644 159.177 453.232 158.781C453.82 158.385 454.528 158.187 455.356 158.187C456.196 158.187 456.898 158.385 457.462 158.781C458.026 159.177 458.428 159.747 458.668 160.491C458.908 161.223 458.944 162.099 458.776 163.119C458.536 164.583 457.99 165.693 457.138 166.449C456.298 167.205 455.29 167.583 454.114 167.583C453.334 167.583 452.68 167.391 452.152 167.007C451.624 166.611 451.3 166.077 451.18 165.405H451.378L450.442 171.309H448.624ZM453.898 166.161C454.678 166.161 455.338 165.891 455.878 165.351C456.418 164.811 456.778 164.007 456.958 162.939C457.126 161.823 457.018 160.995 456.634 160.455C456.25 159.903 455.644 159.627 454.816 159.627C454.048 159.627 453.382 159.897 452.818 160.437C452.266 160.977 451.906 161.769 451.738 162.813C451.57 163.941 451.684 164.781 452.08 165.333C452.476 165.885 453.082 166.161 453.898 166.161ZM464.237 167.583C463.301 167.583 462.521 167.391 461.897 167.007C461.273 166.623 460.829 166.059 460.565 165.315C460.313 164.571 460.265 163.677 460.421 162.633C460.577 161.673 460.883 160.863 461.339 160.203C461.807 159.531 462.383 159.027 463.067 158.691C463.763 158.355 464.537 158.187 465.389 158.187C466.349 158.187 467.135 158.385 467.747 158.781C468.371 159.165 468.809 159.729 469.061 160.473C469.325 161.205 469.373 162.087 469.205 163.119C469.049 164.091 468.737 164.907 468.269 165.567C467.813 166.227 467.237 166.731 466.541 167.079C465.857 167.415 465.089 167.583 464.237 167.583ZM464.363 166.161C465.119 166.161 465.773 165.891 466.325 165.351C466.877 164.811 467.237 164.007 467.405 162.939C467.585 161.823 467.471 160.995 467.063 160.455C466.667 159.903 466.073 159.627 465.281 159.627C464.501 159.627 463.841 159.897 463.301 160.437C462.773 160.977 462.419 161.769 462.239 162.813C462.071 163.941 462.179 164.781 462.563 165.333C462.947 165.885 463.547 166.161 464.363 166.161ZM473.17 167.421L470.722 158.349H472.594L474.466 165.927H473.944L478.264 158.349H480.172L474.826 167.421H473.17ZM483.256 167.583C482.548 167.583 481.882 167.493 481.258 167.313C480.646 167.133 480.16 166.893 479.8 166.593L480.394 165.333C480.802 165.621 481.258 165.849 481.762 166.017C482.266 166.173 482.794 166.251 483.346 166.251C483.994 166.251 484.504 166.137 484.876 165.909C485.248 165.681 485.464 165.375 485.524 164.991C485.584 164.643 485.518 164.361 485.326 164.145C485.134 163.929 484.81 163.785 484.354 163.713L482.986 163.479C482.098 163.335 481.48 163.029 481.132 162.561C480.784 162.081 480.664 161.487 480.772 160.779C480.868 160.227 481.09 159.759 481.438 159.375C481.786 158.991 482.236 158.697 482.788 158.493C483.34 158.289 483.946 158.187 484.606 158.187C485.266 158.187 485.872 158.271 486.424 158.439C486.976 158.607 487.414 158.835 487.738 159.123L487.108 160.347C486.796 160.095 486.418 159.897 485.974 159.753C485.53 159.597 485.074 159.519 484.606 159.519C483.958 159.519 483.454 159.645 483.094 159.897C482.734 160.137 482.518 160.449 482.446 160.833C482.386 161.181 482.44 161.469 482.608 161.697C482.776 161.925 483.07 162.075 483.49 162.147L484.894 162.381C485.806 162.537 486.442 162.837 486.802 163.281C487.174 163.725 487.3 164.295 487.18 164.991C487.096 165.531 486.88 165.999 486.532 166.395C486.184 166.779 485.728 167.073 485.164 167.277C484.612 167.481 483.976 167.583 483.256 167.583ZM492.995 167.583C492.059 167.583 491.279 167.391 490.655 167.007C490.031 166.623 489.587 166.059 489.323 165.315C489.071 164.571 489.023 163.677 489.179 162.633C489.335 161.673 489.641 160.863 490.097 160.203C490.565 159.531 491.141 159.027 491.825 158.691C492.521 158.355 493.295 158.187 494.147 158.187C495.107 158.187 495.893 158.385 496.505 158.781C497.129 159.165 497.567 159.729 497.819 160.473C498.083 161.205 498.131 162.087 497.963 163.119C497.807 164.091 497.495 164.907 497.027 165.567C496.571 166.227 495.995 166.731 495.299 167.079C494.615 167.415 493.847 167.583 492.995 167.583ZM493.121 166.161C493.877 166.161 494.531 165.891 495.083 165.351C495.635 164.811 495.995 164.007 496.163 162.939C496.343 161.823 496.229 160.995 495.821 160.455C495.425 159.903 494.831 159.627 494.039 159.627C493.259 159.627 492.599 159.897 492.059 160.437C491.531 160.977 491.177 161.769 490.997 162.813C490.829 163.941 490.937 164.781 491.321 165.333C491.705 165.885 492.305 166.161 493.121 166.161ZM503.058 167.583C502.23 167.583 501.528 167.385 500.952 166.989C500.388 166.593 499.986 166.029 499.746 165.297C499.518 164.553 499.482 163.665 499.638 162.633C499.878 161.181 500.418 160.077 501.258 159.321C502.11 158.565 503.124 158.187 504.3 158.187C505.08 158.187 505.734 158.385 506.262 158.781C506.79 159.165 507.114 159.693 507.234 160.365H507.036L508.026 154.173H509.844L507.738 167.421H505.938L506.262 165.369H506.532C506.22 166.053 505.77 166.593 505.182 166.989C504.594 167.385 503.886 167.583 503.058 167.583ZM503.598 166.161C504.366 166.161 505.026 165.891 505.578 165.351C506.142 164.811 506.508 164.007 506.676 162.939C506.856 161.823 506.742 160.995 506.334 160.455C505.938 159.903 505.332 159.627 504.516 159.627C503.748 159.627 503.088 159.897 502.536 160.437C501.996 160.977 501.636 161.769 501.456 162.813C501.288 163.941 501.396 164.781 501.78 165.333C502.176 165.885 502.782 166.161 503.598 166.161ZM511.2 163.911L512.082 154.731H514.332L512.316 163.911H511.2ZM510.12 167.421L510.462 165.279H512.604L512.262 167.421H510.12Z" fill="white"/>
</svg>
