<svg width="299" height="96" viewBox="0 0 299 96" fill="none" xmlns="http://www.w3.org/2000/svg">
<path d="M199.93 32.1926L200.459 32.5525C200.602 32.6499 200.714 32.7855 200.784 32.9436C200.853 33.1018 200.876 33.2762 200.851 33.4471C200.841 33.5787 200.791 33.7041 200.708 33.807C200.616 33.9462 200.533 34.0911 200.459 34.2411C199.803 35.4232 199.039 36.0125 198.167 36.009C197.673 35.9093 197.218 35.6706 196.855 35.3209C196.371 35.0002 195.973 34.5659 195.696 34.0558C195.604 33.7983 195.472 33.5571 195.304 33.3412C195.224 33.2753 195.17 33.1835 195.15 33.0819C195.165 32.8575 195.248 32.6431 195.389 32.4678C195.56 32.2172 195.679 31.9346 195.738 31.6368C195.772 31.4742 195.844 31.3219 195.948 31.1923C196.052 31.0626 196.185 30.9592 196.336 30.8905C196.599 30.7748 196.841 30.6156 197.051 30.4194C197.126 30.3408 197.218 30.2794 197.319 30.2392C197.42 30.199 197.529 30.181 197.638 30.1865C197.803 30.1921 197.96 30.2559 198.083 30.3665C198.277 30.5145 198.489 30.6389 198.713 30.737C199.057 30.9375 199.342 31.2261 199.538 31.5733L199.93 32.1926Z" fill="white"/>
<path d="M224.082 27.302L224.305 26.7727L225.03 26.0317C225.248 25.6247 225.567 25.2803 225.956 25.0313C225.994 24.895 226.051 24.7649 226.126 24.6449C226.217 24.4686 226.272 24.2762 226.29 24.0785L226.544 23.6709C226.618 23.6021 226.655 23.5492 226.655 23.5174C226.6 23.4025 226.524 23.2985 226.433 23.2104L226.29 22.6811C226.29 22.5435 225.797 22.0936 224.808 21.3208H224.585L222.569 20.4209L222.457 20.1616L222.23 20.1139L221.949 20.2145H221.896L220.944 19.9604C220.429 19.8487 219.924 19.7019 219.43 19.5211C219.382 19.5594 219.321 19.5783 219.26 19.574L218.128 19.3623C217.92 19.3414 217.721 19.2666 217.551 19.1453C217.414 19.0304 217.25 18.9521 217.074 18.9177C216.9 18.8751 216.735 18.8016 216.587 18.7007C216.454 18.6157 216.295 18.5784 216.137 18.5948L215.481 18.7271C215.481 18.6795 215.216 18.5895 214.698 18.4731C214.618 18.3037 214.565 18.2137 214.528 18.2137L213.713 18.3196C213.184 18.0814 212.893 17.9596 212.877 17.9596C212.861 17.9596 212.453 17.912 211.892 17.8167C211.516 17.7759 211.148 17.6777 210.802 17.5256C210.564 17.3918 210.309 17.2886 210.045 17.2186L209.881 17.0598C209.785 17.0082 209.681 16.9742 209.574 16.9592H209.045C208.875 16.9267 208.719 16.8415 208.6 16.7157C208.368 16.5116 208.114 16.3341 207.843 16.1864C207.504 15.9863 207.217 15.708 207.007 15.3747C206.797 15.0414 206.67 14.6627 206.636 14.2703C206.604 14.2437 206.583 14.2058 206.578 14.1644L206.747 13.344C206.952 12.2335 207.509 11.2184 208.335 10.4487C208.404 10.2207 208.522 10.011 208.683 9.83505C208.843 9.65914 209.041 9.52152 209.262 9.43237L209.373 9.07244C209.777 8.76615 210.157 8.42998 210.511 8.06674C210.739 7.81259 211.01 7.59953 211.31 7.43686C211.554 7.30503 211.788 7.15461 212.009 6.98694L212.538 6.78051C212.538 6.62701 212.935 6.2512 213.787 5.72188C214.414 5.25478 215.09 4.85888 215.804 4.54151C216.128 4.43017 216.445 4.29755 216.751 4.14453C217.201 3.9758 217.665 3.84824 218.138 3.76342C218.194 3.57231 218.308 3.40351 218.465 3.28095C218.621 3.15839 218.813 3.08829 219.012 3.08061H219.43L219.991 2.55129L220.748 2.60422L221.055 2.28134C221.169 2.18119 221.303 2.10555 221.448 2.05912C221.592 2.01269 221.745 1.99645 221.896 2.01139L225.279 1.06392H225.506L225.729 1.11685C225.956 1.06892 226.159 0.941256 226.3 0.756919C226.419 0.637441 226.561 0.543796 226.718 0.481857C226.874 0.419919 227.042 0.391025 227.211 0.396985C227.364 0.433859 227.506 0.50438 227.629 0.603418C227.629 0.64047 227.629 0.656349 227.687 0.656349L228.412 0.449917L229.28 0.502848L230.376 0.243484C231.012 0.229933 231.639 0.389086 232.191 0.703987L232.25 0.603418V0.434037C232.25 0.142915 232.424 0 232.779 0C232.927 0 233.022 0.0317586 233.06 0.100569L233.393 0.280536H233.589C233.84 0.364136 234.084 0.466769 234.319 0.587539C234.479 0.471513 234.658 0.385427 234.849 0.333468C235.012 0.32583 235.174 0.359119 235.321 0.430304C235.468 0.501489 235.595 0.608309 235.69 0.741039L236.167 0.688108C236.315 0.555779 236.41 0.486969 236.447 0.486969C236.631 0.578316 236.785 0.719579 236.892 0.894541L237.061 0.947471H237.76C237.797 0.947471 237.871 1.0004 237.987 1.10097L238.294 1.32858C238.408 1.42934 238.51 1.54104 238.601 1.66205C238.656 1.74784 238.722 1.82613 238.797 1.89494C239.053 1.78809 239.315 1.69445 239.581 1.61441C239.766 1.61441 239.909 1.75732 239.999 2.04844C240.017 2.1971 240.071 2.33901 240.157 2.46174C240.243 2.58448 240.358 2.68429 240.491 2.75243C240.625 2.82622 240.739 2.9311 240.824 3.05823C240.908 3.18536 240.961 3.33101 240.978 3.48289C241.156 3.53455 241.311 3.64252 241.422 3.7905C241.533 3.93849 241.593 4.11848 241.592 4.30332L242.121 5.56309L242.01 5.99713C242.099 6.14309 242.173 6.29731 242.233 6.45763L242.121 7.4051L242.233 8.4055C242.235 8.69371 242.16 8.97732 242.017 9.22745C241.874 9.47757 241.667 9.68526 241.417 9.82936C241.227 9.86122 241.046 9.93538 240.888 10.0464C240.752 10.1344 240.606 10.2072 240.454 10.2634C240.279 10.287 240.101 10.2707 239.933 10.2157C239.766 10.1607 239.612 10.0684 239.485 9.94581C239.36 9.76214 239.204 9.60107 239.025 9.46943C238.956 9.42609 238.9 9.36589 238.861 9.29456C238.822 9.22322 238.802 9.14311 238.803 9.06185C238.803 8.66487 239.088 8.28376 239.671 7.90795C239.776 7.91721 239.882 7.90087 239.98 7.86032C240.077 7.81977 240.164 7.75621 240.232 7.67505C240.248 7.54035 240.234 7.40363 240.19 7.27524C240.146 7.14685 240.073 7.03016 239.978 6.93401C239.783 6.7636 239.605 6.57384 239.448 6.36765C239.269 6.14464 239.056 5.95012 238.818 5.79069C238.607 5.65331 238.427 5.47297 238.289 5.26138C238.146 5.03907 238.025 4.92791 237.908 4.92791L237.516 4.98084L236.654 4.7797C235.853 4.69091 235.065 4.51338 234.303 4.25039H233.742L232.213 4.04925C231.851 4.16635 231.471 4.21833 231.091 4.20275L229.243 4.46212L228.492 4.40918C228.433 4.40918 227.92 4.5521 226.951 4.84322L226.671 4.89615H225.914C225.67 4.96498 225.432 5.04985 225.199 5.15022C224.842 5.29874 224.474 5.41909 224.098 5.51016L223.844 5.61602C223.796 5.65246 223.735 5.66945 223.675 5.66366L223.23 5.61602L220.764 6.71699L220.372 6.51056C220.202 6.42631 220.025 6.35723 219.843 6.30413C219.583 6.30413 219.451 6.42587 219.451 6.66406L219.393 7.15103C219.227 7.24028 219.07 7.34296 218.922 7.45803C218.841 7.53036 218.745 7.58292 218.641 7.61153H218.302C218.065 7.6166 217.839 7.71337 217.672 7.88148C217.531 8.03269 217.346 8.13626 217.143 8.1779C216.918 8.22093 216.7 8.29766 216.497 8.4055C216.46 8.47432 216.312 8.54313 216.047 8.61194C215.92 8.64451 215.8 8.70381 215.697 8.78593C215.594 8.86805 215.51 8.97112 215.449 9.08832C215.306 9.3371 215.142 9.45884 214.957 9.45884L214.396 9.35827L214.089 9.88758C213.697 9.97227 213.475 10.0199 213.417 10.0411C213.211 10.2993 212.966 10.5242 212.692 10.708C212.448 10.8615 212.21 11.0256 211.977 11.2056C211.765 11.343 211.585 11.5233 211.448 11.7349C211.342 11.927 211.182 12.0835 210.987 12.1848C210.742 12.3478 210.557 12.5854 210.458 12.8623L210.177 13.1217C209.978 13.2447 209.81 13.4135 209.689 13.6142C209.567 13.8149 209.495 14.0416 209.479 14.2756C209.479 14.5614 209.706 14.8049 210.151 14.9161C210.462 14.9842 210.762 15.0984 211.04 15.2548C211.19 15.3491 211.366 15.3935 211.543 15.3819C211.764 15.3816 211.984 15.4247 212.189 15.5089L213.221 15.9218C213.316 16.1917 213.406 16.3293 213.501 16.3293C213.597 16.3293 213.613 16.2605 213.724 16.1229C213.789 16.0486 213.871 15.9915 213.963 15.9564C214.056 15.9213 214.155 15.9094 214.253 15.9218C214.393 15.9317 214.529 15.9736 214.65 16.0442C214.771 16.1149 214.874 16.2124 214.952 16.3293L215.179 16.1758H215.29L215.656 16.2764H215.709L216.047 16.1229C216.094 16.0868 216.153 16.0698 216.211 16.0753C216.505 16.1438 216.795 16.2287 217.08 16.3293H217.138C217.288 16.3059 217.437 16.2723 217.582 16.2288C217.748 16.2557 217.909 16.3075 218.059 16.3823L218.45 16.5834C218.45 16.6363 218.488 16.6628 218.562 16.6628C218.681 16.6481 218.797 16.6084 218.9 16.5464C219.029 16.4759 219.172 16.436 219.319 16.4299C219.417 16.442 219.512 16.4735 219.599 16.5225C219.685 16.5716 219.761 16.6372 219.821 16.7157C219.983 16.6401 220.151 16.5799 220.324 16.5358C220.639 16.5956 220.935 16.7259 221.192 16.9169L221.722 17.0227H222.415L223.336 17.1762C223.565 17.4182 223.831 17.6219 224.125 17.7797C224.142 17.6916 224.192 17.6133 224.264 17.5611C224.337 17.5088 224.428 17.4867 224.516 17.4991C224.988 17.5385 225.45 17.651 225.887 17.8326L226.11 17.8855L226.337 18.039C226.53 17.9905 226.727 17.9551 226.925 17.9332C227.295 17.9332 227.454 18.0549 227.454 18.2931C227.442 18.5648 227.387 18.8328 227.29 19.0871C227.327 19.0871 227.38 19.1241 227.454 19.1929C227.535 19.0938 227.644 19.0218 227.766 18.9865L228.211 18.7536C228.255 18.7027 228.315 18.6674 228.38 18.653C229.041 18.7648 229.66 19.0538 230.17 19.4893C230.51 19.6916 230.805 19.9619 231.037 20.2834C231.268 20.6049 231.43 20.9707 231.514 21.3578C231.529 21.6121 231.605 21.859 231.736 22.0777L231.625 22.4112L231.683 22.824C231.657 22.9453 231.62 23.0639 231.572 23.1787L231.514 23.5651C231.472 23.6376 231.414 23.6992 231.345 23.745C231.274 23.7888 231.218 23.8511 231.18 23.925L231.345 24.359V24.4596C231.345 24.5266 231.276 24.6219 231.138 24.7454C231.021 24.8298 230.929 24.9453 230.873 25.0789C230.825 25.1942 230.759 25.3013 230.678 25.3965C230.582 25.5121 230.513 25.6478 230.476 25.7935C230.439 25.947 230.259 26.1216 229.947 26.3228C229.635 26.5239 229.46 26.6668 229.46 26.7674C229.46 26.868 229.497 26.9209 229.571 26.9209C229.835 26.9059 230.087 26.8034 230.286 26.6298C230.44 26.4788 230.619 26.3553 230.815 26.2646C231.05 26.1862 231.275 26.0833 231.487 25.9576L234.134 24.8301C235.186 24.3119 236.281 23.8834 237.405 23.5492C237.702 23.5492 237.85 23.6868 237.85 23.9567C237.85 24.0626 237.718 24.2585 237.458 24.5496C237.481 24.8863 237.375 25.2191 237.162 25.4806C236.949 25.7421 236.644 25.9126 236.31 25.9576C236.067 26.095 235.85 26.2742 235.669 26.4869H235.447C235.245 26.7089 235 26.8873 234.727 27.0111C234.454 27.1349 234.159 27.2015 233.859 27.2067H233.695C233.002 27.8398 232.112 28.2138 231.175 28.2654C230.519 28.8635 229.979 29.1652 229.55 29.1652L229.106 29.2658C228.793 29.3979 228.463 29.4835 228.126 29.5198C228.084 29.5198 228.01 29.5886 227.899 29.7263L227.481 30.0068C227.061 30.1095 226.669 30.3028 226.332 30.5732C226.058 30.8107 225.74 30.9907 225.395 31.1025C225.161 31.1515 224.932 31.2242 224.712 31.3195C224.469 31.4254 223.49 32.0076 221.775 33.0662L221.409 33.1668C220.915 33.3341 220.451 33.5828 220.038 33.9026C219.843 34.1039 219.616 34.272 219.366 34.4001H219.255C218.676 34.4729 218.14 34.7463 217.741 35.1729C217.368 35.3941 216.954 35.538 216.524 35.5964C215.743 35.7927 214.995 36.0992 214.301 36.5068C213.856 36.6074 213.306 36.745 212.649 36.9144C212.181 37.046 211.706 37.1486 211.225 37.2214L209.267 37.6078C208.838 37.6766 208.341 37.7771 207.785 37.9148C207.505 37.8189 207.212 37.7671 206.917 37.7613L206.414 37.8089C206.283 37.7868 206.161 37.726 206.065 37.6342C205.87 37.4924 205.658 37.375 205.435 37.2849C205.17 37.1737 205.043 36.8826 205.043 36.4009C205.043 35.9192 205.572 35.554 206.583 35.1306C207.594 34.7071 208.282 34.4213 208.6 34.2466C208.699 34.1418 208.817 34.0582 208.949 34.0008C209.081 33.9435 209.224 33.9137 209.367 33.9131C209.701 33.8919 210.023 33.7863 210.304 33.6061C210.681 33.3924 211.088 33.2372 211.511 33.1456L212.628 32.6163C212.671 32.5896 212.72 32.5733 212.771 32.5687H213.157C213.376 32.5306 213.58 32.4315 213.745 32.2829C213.993 32.1035 214.268 31.9658 214.56 31.8753H214.893C214.931 31.8753 214.989 31.8329 215.063 31.7483C215.222 31.6115 215.4 31.4991 215.592 31.4148L215.677 31.3619H215.957C216.18 31.1992 216.424 31.0691 216.683 30.9754C216.968 30.8697 217.242 30.733 217.498 30.5679L219.684 29.8004L220.187 29.848C220.355 29.8202 220.509 29.734 220.621 29.6045C220.997 29.3556 221.42 29.1863 221.865 29.107C222.03 28.9112 222.229 28.7463 222.452 28.62C222.826 28.3754 223.18 28.101 223.511 27.7996L224.082 27.302ZM214.317 33.7014L213.925 33.6485C213.685 33.7758 213.422 33.8549 213.152 33.8814C212.732 33.9607 212.331 34.1206 211.972 34.3525C211.38 34.6799 210.766 34.9664 210.135 35.21C209.447 35.4852 209.076 35.6652 209.076 35.7393C210.055 35.6231 211.016 35.3904 211.94 35.0459L213.957 34.5166C214.142 34.4766 214.321 34.4087 214.486 34.3154C214.679 34.2033 214.88 34.1076 215.089 34.0296L215.534 33.7226L216.153 33.5215C216.471 33.4156 216.63 33.315 216.63 33.2092C216.63 33.1033 216.63 33.1245 216.54 33.1245C215.996 33.103 215.455 33.1987 214.952 33.405C214.749 33.5219 214.536 33.6211 214.317 33.7014Z" fill="white"/>
<path d="M234.427 24.8314L234.877 24.4715H235.067C235.2 24.4715 235.395 24.3444 235.655 24.0851L235.935 23.9845C236.158 23.5924 236.492 23.274 236.893 23.0688L237.338 22.7618C237.433 22.6817 237.543 22.6206 237.661 22.5818C237.911 22.4419 238.138 22.2633 238.333 22.0525C238.525 21.8311 238.786 21.6817 239.074 21.6291C239.226 21.6228 239.378 21.6406 239.524 21.682C239.69 21.4244 239.922 21.216 240.196 21.0786C240.512 20.9094 240.79 20.677 241.011 20.3958L241.371 20.2422C241.664 20.1085 241.933 19.9299 242.171 19.7129C242.42 19.4901 242.747 19.3742 243.081 19.3901C243.718 19.4297 244.32 19.6986 244.775 20.147C245.018 20.3129 245.222 20.5293 245.374 20.7814C245.525 21.0335 245.621 21.3155 245.653 21.6079L245.177 23.6034C244.86 25.0749 244.507 25.8442 244.118 25.9112L244.007 26.4405C243.743 26.6099 243.616 26.7475 243.616 26.8481L243.785 27.4674C243.785 27.5521 243.679 27.6791 243.473 27.8485C243.436 27.8485 243.42 27.9014 243.42 28.002V29.0606C243.42 29.2459 243.287 29.3994 243.028 29.5211C243.077 29.5656 243.135 29.5998 243.197 29.6217C243.425 29.4901 243.689 29.4362 243.949 29.4682L244.399 29.5211L245.013 28.9548C245.2 28.8976 245.378 28.8157 245.542 28.7113C245.927 28.5215 246.323 28.3554 246.728 28.2137L250.433 25.6571C250.731 25.31 251.131 25.0671 251.577 24.9637C251.857 24.9637 252 25.1278 252 25.4507C252.012 25.7794 251.93 26.1047 251.762 26.3876C251.586 26.6694 251.44 26.9693 251.328 27.2821C251.243 27.5641 251.082 27.817 250.862 28.0126C250.697 28.1397 250.552 28.2914 250.433 28.4625C250.168 28.7431 249.861 28.9807 249.523 29.1665C249.074 29.4373 248.652 29.751 248.263 30.1034C248.003 30.3579 247.717 30.5849 247.411 30.7809L246.199 31.5802L246.029 31.8342C245.861 31.925 245.684 31.9977 245.5 32.0512C245.208 32.1572 244.931 32.2995 244.674 32.4747L244.171 32.7288C244.006 32.8098 243.826 32.8549 243.642 32.8611C243.395 32.8726 243.16 32.9764 242.986 33.1522C242.87 33.2896 242.712 33.3846 242.536 33.4222L242.118 33.3692L241.557 33.528C241.125 33.4748 240.72 33.29 240.397 32.9987C240.202 32.8819 240.038 32.72 239.918 32.5266C239.799 32.3332 239.727 32.1139 239.709 31.8872V31.7337L239.768 31.3737C239.732 31.1913 239.675 31.0136 239.598 30.8444C239.529 30.6921 239.473 30.5346 239.429 30.3733L239.487 30.0134L239.429 29.8599C239.402 29.5641 239.44 29.2661 239.54 28.9865C239.628 28.833 239.685 28.6641 239.709 28.489C239.746 28.2772 239.783 28.0973 239.82 27.9596L239.963 27.3192C240.007 27.1534 240.106 27.0077 240.244 26.9063C240.281 26.7687 240.355 26.5411 240.466 26.2129L240.577 25.7524L240.858 25.3925C241.007 25.2536 241.101 25.0657 241.123 24.8632C241.164 24.5893 241.271 24.3295 241.435 24.1062C241.541 23.9666 241.625 23.8112 241.684 23.6457C241.684 23.4393 241.572 23.3387 241.35 23.3387C241.098 23.4389 240.863 23.5763 240.651 23.7463L240.122 23.5928C240.085 23.5928 239.985 23.6775 239.815 23.8522C239.815 23.921 239.73 23.9686 239.566 24.0057C239.466 24.0346 239.372 24.0832 239.29 24.1486C239.208 24.2141 239.14 24.295 239.09 24.3868L238.862 24.4397L238.502 24.2862H238.391C238.201 24.2862 238.09 24.4768 238.053 24.8526C237.851 25.1165 237.565 25.3033 237.243 25.3819L236.623 25.5354C236.519 25.5742 236.424 25.6364 236.347 25.7171C236.27 25.7978 236.213 25.8949 236.179 26.0012C236.061 26.2754 235.864 26.5079 235.612 26.6681C235.45 26.8076 235.258 26.9089 235.051 26.9645C234.96 26.9795 234.866 26.976 234.776 26.9541C234.686 26.9322 234.601 26.8924 234.526 26.8372C234.452 26.7819 234.389 26.7122 234.342 26.6322C234.295 26.5523 234.264 26.4637 234.252 26.3717C234.241 26.3069 234.241 26.2407 234.252 26.1759L234.48 24.969L234.427 24.8314ZM246.506 12.0114L246.347 11.0216V10.8681C246.347 10.0688 246.643 9.62421 247.241 9.53952C247.376 9.51835 247.767 9.40719 248.417 9.20605C248.855 9.33757 249.231 9.62336 249.475 10.0106C249.783 10.3563 249.969 10.7932 250.004 11.2545C249.987 11.3355 249.958 11.4138 249.92 11.4874C249.841 11.7043 249.803 11.9341 249.809 12.1649C249.794 12.3415 249.738 12.5122 249.646 12.6637C249.555 12.8152 249.429 12.9434 249.279 13.0383C248.962 13.2777 248.576 13.4077 248.178 13.4088C247.798 13.346 247.448 13.1601 247.183 12.8795C246.863 12.6781 246.623 12.371 246.506 12.0114Z" fill="white"/>
<path d="M82.4606 30.7974C82.1115 30.6721 81.7946 30.4708 81.5328 30.2081C81.271 29.9454 81.0708 29.6278 80.9468 29.2783C80.8108 28.898 80.7445 28.4964 80.7509 28.0926C80.7475 27.4984 80.8758 26.9109 81.1267 26.3723C81.3987 25.7831 81.7712 25.2457 82.2277 24.7844C82.7602 24.245 83.3576 23.7738 84.0062 23.3817C84.7555 22.9065 85.5477 22.5025 86.3722 22.1749C86.5877 22.0782 86.8192 22.0226 87.0551 22.0108C87.1744 22.0005 87.2945 22.0209 87.4038 22.07C87.5131 22.1191 87.608 22.1953 87.6797 22.2913C87.8085 22.4757 87.8752 22.6963 87.8702 22.9212V26.9334C87.8874 27.5638 87.7739 28.191 87.5367 28.7754C87.3311 29.2566 87.0221 29.6867 86.6316 30.0352C86.2409 30.3733 85.7826 30.6241 85.2872 30.7709C84.7734 30.932 84.2377 31.0124 83.6992 31.0091C83.2732 31.0185 82.8492 30.9466 82.45 30.7974M80.7033 11.5145C79.7317 11.6834 78.7855 11.9751 77.8873 12.3826C77.1851 12.6969 76.5627 13.1655 76.0665 13.7535C75.7279 14.1747 75.5114 14.6806 75.4405 15.2164C75.3695 15.7521 75.4469 16.297 75.6642 16.7917C75.8222 17.1148 76.05 17.3987 76.3312 17.6228C76.6116 17.845 76.9338 18.0088 77.2786 18.1044C77.6343 18.2101 78.0033 18.2635 78.3743 18.2632C79.0753 18.3005 79.7641 18.0697 80.301 17.6175C80.768 17.1761 81.0737 16.5909 81.1691 15.9554C81.2174 15.7152 81.3227 15.4901 81.4761 15.2991C81.6533 15.0734 81.8682 14.88 82.1113 14.7274C82.4078 14.5531 82.7265 14.4195 83.0587 14.3304C83.4568 14.2307 83.8658 14.1809 84.2762 14.1822C85.1152 14.1417 85.9459 14.3637 86.6528 14.8174C86.9356 15.0167 87.1634 15.2843 87.3152 15.5952C87.4669 15.9061 87.5377 16.2503 87.5209 16.5959C87.5422 17.0559 87.4241 17.5116 87.1821 17.9033C86.8718 18.3314 86.4773 18.6916 86.0229 18.9619C85.3755 19.3699 84.6957 19.7239 83.9903 20.0206C83.1699 20.3699 82.1801 20.7669 81.0262 21.2009C79.8605 21.6286 78.7356 22.16 77.665 22.7889C76.8956 23.2361 76.195 23.7924 75.5848 24.4403C75.1148 24.947 74.7544 25.5453 74.5262 26.1977C74.3301 26.7993 74.23 27.4281 74.2298 28.0608C74.2121 28.9442 74.4217 29.8172 74.8385 30.5963C75.265 31.346 75.8683 31.9802 76.5958 32.4436C77.455 32.9892 78.4024 33.3814 79.3959 33.6028C80.6115 33.8773 81.8549 34.0105 83.1011 33.9997C83.8534 34.0095 84.6049 33.9475 85.3454 33.8145C85.9065 33.7084 86.46 33.5652 87.0021 33.3857C87.4732 33.2269 87.8649 33.084 88.1931 32.957C88.4611 32.8414 88.7483 32.7768 89.04 32.7664C89.2446 32.7659 89.4474 32.8036 89.6381 32.8776L90.2574 33.1158C90.5002 33.2062 90.7476 33.2839 90.9985 33.3487C91.315 33.4282 91.6407 33.4656 91.9671 33.4598C92.2956 33.4655 92.6228 33.4172 92.9357 33.3169C93.2113 33.2322 93.4683 33.0957 93.6927 32.9146C93.9 32.7522 94.0667 32.5438 94.1796 32.3059C94.313 32.0717 94.3857 31.8079 94.3914 31.5384C94.3969 31.3037 94.3647 31.0696 94.2961 30.845C94.2326 30.6545 94.1638 30.4586 94.0896 30.2575C94.0002 30.0256 93.9242 29.7888 93.862 29.5482C93.7995 29.2203 93.7711 28.8868 93.7774 28.5531V19.3642C93.7885 18.2795 93.5964 17.2023 93.211 16.1883C92.8325 15.2045 92.2331 14.3207 91.459 13.6053C90.6014 12.8308 89.5945 12.2399 88.5001 11.8691C87.1525 11.4211 85.7384 11.2062 84.3185 11.234C83.1155 11.2233 81.9141 11.3243 80.7298 11.5357M129.824 30.7974C129.473 30.6703 129.155 30.4679 128.892 30.2046C128.636 29.94 128.44 29.6243 128.315 29.2783C128.177 28.8983 128.109 28.4967 128.114 28.0926C128.109 27.5005 128.23 26.9142 128.469 26.3723C128.744 25.7839 129.118 25.2469 129.575 24.7844C130.101 24.2386 130.693 23.7603 131.337 23.3605C132.086 22.8843 132.878 22.4802 133.704 22.1537C133.919 22.0585 134.151 22.0063 134.386 22.0002C134.505 21.9893 134.624 22.0095 134.733 22.0586C134.842 22.1078 134.936 22.1843 135.006 22.2807C135.134 22.4651 135.201 22.6857 135.196 22.9106V26.9228C135.213 27.5533 135.1 28.1804 134.863 28.7648C134.662 29.2477 134.355 29.6785 133.963 30.0246C133.578 30.3577 133.127 30.6065 132.64 30.755C132.125 30.9136 131.59 30.9939 131.052 30.9932C130.626 30.9996 130.202 30.9279 129.802 30.7815M128.056 11.4986C127.101 11.6783 126.173 11.977 125.293 12.3879C124.589 12.7015 123.964 13.1701 123.467 13.7588C123.041 14.2656 122.808 14.907 122.81 15.569C122.799 15.9925 122.886 16.4129 123.064 16.797C123.215 17.1175 123.433 17.4011 123.705 17.6281C123.985 17.8503 124.307 18.0141 124.652 18.1097C125.008 18.2154 125.377 18.2688 125.748 18.2685C126.453 18.3097 127.146 18.0785 127.685 17.6228C128.156 17.1832 128.463 16.5974 128.559 15.9607C128.607 15.7217 128.711 15.4971 128.86 15.3044C129.046 15.0731 129.272 14.8775 129.527 14.7274C129.823 14.5509 130.142 14.4172 130.475 14.3304C130.858 14.2374 131.251 14.193 131.644 14.1981C132.487 14.1528 133.324 14.3711 134.037 14.8227C134.319 15.0231 134.546 15.2908 134.697 15.6015C134.849 15.9121 134.92 16.2558 134.905 16.6012C134.912 17.0555 134.783 17.5014 134.535 17.8821C134.222 18.3104 133.826 18.6705 133.37 18.9408C132.724 19.3487 132.046 19.7027 131.343 19.9994C130.517 20.3487 129.527 20.7457 128.373 21.1798C127.208 21.6074 126.083 22.1388 125.012 22.7677C124.244 23.215 123.545 23.7713 122.937 24.4192C122.467 24.9259 122.107 25.5241 121.879 26.1765C121.677 26.7769 121.577 27.4065 121.582 28.0397C121.565 28.9223 121.773 29.7947 122.186 30.5751C122.61 31.3337 123.213 31.977 123.943 32.4489C124.799 32.9966 125.745 33.389 126.738 33.608C127.953 33.8826 129.197 34.0158 130.443 34.005C131.195 34.0148 131.947 33.9528 132.687 33.8198C133.25 33.7137 133.805 33.5704 134.349 33.391C134.815 33.2322 135.212 33.0893 135.54 32.9623C135.806 32.8462 136.092 32.7815 136.382 32.7717C136.586 32.7712 136.789 32.8089 136.98 32.8829L137.605 33.1211C137.847 33.2122 138.095 33.29 138.346 33.354C138.662 33.4335 138.988 33.4709 139.314 33.4651C139.643 33.4707 139.97 33.4225 140.283 33.3222C140.557 33.2374 140.812 33.1008 141.035 32.9199C141.243 32.7577 141.412 32.5494 141.527 32.3112C141.638 32.0743 141.696 31.8159 141.696 31.5543C141.702 31.3196 141.669 31.0855 141.601 30.8609C141.532 30.6704 141.469 30.4745 141.394 30.2734C141.309 30.048 141.242 29.8161 141.193 29.58C141.129 29.2523 141.099 28.9188 141.103 28.5849V19.3642C141.114 18.2786 140.918 17.2009 140.526 16.1883C140.147 15.2051 139.547 14.3216 138.774 13.6053C137.915 12.8309 136.906 12.2401 135.81 11.8691C134.463 11.4211 133.048 11.2062 131.629 11.234C130.426 11.2233 129.224 11.3243 128.04 11.5357M160.153 11.4139C159.808 11.531 159.487 11.7104 159.206 11.9432C158.927 12.1769 158.698 12.4651 158.534 12.7901C158.353 13.1475 158.264 13.5439 158.274 13.944C158.271 14.4044 158.315 14.8638 158.407 15.315C158.492 15.7233 158.602 16.1263 158.735 16.5218C158.862 16.9082 159.005 17.2999 159.164 17.6863C159.322 18.0727 159.46 18.4908 159.592 18.9355C159.729 19.4156 159.836 19.9035 159.915 20.3964C160.009 20.9986 160.054 21.6077 160.047 22.2172C160.042 22.7184 159.979 23.2173 159.862 23.7046C159.735 24.2647 159.572 24.8163 159.375 25.356C159.177 25.899 158.945 26.4294 158.682 26.944C158.442 27.4221 158.168 27.8821 157.861 28.3202C157.611 28.6761 157.322 29.0027 156.999 29.2941C156.783 29.5048 156.5 29.6339 156.199 29.6594C156.001 29.6579 155.807 29.6069 155.633 29.5112C155.452 29.4004 155.321 29.224 155.268 29.0189L151.033 15.6484C150.726 14.4954 150.07 13.4656 149.154 12.7001C148.277 12.056 147.209 11.7243 146.121 11.758C145.807 11.7524 145.493 11.8007 145.195 11.9009C144.955 11.9808 144.733 12.1086 144.544 12.2767C144.377 12.4199 144.248 12.6016 144.168 12.806C144.089 12.9936 144.047 13.1951 144.046 13.3988C144.043 13.7126 144.087 14.025 144.179 14.3251C144.269 14.5913 144.38 14.8497 144.512 15.0979L144.936 15.876C145.099 16.1842 145.234 16.5066 145.338 16.8394L149.895 31.5384C150.053 32.1377 150.431 32.6555 150.954 32.9888C151.511 33.3116 152.147 33.4711 152.791 33.4493H155.649C156.261 33.4564 156.87 33.3579 157.449 33.1581C157.949 32.9928 158.407 32.718 158.788 32.3536C159.799 31.3742 160.706 30.2921 161.492 29.1248C162.317 27.8933 163.018 26.583 163.583 25.2131C164.806 22.2379 165.43 19.0505 165.42 15.8337C165.442 15.0749 165.307 14.3197 165.023 13.6159C164.79 13.0751 164.446 12.5899 164.012 12.192C163.619 11.838 163.153 11.5758 162.646 11.4245C162.194 11.2816 161.723 11.2067 161.249 11.2022C160.889 11.2035 160.531 11.2643 160.19 11.3822M175.985 30.7974C175.635 30.6703 175.317 30.4679 175.054 30.2046C174.813 29.9361 174.631 29.6207 174.519 29.2783C174.381 28.8983 174.313 28.4967 174.318 28.0926C174.323 27.5061 174.451 26.9272 174.694 26.3935C174.969 25.8051 175.343 25.2681 175.8 24.8056C176.325 24.2611 176.916 23.7829 177.557 23.3817C178.308 22.9066 179.102 22.5025 179.928 22.1749C180.142 22.0791 180.372 22.0269 180.606 22.0214C180.725 22.0111 180.845 22.0315 180.955 22.0806C181.064 22.1297 181.159 22.2059 181.231 22.3019C181.352 22.4888 181.411 22.7092 181.4 22.9318V26.944C181.417 27.5744 181.304 28.2016 181.067 28.786C180.865 29.268 180.557 29.6985 180.167 30.0458C179.779 30.379 179.327 30.6278 178.838 30.7762C178.324 30.9373 177.789 31.0177 177.25 31.0144C176.824 31.0208 176.401 30.949 176.001 30.8027M174.254 11.5198C173.284 11.6888 172.34 11.9805 171.444 12.3879C170.738 12.7013 170.112 13.1699 169.612 13.7588C169.19 14.2673 168.959 14.908 168.961 15.569C168.95 15.9925 169.037 16.4129 169.215 16.797C169.37 17.1223 169.598 17.4069 169.882 17.6281C170.161 17.8504 170.481 18.0142 170.824 18.1097C171.18 18.2154 171.549 18.2688 171.92 18.2685C172.626 18.3099 173.322 18.0788 173.863 17.6228C174.327 17.1782 174.631 16.5916 174.725 15.9554C174.769 15.7148 174.873 15.4892 175.027 15.2991C175.204 15.0688 175.423 14.8747 175.673 14.7274C175.968 14.5509 176.287 14.4172 176.62 14.3304C177.016 14.2285 177.424 14.1787 177.832 14.1822C178.675 14.1369 179.512 14.3552 180.225 14.8068C180.506 15.0078 180.732 15.2758 180.882 15.5864C181.033 15.897 181.104 16.2404 181.088 16.5853C181.094 17.0396 180.965 17.4856 180.717 17.8663C180.408 18.2955 180.013 18.656 179.558 18.9249C178.912 19.3328 178.234 19.6869 177.531 19.9835C176.705 20.3329 175.715 20.7298 174.561 21.1639C173.396 21.5915 172.271 22.123 171.2 22.7518C170.431 23.1991 169.73 23.7553 169.12 24.4033C168.65 24.91 168.29 25.5082 168.061 26.1606C167.867 26.7625 167.769 27.3913 167.77 28.0238C167.745 28.9008 167.949 29.7692 168.363 30.5427C168.778 31.3162 169.387 31.9679 170.131 32.433C170.988 32.985 171.936 33.381 172.931 33.6028C174.147 33.8773 175.39 34.0105 176.636 33.9997C177.388 34.0095 178.14 33.9475 178.88 33.8145C179.442 33.709 179.995 33.5657 180.537 33.3857C181.007 33.2269 181.404 33.084 181.728 32.957C181.996 32.8414 182.283 32.7768 182.575 32.7664C182.78 32.7659 182.982 32.8036 183.173 32.8776L183.798 33.1158C184.039 33.2069 184.284 33.2847 184.534 33.3487C184.85 33.4282 185.176 33.4656 185.502 33.4598C185.832 33.4651 186.161 33.4168 186.476 33.3169C186.75 33.2321 187.005 33.0955 187.228 32.9146C187.44 32.7527 187.613 32.5447 187.733 32.3063C187.853 32.0679 187.917 31.8054 187.921 31.5384C187.927 31.3037 187.894 31.0696 187.826 30.845L187.614 30.2575C187.536 30.0302 187.471 29.7987 187.418 29.5641C187.349 29.2372 187.319 28.9031 187.328 28.569V19.3642C187.333 18.2791 187.138 17.2024 186.751 16.1883C186.371 15.204 185.77 14.3202 184.994 13.6053C184.138 12.8292 183.13 12.2381 182.035 11.8691C180.688 11.4211 179.273 11.2062 177.854 11.234C176.651 11.2233 175.449 11.3243 174.265 11.5357M99.314 2.69612C99.045 2.78251 98.7939 2.91702 98.5729 3.0931C98.3731 3.25816 98.2107 3.46386 98.0966 3.69652C97.9785 3.93495 97.9186 4.19798 97.9219 4.46403C97.9175 4.69311 97.9479 4.92154 98.0119 5.14155C98.0701 5.3321 98.1389 5.52265 98.213 5.7185C98.2871 5.91435 98.3612 6.15254 98.4194 6.37485C98.4869 6.68419 98.5172 7.0005 98.5094 7.31703V24.0116C98.4923 25.1727 98.6167 26.3317 98.8799 27.4627C99.1043 28.3793 99.4609 29.2584 99.9386 30.0722C100.339 30.7759 100.858 31.4046 101.474 31.9301C102.055 32.4167 102.702 32.8193 103.395 33.1264C104.106 33.4362 104.853 33.6566 105.618 33.7827C107.618 34.1099 109.664 34.0271 111.631 33.5392C112.622 33.2801 113.565 32.8656 114.426 32.3112C115.189 31.8182 115.862 31.1989 116.416 30.4798C116.952 29.7591 117.39 28.9707 117.718 28.1349C118.05 27.2812 118.288 26.3937 118.428 25.4884C118.569 24.5493 118.64 23.6009 118.639 22.6513C118.64 21.7139 118.569 20.7778 118.428 19.8512C118.289 18.9479 118.058 18.0611 117.739 17.2046C117.431 16.3588 117.015 15.5564 116.501 14.8174C115.982 14.0867 115.341 13.4511 114.606 12.9383C113.795 12.3843 112.902 11.9627 111.959 11.6892C110.854 11.376 109.71 11.2244 108.561 11.2392C108.287 11.2393 108.014 11.2659 107.746 11.3186C107.484 11.3674 107.231 11.4549 106.994 11.578C106.776 11.6868 106.586 11.8444 106.439 12.0385C106.3 12.2365 106.229 12.4743 106.237 12.716C106.235 12.8964 106.266 13.0757 106.327 13.2453C106.385 13.4056 106.473 13.5531 106.587 13.6794C106.703 13.8079 106.843 13.9123 107 13.9864C107.179 14.0669 107.374 14.1067 107.571 14.1028H108.016C108.459 14.0996 108.894 14.2167 109.276 14.4416C109.684 14.6799 110.044 14.9944 110.334 15.3679C110.648 15.7836 110.907 16.2371 111.107 16.7176C111.345 17.2887 111.536 17.8782 111.679 18.4803C111.838 19.1373 111.954 19.8038 112.028 20.4758C112.107 21.1788 112.145 21.8856 112.145 22.593C112.146 23.6329 112.069 24.6715 111.917 25.7001C111.789 26.6279 111.536 27.5341 111.165 28.3943C110.865 29.123 110.397 29.7704 109.8 30.284C109.204 30.7708 108.451 31.0247 107.682 30.9985C107.125 31.0216 106.572 30.8798 106.094 30.591C105.676 30.3153 105.333 29.9408 105.094 29.5006C104.829 29.0049 104.65 28.468 104.565 27.9126C104.463 27.2898 104.413 26.6594 104.417 26.0283V7.94162C104.41 7.19463 104.311 6.45134 104.12 5.72909C103.974 5.11687 103.716 4.53712 103.358 4.0194C103.02 3.55183 102.573 3.17388 102.056 2.91843C101.492 2.65846 100.876 2.5334 100.256 2.5532C99.9346 2.54759 99.6143 2.5959 99.3087 2.69612M54.2482 2.1668C53.4595 2.27403 52.6818 2.45116 51.9245 2.69612C51.2296 2.91844 50.5606 3.21479 49.929 3.58007C49.3489 3.9286 48.8259 4.36419 48.3781 4.8716C47.9439 5.35535 47.5997 5.91284 47.3618 6.51776C47.1186 7.16758 46.9966 7.8565 47.0019 8.55033C46.984 9.0976 47.0945 9.64146 47.3248 10.1383C47.5186 10.5462 47.7951 10.9093 48.1368 11.2045C48.4786 11.4998 48.878 11.7207 49.3097 11.8532C49.7155 11.9903 50.1411 12.06 50.5695 12.0597C50.9724 12.059 51.3733 12.002 51.7604 11.8903C52.1381 11.7835 52.4957 11.6154 52.819 11.3927C53.1052 11.1689 53.3414 10.8876 53.5124 10.567C53.7027 10.2206 53.7959 9.82927 53.7824 9.43428C53.7879 9.23246 53.7555 9.0314 53.6871 8.84145C53.6283 8.67678 53.5594 8.51592 53.4807 8.35978C53.4061 8.2133 53.3389 8.06313 53.2795 7.90986C53.2155 7.74093 53.1849 7.56115 53.1896 7.38055C53.1923 6.99226 53.3042 6.61257 53.5124 6.28487C53.7151 5.97184 53.9867 5.70931 54.3064 5.51736C54.6527 5.31076 55.0297 5.16067 55.4233 5.07274C55.8637 4.98105 56.3126 4.93669 56.7624 4.94041C57.5641 4.9456 58.3642 5.01463 59.1549 5.14684C59.9818 5.27907 60.7975 5.47371 61.5951 5.72909C61.7471 5.78296 61.8872 5.86563 62.0079 5.97257C62.0801 6.03967 62.1366 6.12194 62.1732 6.21347C62.2098 6.30499 62.2257 6.40349 62.2197 6.50188C62.2138 6.6643 62.1835 6.82491 62.1297 6.97827C62.0547 7.19527 61.9552 7.40304 61.8333 7.59756L48.791 29.5165C48.6159 29.7869 48.425 30.0467 48.2193 30.2945C48.05 30.5006 47.8927 30.7162 47.7482 30.9403C47.6162 31.1417 47.5095 31.3586 47.4306 31.5861C47.3469 31.8367 47.3075 32.1 47.3142 32.3642C47.3081 32.5987 47.3624 32.8309 47.4717 33.0385C47.5811 33.2461 47.7419 33.4222 47.9388 33.5498C48.46 33.8725 49.0683 34.026 49.6802 33.9892C49.9471 33.9927 50.214 33.9803 50.4795 33.9521C50.6995 33.9392 50.9177 33.9037 51.1305 33.8462L51.7816 33.7192C52.0092 33.6769 52.2791 33.6345 52.5861 33.5922C52.8931 33.5498 53.2742 33.5181 53.7083 33.4916C54.1423 33.4651 54.6663 33.4493 55.2962 33.4493C55.9261 33.4493 56.4925 33.481 57.1753 33.5392L59.2925 33.7245C60.0283 33.7933 60.7905 33.8568 61.5633 33.9098C62.3361 33.9627 63.1036 33.9892 63.8658 33.9892C65.2834 34.0198 66.6963 33.8159 68.0474 33.3857C69.0909 33.0467 70.0582 32.5073 70.8951 31.7978C71.5979 31.207 72.1557 30.4627 72.5254 29.6223C72.8639 28.8564 73.0439 28.03 73.0547 27.1928C73.0651 26.6237 72.9607 26.0585 72.7477 25.5307C72.5556 25.0686 72.271 24.6507 71.9114 24.3027C71.5558 23.9696 71.1387 23.7089 70.6834 23.5352C70.2108 23.3598 69.7107 23.2702 69.2066 23.2705C68.7511 23.2655 68.2981 23.3389 67.8674 23.4876C67.4869 23.6356 67.1369 23.8528 66.8353 24.128C66.5507 24.3719 66.3261 24.678 66.1789 25.0226C66.0199 25.3787 65.9404 25.7653 65.946 26.1553C65.9414 26.3862 65.9717 26.6164 66.036 26.8381C66.0889 27.0181 66.1472 27.1928 66.216 27.3674C66.2848 27.5421 66.3589 27.7274 66.4224 27.8968C66.4982 28.1055 66.5375 28.3257 66.5389 28.5478C66.5484 28.849 66.4867 29.1483 66.3589 29.4212C66.2074 29.7275 65.984 29.9927 65.7078 30.194C65.3464 30.4536 64.9438 30.6504 64.5169 30.7762C63.932 30.9433 63.3254 31.0218 62.7172 31.0091C62.2885 31.0091 61.8597 31.0091 61.4363 30.9456C61.0128 30.8821 60.6158 30.8503 60.203 30.7868C59.7901 30.7233 59.3667 30.6386 58.9432 30.5539L57.6093 30.2734C57.4898 30.2493 57.3728 30.2139 57.26 30.1675C57.1255 30.1101 56.9992 30.0354 56.8842 29.9452C56.766 29.8493 56.6641 29.7349 56.5825 29.6064C56.4939 29.4657 56.4497 29.3015 56.4554 29.1353C56.457 29.017 56.4749 28.8995 56.5084 28.786C56.5503 28.6342 56.6184 28.4909 56.7095 28.3625L69.2172 7.4123C69.4087 7.08932 69.6246 6.78142 69.8629 6.4913C70.0747 6.23723 70.2652 5.99904 70.4346 5.76614C70.5936 5.5494 70.7301 5.31707 70.8422 5.07274C70.9512 4.77485 70.998 4.45781 70.9798 4.14114C70.9799 3.92285 70.9423 3.70617 70.8686 3.50067C70.7975 3.29421 70.6712 3.11115 70.5034 2.97136C70.3146 2.81453 70.097 2.69588 69.8629 2.62201C69.5481 2.53204 69.2217 2.48923 68.8943 2.49498C67.7298 2.49498 66.6518 2.46851 65.6602 2.41558C64.6651 2.35736 63.6964 2.29913 62.749 2.23032C61.8015 2.16151 60.8434 2.09799 59.8748 2.03977C58.9061 1.98154 57.874 1.95508 56.7677 1.95508C55.9196 1.9551 55.0724 2.01346 54.2323 2.12975" fill="white"/>
<mask id="mask0_153_9289" style="mask-type:luminance" maskUnits="userSpaceOnUse" x="47" y="1" width="141" height="34">
<path d="M82.4626 30.7984C82.1135 30.6731 81.7966 30.4718 81.5348 30.2091C81.273 29.9464 81.0728 29.6288 80.9487 29.2792C80.8128 28.899 80.7464 28.4974 80.7529 28.0936C80.7494 27.4994 80.8778 26.9119 81.1287 26.3733C81.4006 25.784 81.7732 25.2467 82.2297 24.7854C82.7621 24.246 83.3595 23.7748 84.0082 23.3827C84.7575 22.9075 85.5496 22.5034 86.3742 22.1758C86.5896 22.0792 86.8212 22.0236 87.057 22.0118C87.1764 22.0015 87.2964 22.0219 87.4057 22.071C87.515 22.1201 87.61 22.1962 87.6816 22.2923C87.8104 22.4767 87.8772 22.6973 87.8722 22.9222V26.9344C87.8894 27.5648 87.7758 28.192 87.5387 28.7764C87.333 29.2576 87.024 29.6877 86.6336 30.0362C86.2429 30.3743 85.7845 30.6251 85.2891 30.7719C84.7753 30.933 84.2396 31.0133 83.7012 31.0101C83.2751 31.0195 82.8512 30.9476 82.452 30.7984M80.7053 11.5155C79.7336 11.6844 78.7874 11.9761 77.8893 12.3835C77.187 12.6979 76.5647 13.1664 76.0685 13.7545C75.7299 14.1756 75.5133 14.6816 75.4424 15.2173C75.3715 15.753 75.4489 16.298 75.6662 16.7927C75.8241 17.1158 76.0519 17.3996 76.3331 17.6237C76.6136 17.846 76.9358 18.0098 77.2806 18.1054C77.6362 18.211 78.0053 18.2645 78.3763 18.2642C79.0772 18.3015 79.7661 18.0706 80.303 17.6185C80.77 17.1771 81.0756 16.5919 81.171 15.9564C81.2193 15.7162 81.3246 15.4911 81.4781 15.3001C81.6553 15.0744 81.8702 14.881 82.1132 14.7284C82.4097 14.554 82.7284 14.4205 83.0607 14.3314C83.4588 14.2317 83.8677 14.1819 84.2781 14.1832C85.1171 14.1426 85.9479 14.3647 86.6547 14.8184C86.9375 15.0177 87.1654 15.2853 87.3171 15.5962C87.4689 15.9071 87.5396 16.2513 87.5228 16.5969C87.5441 17.0568 87.426 17.5125 87.1841 17.9043C86.8737 18.3324 86.4793 18.6926 86.0249 18.9629C85.3775 19.3708 84.6977 19.7249 83.9923 20.0215C83.1719 20.3709 82.182 20.7679 81.0281 21.2019C79.8625 21.6295 78.7376 22.161 77.667 22.7899C76.8976 23.2371 76.1969 23.7934 75.5868 24.4413C75.1168 24.948 74.7564 25.5463 74.5282 26.1986C74.332 26.8002 74.232 27.429 74.2317 28.0618C74.214 28.9452 74.4237 29.8182 74.8405 30.5972C75.267 31.347 75.8702 31.9812 76.5978 32.4445C77.4569 32.9902 78.4044 33.3824 79.3978 33.6037C80.6135 33.8783 81.8568 34.0115 83.103 34.0007C83.8553 34.0105 84.6068 33.9485 85.3473 33.8155C85.9085 33.7094 86.4619 33.5661 87.0041 33.3867C87.4752 33.2279 87.8669 33.085 88.195 32.958C88.4631 32.8424 88.7503 32.7778 89.0419 32.7674C89.2465 32.7669 89.4494 32.8046 89.6401 32.8786L90.2594 33.1168C90.5022 33.2071 90.7495 33.2849 91.0004 33.3497C91.317 33.4292 91.6427 33.4666 91.9691 33.4608C92.2976 33.4664 92.6248 33.4182 92.9377 33.3179C93.2133 33.2332 93.4702 33.0967 93.6946 32.9156C93.9019 32.7532 94.0686 32.5448 94.1816 32.3069C94.3149 32.0727 94.3877 31.8089 94.3933 31.5394C94.3988 31.3047 94.3666 31.0706 94.298 30.846C94.2345 30.6555 94.1657 30.4596 94.0916 30.2585C94.0022 30.0266 93.9262 29.7898 93.864 29.5492C93.8015 29.2213 93.7731 28.8878 93.7793 28.5541V19.3652C93.7905 18.2805 93.5984 17.2033 93.2129 16.1893C92.8345 15.2055 92.2351 14.3217 91.4609 13.6063C90.6034 12.8317 89.5964 12.2409 88.502 11.8701C87.1545 11.422 85.7403 11.2072 84.3205 11.2349C83.1175 11.2242 81.9161 11.3252 80.7317 11.5366M129.826 30.7984C129.475 30.6713 129.157 30.4689 128.894 30.2055C128.638 29.941 128.442 29.6253 128.317 29.2792C128.179 28.8993 128.111 28.4977 128.116 28.0936C128.111 27.5015 128.232 26.9152 128.471 26.3733C128.746 25.7849 129.12 25.2479 129.577 24.7854C130.103 24.2396 130.695 23.7613 131.339 23.3615C132.088 22.8853 132.88 22.4812 133.705 22.1547C133.921 22.0594 134.153 22.0073 134.388 22.0012C134.507 21.9903 134.626 22.0104 134.735 22.0596C134.844 22.1088 134.937 22.1853 135.008 22.2817C135.136 22.4661 135.203 22.6867 135.198 22.9116V26.9238C135.215 27.5542 135.102 28.1814 134.865 28.7658C134.664 29.2486 134.357 29.6795 133.965 30.0256C133.579 30.3587 133.129 30.6075 132.642 30.756C132.127 30.9146 131.592 30.9949 131.054 30.9942C130.628 31.0006 130.204 30.9288 129.804 30.7825M128.058 11.4996C127.103 11.6792 126.175 11.978 125.295 12.3888C124.59 12.7025 123.966 13.1711 123.469 13.7598C123.043 14.2666 122.81 14.908 122.812 15.57C122.801 15.9935 122.888 16.4139 123.066 16.798C123.217 17.1185 123.435 17.4021 123.707 17.629C123.987 17.8513 124.309 18.0151 124.654 18.1107C125.01 18.2163 125.379 18.2698 125.75 18.2695C126.455 18.3106 127.148 18.0795 127.687 17.6237C128.157 17.1841 128.465 16.5984 128.561 15.9617C128.609 15.7226 128.713 15.498 128.862 15.3054C129.048 15.074 129.274 14.8785 129.529 14.7284C129.825 14.5518 130.144 14.4182 130.477 14.3314C130.859 14.2384 131.252 14.1939 131.646 14.1991C132.489 14.1538 133.326 14.3721 134.039 14.8237C134.321 15.024 134.548 15.2918 134.699 15.6024C134.851 15.9131 134.922 16.2568 134.907 16.6022C134.913 17.0565 134.785 17.5024 134.536 17.8831C134.224 18.3113 133.828 18.6715 133.372 18.9417C132.726 19.3496 132.048 19.7037 131.345 20.0004C130.519 20.3497 129.529 20.7467 128.375 21.1807C127.21 21.6084 126.085 22.1398 125.014 22.7687C124.246 23.216 123.547 23.7723 122.939 24.4201C122.469 24.9268 122.109 25.5251 121.881 26.1775C121.679 26.7778 121.579 27.4075 121.584 28.0406C121.567 28.9233 121.775 29.7957 122.188 30.5761C122.612 31.3347 123.215 31.978 123.945 32.4498C124.801 32.9975 125.747 33.3899 126.74 33.609C127.955 33.8836 129.199 34.0168 130.445 34.006C131.197 34.0158 131.949 33.9538 132.689 33.8208C133.252 33.7147 133.807 33.5714 134.351 33.392C134.817 33.2332 135.214 33.0903 135.542 32.9633C135.808 32.8472 136.094 32.7825 136.384 32.7727C136.588 32.7722 136.791 32.8099 136.982 32.8839L137.606 33.1221C137.849 33.2132 138.096 33.2909 138.348 33.355C138.664 33.4345 138.99 33.4719 139.316 33.4661C139.645 33.4717 139.972 33.4234 140.285 33.3232C140.559 33.2384 140.814 33.1018 141.036 32.9209C141.245 32.7587 141.414 32.5504 141.529 32.3122C141.64 32.0753 141.698 31.8169 141.698 31.5553C141.704 31.3205 141.671 31.0864 141.603 30.8619C141.534 30.6713 141.47 30.4755 141.396 30.2743C141.311 30.049 141.244 29.8171 141.195 29.5809C141.131 29.2532 141.101 28.9198 141.105 28.5858V19.3652C141.116 18.2796 140.92 17.2018 140.528 16.1893C140.149 15.2061 139.549 14.3226 138.776 13.6063C137.917 12.8319 136.908 12.2411 135.812 11.8701C134.465 11.422 133.05 11.2072 131.631 11.2349C130.428 11.2242 129.226 11.3252 128.042 11.5366M160.155 11.4149C159.81 11.532 159.489 11.7114 159.208 11.9442C158.928 12.1779 158.7 12.466 158.536 12.7911C158.355 13.1484 158.266 13.5449 158.276 13.945C158.273 14.4053 158.317 14.8648 158.409 15.3159C158.494 15.7243 158.604 16.1272 158.737 16.5228C158.864 16.9092 159.007 17.3009 159.165 17.6873C159.324 18.0737 159.462 18.4918 159.594 18.9364C159.731 19.4166 159.838 19.9044 159.917 20.3974C160.011 20.9996 160.056 21.6086 160.049 22.2182C160.044 22.7194 159.981 23.2183 159.864 23.7056C159.736 24.2657 159.574 24.8172 159.377 25.357C159.179 25.9 158.947 26.4303 158.684 26.945C158.444 27.4231 158.17 27.883 157.863 28.3212C157.613 28.677 157.324 29.0037 157.001 29.2951C156.785 29.5058 156.502 29.6349 156.201 29.6603C156.003 29.6588 155.808 29.6079 155.635 29.5121C155.454 29.4014 155.323 29.225 155.27 29.0199L151.035 15.6494C150.728 14.4964 150.072 13.4666 149.156 12.7011C148.279 12.057 147.211 11.7252 146.123 11.7589C145.809 11.7534 145.495 11.8017 145.197 11.9019C144.957 11.9817 144.735 12.1096 144.546 12.2777C144.379 12.4209 144.25 12.6026 144.17 12.807C144.091 12.9946 144.049 13.1961 144.048 13.3998C144.045 13.7135 144.089 14.0259 144.181 14.3261C144.271 14.5923 144.382 14.8507 144.514 15.0989L144.938 15.877C145.101 16.1851 145.235 16.5076 145.34 16.8404L149.897 31.5394C150.055 32.1387 150.433 32.6565 150.956 32.9897C151.513 33.3125 152.149 33.4721 152.793 33.4502H155.651C156.263 33.4574 156.872 33.3589 157.45 33.1591C157.951 32.9938 158.409 32.7189 158.79 32.3546C159.801 31.3752 160.708 30.2931 161.494 29.1257C162.319 27.8943 163.019 26.584 163.585 25.2141C164.808 22.2388 165.432 19.0515 165.422 15.8347C165.444 15.0759 165.309 14.3207 165.025 13.6168C164.792 13.0761 164.448 12.5908 164.014 12.193C163.621 11.839 163.155 11.5768 162.648 11.4255C162.196 11.2826 161.725 11.2077 161.251 11.2032C160.891 11.2044 160.533 11.2652 160.192 11.3831M175.987 30.7984C175.637 30.6713 175.319 30.4689 175.055 30.2055C174.815 29.9371 174.633 29.6217 174.521 29.2792C174.383 28.8993 174.315 28.4977 174.32 28.0936C174.324 27.5071 174.452 26.9282 174.696 26.3945C174.971 25.8061 175.345 25.2691 175.802 24.8065C176.327 24.2621 176.918 23.7839 177.559 23.3827C178.31 22.9075 179.104 22.5035 179.93 22.1758C180.144 22.0801 180.374 22.0279 180.608 22.0223C180.727 22.0121 180.847 22.0325 180.957 22.0816C181.066 22.1307 181.161 22.2068 181.233 22.3029C181.354 22.4898 181.413 22.7102 181.402 22.9328V26.945C181.419 27.5754 181.306 28.2026 181.068 28.787C180.867 29.269 180.559 29.6995 180.169 30.0467C179.781 30.38 179.329 30.6287 178.84 30.7772C178.326 30.9383 177.791 31.0186 177.252 31.0154C176.826 31.0218 176.403 30.95 176.003 30.8037M174.256 11.5208C173.286 11.6898 172.342 11.9815 171.446 12.3888C170.74 12.7023 170.114 13.1709 169.614 13.7598C169.192 14.2683 168.961 14.9089 168.963 15.57C168.952 15.9935 169.039 16.4139 169.217 16.798C169.372 17.1233 169.6 17.4078 169.884 17.629C170.163 17.8514 170.483 18.0152 170.826 18.1107C171.182 18.2163 171.551 18.2698 171.922 18.2695C172.628 18.3109 173.324 18.0798 173.865 17.6237C174.329 17.1792 174.633 16.5926 174.727 15.9564C174.771 15.7158 174.875 15.4901 175.029 15.3001C175.205 15.0697 175.425 14.8756 175.675 14.7284C175.97 14.5518 176.289 14.4182 176.622 14.3314C177.018 14.2295 177.426 14.1796 177.834 14.1832C178.677 14.1379 179.514 14.3562 180.227 14.8078C180.508 15.0088 180.734 15.2767 180.884 15.5874C181.035 15.898 181.106 16.2414 181.09 16.5863C181.096 17.0406 180.967 17.4865 180.719 17.8672C180.41 18.2965 180.015 18.657 179.56 18.9259C178.914 19.3338 178.236 19.6878 177.533 19.9845C176.707 20.3338 175.717 20.7308 174.563 21.1649C173.398 21.5925 172.273 22.1239 171.202 22.7528C170.433 23.2001 169.732 23.7563 169.122 24.4043C168.652 24.911 168.291 25.5092 168.063 26.1616C167.869 26.7635 167.771 27.3923 167.772 28.0248C167.747 28.9018 167.951 29.7702 168.365 30.5437C168.78 31.3172 169.389 31.9688 170.133 32.4339C170.99 32.9859 171.938 33.382 172.933 33.6037C174.149 33.8783 175.392 34.0115 176.638 34.0007C177.39 34.0105 178.142 33.9485 178.882 33.8155C179.444 33.7099 179.997 33.5667 180.539 33.3867C181.008 33.2279 181.405 33.085 181.73 32.958C181.998 32.8424 182.285 32.7778 182.577 32.7674C182.782 32.7669 182.984 32.8046 183.175 32.8786L183.8 33.1168C184.041 33.2079 184.286 33.2856 184.535 33.3497C184.852 33.4292 185.178 33.4666 185.504 33.4608C185.834 33.4661 186.163 33.4178 186.478 33.3179C186.752 33.2331 187.007 33.0965 187.23 32.9156C187.442 32.7537 187.615 32.5457 187.735 32.3073C187.855 32.0689 187.919 31.8063 187.923 31.5394C187.929 31.3047 187.896 31.0706 187.828 30.846L187.616 30.2585C187.538 30.0312 187.473 29.7997 187.42 29.5651C187.351 29.2381 187.321 28.9041 187.33 28.57V19.3652C187.335 18.2801 187.14 17.2034 186.753 16.1893C186.373 15.2049 185.772 14.3211 184.996 13.6063C184.14 12.8302 183.132 12.2391 182.037 11.8701C180.69 11.422 179.275 11.2072 177.856 11.2349C176.653 11.2242 175.451 11.3252 174.267 11.5366M99.3159 2.69709C99.0469 2.78349 98.7958 2.91799 98.5749 3.09408C98.3751 3.25914 98.2127 3.46483 98.0985 3.6975C97.9804 3.93593 97.9206 4.19896 97.9238 4.465C97.9195 4.69409 97.9498 4.92252 98.0138 5.14252C98.072 5.33308 98.1409 5.52363 98.215 5.71948C98.2891 5.91532 98.3632 6.15351 98.4214 6.37582C98.4889 6.68516 98.5191 7.00148 98.5114 7.318V24.0126C98.4942 25.1737 98.6186 26.3326 98.8819 27.4637C99.1063 28.3803 99.4629 29.2593 99.9405 30.0732C100.341 30.7769 100.86 31.4055 101.476 31.9311C102.057 32.4177 102.704 32.8203 103.397 33.1274C104.108 33.4372 104.855 33.6576 105.62 33.7837C107.62 34.1109 109.666 34.028 111.633 33.5402C112.624 33.2811 113.567 32.8666 114.428 32.3122C115.19 31.8192 115.864 31.1999 116.418 30.4808C116.954 29.7601 117.392 28.9716 117.72 28.1359C118.052 27.2821 118.29 26.3947 118.429 25.4894C118.571 24.5503 118.642 23.6019 118.641 22.6522C118.642 21.7148 118.571 20.7787 118.429 19.8522C118.291 18.9488 118.06 18.0621 117.741 17.2056C117.433 16.3598 117.017 15.5574 116.503 14.8184C115.984 14.0877 115.343 13.452 114.608 12.9393C113.797 12.3853 112.904 11.9637 111.961 11.6901C110.856 11.3769 109.712 11.2254 108.563 11.2402C108.289 11.2403 108.016 11.2669 107.748 11.3196C107.486 11.3684 107.233 11.4558 106.996 11.579C106.778 11.6878 106.588 11.8454 106.44 12.0395C106.302 12.2374 106.231 12.4753 106.239 12.717C106.237 12.8974 106.268 13.0767 106.329 13.2463C106.386 13.4066 106.475 13.5541 106.589 13.6804C106.705 13.8089 106.845 13.9133 107.002 13.9874C107.181 14.0679 107.376 14.1076 107.573 14.1038H108.018C108.461 14.1006 108.896 14.2177 109.278 14.4426C109.686 14.6809 110.046 14.9953 110.336 15.3689C110.649 15.7846 110.909 16.238 111.109 16.7186C111.347 17.2897 111.538 17.8792 111.681 18.4812C111.84 19.1383 111.956 19.8048 112.03 20.4767C112.109 21.1798 112.147 21.8866 112.146 22.594C112.147 23.6339 112.071 24.6724 111.919 25.7011C111.791 26.6289 111.538 27.5351 111.167 28.3953C110.867 29.1239 110.399 29.7714 109.802 30.2849C109.206 30.7717 108.453 31.0257 107.684 30.9995C107.127 31.0226 106.574 30.8808 106.096 30.5919C105.678 30.3163 105.335 29.9418 105.096 29.5016C104.831 29.0059 104.652 28.469 104.567 27.9136C104.465 27.2908 104.415 26.6604 104.419 26.0292V7.9426C104.412 7.1956 104.313 6.45231 104.122 5.73006C103.976 5.11784 103.718 4.53809 103.36 4.02038C103.022 3.5528 102.575 3.17486 102.058 2.91941C101.494 2.65943 100.878 2.53438 100.258 2.55418C99.9365 2.54857 99.6163 2.59687 99.3106 2.69709M54.2501 2.16778C53.4614 2.275 52.6838 2.45214 51.9265 2.69709C51.2315 2.91941 50.5625 3.21577 49.9309 3.58105C49.3509 3.92958 48.8278 4.36517 48.38 4.87257C47.9459 5.35632 47.6017 5.91382 47.3638 6.51874C47.1205 7.16856 46.9985 7.85748 47.0038 8.55131C46.9859 9.09858 47.0965 9.64243 47.3267 10.1392C47.5205 10.5472 47.7971 10.9103 48.1388 11.2055C48.4805 11.5008 48.8799 11.7217 49.3116 11.8542C49.7175 11.9913 50.143 12.061 50.5714 12.0607C50.9743 12.06 51.3752 12.003 51.7624 11.8913C52.1401 11.7844 52.4977 11.6164 52.821 11.3937C53.1072 11.1699 53.3434 10.8886 53.5144 10.568C53.7046 10.2216 53.7979 9.83025 53.7843 9.43526C53.7898 9.23344 53.7575 9.03237 53.6891 8.84243C53.6303 8.67776 53.5613 8.51689 53.4826 8.36075C53.408 8.21427 53.3409 8.06411 53.2815 7.91084C53.2174 7.74191 53.1869 7.56213 53.1915 7.38152C53.1942 6.99324 53.3061 6.61355 53.5144 6.28584C53.7171 5.97282 53.9886 5.71029 54.3084 5.51834C54.6547 5.31174 55.0317 5.16165 55.4252 5.07371C55.8656 4.98203 56.3146 4.93767 56.7644 4.94138C57.5661 4.94658 58.3661 5.01561 59.1569 5.14782C59.9838 5.28005 60.7995 5.47469 61.597 5.73006C61.749 5.78393 61.8892 5.8666 62.0099 5.97355C62.0821 6.04064 62.1385 6.12292 62.1752 6.21444C62.2118 6.30597 62.2276 6.40447 62.2216 6.50286C62.2158 6.66528 62.1854 6.82588 62.1316 6.97924C62.0566 7.19625 61.9572 7.40402 61.8352 7.59854L48.7929 29.5174C48.6179 29.7879 48.427 30.0477 48.2213 30.2955C48.0519 30.5015 47.8946 30.7171 47.7502 30.9413C47.6181 31.1427 47.5115 31.3595 47.4326 31.587C47.3489 31.8377 47.3095 32.101 47.3161 32.3651C47.3101 32.5997 47.3643 32.8319 47.4737 33.0395C47.583 33.2471 47.7438 33.4231 47.9407 33.5508C48.4619 33.8735 49.0702 34.027 49.6822 33.9901C49.9491 33.9936 50.216 33.9813 50.4814 33.9531C50.7015 33.9402 50.9197 33.9047 51.1325 33.8472L51.7835 33.7202C52.0111 33.6778 52.2811 33.6355 52.5881 33.5931C52.8951 33.5508 53.2762 33.519 53.7102 33.4926C54.1443 33.4661 54.6683 33.4502 55.2982 33.4502C55.9281 33.4502 56.4944 33.482 57.1772 33.5402L59.2945 33.7255C60.0302 33.7943 60.7925 33.8578 61.5653 33.9107C62.3381 33.9637 63.1056 33.9901 63.8678 33.9901C65.2854 34.0208 66.6983 33.8169 68.0494 33.3867C69.0929 33.0477 70.0602 32.5083 70.8971 31.7988C71.5999 31.208 72.1576 30.4637 72.5274 29.6233C72.8658 28.8574 73.0459 28.031 73.0567 27.1937C73.0671 26.6247 72.9626 26.0595 72.7497 25.5317C72.5576 25.0696 72.273 24.6517 71.9133 24.3037C71.5577 23.9706 71.1406 23.7099 70.6853 23.5362C70.2128 23.3608 69.7126 23.2711 69.2086 23.2715C68.753 23.2665 68.3 23.3399 67.8694 23.4885C67.4888 23.6366 67.1389 23.8537 66.8372 24.129C66.5527 24.3728 66.3281 24.6789 66.1809 25.0236C66.0218 25.3797 65.9424 25.7663 65.948 26.1563C65.9433 26.3871 65.9737 26.6173 66.038 26.8391C66.0909 27.0191 66.1491 27.1937 66.2179 27.3684C66.2867 27.5431 66.3608 27.7283 66.4244 27.8977C66.5001 28.1065 66.5395 28.3267 66.5408 28.5488C66.5503 28.85 66.4887 29.1492 66.3608 29.4222C66.2094 29.7285 65.986 29.9937 65.7098 30.195C65.3483 30.4546 64.9457 30.6514 64.5188 30.7772C63.9339 30.9442 63.3273 31.0227 62.7192 31.0101C62.2904 31.0101 61.8617 31.0101 61.4382 30.9466C61.0148 30.8831 60.6178 30.8513 60.2049 30.7878C59.7921 30.7243 59.3686 30.6396 58.9452 30.5549L57.6113 30.2743C57.4917 30.2503 57.3747 30.2149 57.2619 30.1685C57.1275 30.1111 57.0011 30.0364 56.8861 29.9462C56.768 29.8502 56.6661 29.7358 56.5844 29.6074C56.4959 29.4666 56.4516 29.3025 56.4574 29.1363C56.459 29.018 56.4768 28.9005 56.5103 28.787C56.5522 28.6352 56.6203 28.4919 56.7114 28.3635L69.2191 7.41328C69.4106 7.09029 69.6265 6.7824 69.8649 6.49227C70.0766 6.2382 70.2672 6.00001 70.4366 5.76711C70.5955 5.55037 70.7321 5.31805 70.8441 5.07371C70.9531 4.77583 70.9999 4.45879 70.9818 4.14212C70.9819 3.92382 70.9443 3.70714 70.8706 3.50165C70.7995 3.29518 70.6731 3.11213 70.5054 2.97234C70.3165 2.8155 70.099 2.69685 69.8649 2.62299C69.5501 2.53302 69.2236 2.49021 68.8963 2.49595C67.7318 2.49595 66.6537 2.46949 65.6621 2.41656C64.667 2.35833 63.6984 2.30011 62.7509 2.2313C61.8034 2.16249 60.8454 2.09897 59.8767 2.04074C58.9081 1.98252 57.8759 1.95605 56.7697 1.95605C55.9215 1.95607 55.0744 2.01444 54.2343 2.13073" fill="white"/>
</mask>
<g mask="url(#mask0_153_9289)">
<path d="M188.965 1.02246H45.8965V35.105H188.965V1.02246Z" fill="white"/>
</g>
<path d="M75.2242 86.915L77.2402 74.225H79.1122L78.2122 79.931H78.2482L84.9082 74.225H87.3022L79.5262 80.813L79.4902 79.931L85.7542 86.915H83.4502L78.0862 80.993H78.0502L77.0962 86.915H75.2242ZM86.7341 86.915L87.8141 80.021C87.8741 79.673 87.9161 79.319 87.9401 78.959C87.9761 78.587 88.0001 78.215 88.0121 77.843H89.7761L89.6501 79.751H89.4161C89.7641 79.067 90.2201 78.551 90.7841 78.203C91.3481 77.855 91.9961 77.681 92.7281 77.681C93.4601 77.681 94.0481 77.861 94.4921 78.221C94.9361 78.581 95.1821 79.121 95.2301 79.841H94.9421C95.2781 79.193 95.7581 78.671 96.3821 78.275C97.0061 77.879 97.6901 77.681 98.4341 77.681C99.4541 77.681 100.18 77.987 100.612 78.599C101.056 79.211 101.176 80.171 100.972 81.479L100.108 86.915H98.2901L99.1721 81.389C99.2921 80.609 99.2381 80.039 99.0101 79.679C98.7821 79.319 98.3621 79.139 97.7501 79.139C97.0541 79.139 96.4781 79.379 96.0221 79.859C95.5661 80.339 95.2721 80.987 95.1401 81.803L94.3121 86.915H92.4941L93.3761 81.389C93.5081 80.609 93.4601 80.039 93.2321 79.679C93.0161 79.319 92.5961 79.139 91.9721 79.139C91.2761 79.139 90.7001 79.379 90.2441 79.859C89.7881 80.339 89.4941 80.987 89.3621 81.803L88.5521 86.915H86.7341ZM106.349 87.077C105.521 87.077 104.819 86.879 104.243 86.483C103.679 86.087 103.277 85.523 103.037 84.791C102.809 84.047 102.773 83.159 102.929 82.127C103.169 80.675 103.709 79.571 104.549 78.815C105.401 78.059 106.415 77.681 107.591 77.681C108.371 77.681 109.025 77.879 109.553 78.275C110.081 78.659 110.405 79.187 110.525 79.859L110.327 79.895L110.849 77.843H112.595C112.511 78.215 112.421 78.587 112.325 78.959C112.241 79.319 112.169 79.673 112.109 80.021L111.029 86.915H109.211L109.535 84.863H109.823C109.511 85.547 109.061 86.087 108.473 86.483C107.885 86.879 107.177 87.077 106.349 87.077ZM106.889 85.655C107.657 85.655 108.317 85.385 108.869 84.845C109.433 84.305 109.799 83.501 109.967 82.433C110.147 81.317 110.033 80.489 109.625 79.949C109.229 79.397 108.623 79.121 107.807 79.121C107.039 79.121 106.379 79.391 105.827 79.931C105.287 80.471 104.927 81.263 104.747 82.307C104.579 83.435 104.687 84.275 105.071 84.827C105.467 85.379 106.073 85.655 106.889 85.655ZM113.681 86.915L115.787 73.667H117.605L115.499 86.915H113.681ZM121.512 87.077C120.432 87.077 119.64 86.771 119.136 86.159C118.632 85.547 118.476 84.611 118.668 83.351L119.532 77.843H121.35L120.486 83.297C120.366 84.113 120.438 84.707 120.702 85.079C120.978 85.439 121.446 85.619 122.106 85.619C122.85 85.619 123.462 85.379 123.942 84.899C124.422 84.419 124.728 83.777 124.86 82.973L125.67 77.843H127.488L126.048 86.915H124.284L124.572 84.971H124.842C124.506 85.643 124.05 86.165 123.474 86.537C122.898 86.897 122.244 87.077 121.512 87.077ZM138.387 87.077C137.607 87.077 136.953 86.885 136.425 86.501C135.897 86.105 135.573 85.571 135.453 84.899L135.633 84.863L135.309 86.915H133.509L135.615 73.667H137.433L136.443 79.859L136.155 79.895C136.467 79.211 136.917 78.671 137.505 78.275C138.093 77.879 138.801 77.681 139.629 77.681C140.469 77.681 141.171 77.879 141.735 78.275C142.299 78.671 142.701 79.241 142.941 79.985C143.181 80.717 143.217 81.593 143.049 82.613C142.809 84.077 142.263 85.187 141.411 85.943C140.571 86.699 139.563 87.077 138.387 87.077ZM138.171 85.655C138.951 85.655 139.611 85.385 140.151 84.845C140.691 84.305 141.051 83.501 141.231 82.433C141.399 81.317 141.291 80.489 140.907 79.949C140.523 79.397 139.917 79.121 139.089 79.121C138.321 79.121 137.655 79.391 137.091 79.931C136.539 80.471 136.179 81.263 136.011 82.307C135.843 83.435 135.957 84.275 136.353 84.827C136.749 85.379 137.355 85.655 138.171 85.655ZM148.51 87.077C147.574 87.077 146.794 86.885 146.17 86.501C145.546 86.117 145.102 85.553 144.838 84.809C144.586 84.065 144.538 83.171 144.694 82.127C144.85 81.167 145.156 80.357 145.612 79.697C146.08 79.025 146.656 78.521 147.34 78.185C148.036 77.849 148.81 77.681 149.662 77.681C150.622 77.681 151.408 77.879 152.02 78.275C152.644 78.659 153.082 79.223 153.334 79.967C153.598 80.699 153.646 81.581 153.478 82.613C153.322 83.585 153.01 84.401 152.542 85.061C152.086 85.721 151.51 86.225 150.814 86.573C150.13 86.909 149.362 87.077 148.51 87.077ZM148.636 85.655C149.392 85.655 150.046 85.385 150.598 84.845C151.15 84.305 151.51 83.501 151.678 82.433C151.858 81.317 151.744 80.489 151.336 79.949C150.94 79.397 150.346 79.121 149.554 79.121C148.774 79.121 148.114 79.391 147.574 79.931C147.046 80.471 146.692 81.263 146.512 82.307C146.344 83.435 146.452 84.275 146.836 84.827C147.22 85.379 147.82 85.655 148.636 85.655ZM159.124 90.803L160.816 80.021C160.876 79.673 160.918 79.319 160.942 78.959C160.978 78.587 161.002 78.215 161.014 77.843H162.778L162.652 79.895H162.382C162.694 79.211 163.144 78.671 163.732 78.275C164.32 77.879 165.028 77.681 165.856 77.681C166.696 77.681 167.398 77.879 167.962 78.275C168.526 78.671 168.928 79.241 169.168 79.985C169.408 80.717 169.444 81.593 169.276 82.613C169.036 84.077 168.49 85.187 167.638 85.943C166.798 86.699 165.79 87.077 164.614 87.077C163.834 87.077 163.18 86.885 162.652 86.501C162.124 86.105 161.8 85.571 161.68 84.899H161.878L160.942 90.803H159.124ZM164.398 85.655C165.178 85.655 165.838 85.385 166.378 84.845C166.918 84.305 167.278 83.501 167.458 82.433C167.626 81.317 167.518 80.489 167.134 79.949C166.75 79.397 166.144 79.121 165.316 79.121C164.548 79.121 163.882 79.391 163.318 79.931C162.766 80.471 162.406 81.263 162.238 82.307C162.07 83.435 162.184 84.275 162.58 84.827C162.976 85.379 163.582 85.655 164.398 85.655ZM174.737 87.077C173.801 87.077 173.021 86.885 172.397 86.501C171.773 86.117 171.329 85.553 171.065 84.809C170.813 84.065 170.765 83.171 170.921 82.127C171.077 81.167 171.383 80.357 171.839 79.697C172.307 79.025 172.883 78.521 173.567 78.185C174.263 77.849 175.037 77.681 175.889 77.681C176.849 77.681 177.635 77.879 178.247 78.275C178.871 78.659 179.309 79.223 179.561 79.967C179.825 80.699 179.873 81.581 179.705 82.613C179.549 83.585 179.237 84.401 178.769 85.061C178.313 85.721 177.737 86.225 177.041 86.573C176.357 86.909 175.589 87.077 174.737 87.077ZM174.863 85.655C175.619 85.655 176.273 85.385 176.825 84.845C177.377 84.305 177.737 83.501 177.905 82.433C178.085 81.317 177.971 80.489 177.563 79.949C177.167 79.397 176.573 79.121 175.781 79.121C175.001 79.121 174.341 79.391 173.801 79.931C173.273 80.471 172.919 81.263 172.739 82.307C172.571 83.435 172.679 84.275 173.063 84.827C173.447 85.379 174.047 85.655 174.863 85.655ZM183.67 86.915L181.222 77.843H183.094L184.966 85.421H184.444L188.764 77.843H190.672L185.326 86.915H183.67ZM193.756 87.077C193.048 87.077 192.382 86.987 191.758 86.807C191.146 86.627 190.66 86.387 190.3 86.087L190.894 84.827C191.302 85.115 191.758 85.343 192.262 85.511C192.766 85.667 193.294 85.745 193.846 85.745C194.494 85.745 195.004 85.631 195.376 85.403C195.748 85.175 195.964 84.869 196.024 84.485C196.084 84.137 196.018 83.855 195.826 83.639C195.634 83.423 195.31 83.279 194.854 83.207L193.486 82.973C192.598 82.829 191.98 82.523 191.632 82.055C191.284 81.575 191.164 80.981 191.272 80.273C191.368 79.721 191.59 79.253 191.938 78.869C192.286 78.485 192.736 78.191 193.288 77.987C193.84 77.783 194.446 77.681 195.106 77.681C195.766 77.681 196.372 77.765 196.924 77.933C197.476 78.101 197.914 78.329 198.238 78.617L197.608 79.841C197.296 79.589 196.918 79.391 196.474 79.247C196.03 79.091 195.574 79.013 195.106 79.013C194.458 79.013 193.954 79.139 193.594 79.391C193.234 79.631 193.018 79.943 192.946 80.327C192.886 80.675 192.94 80.963 193.108 81.191C193.276 81.419 193.57 81.569 193.99 81.641L195.394 81.875C196.306 82.031 196.942 82.331 197.302 82.775C197.674 83.219 197.8 83.789 197.68 84.485C197.596 85.025 197.38 85.493 197.032 85.889C196.684 86.273 196.228 86.567 195.664 86.771C195.112 86.975 194.476 87.077 193.756 87.077ZM203.495 87.077C202.559 87.077 201.779 86.885 201.155 86.501C200.531 86.117 200.087 85.553 199.823 84.809C199.571 84.065 199.523 83.171 199.679 82.127C199.835 81.167 200.141 80.357 200.597 79.697C201.065 79.025 201.641 78.521 202.325 78.185C203.021 77.849 203.795 77.681 204.647 77.681C205.607 77.681 206.393 77.879 207.005 78.275C207.629 78.659 208.067 79.223 208.319 79.967C208.583 80.699 208.631 81.581 208.463 82.613C208.307 83.585 207.995 84.401 207.527 85.061C207.071 85.721 206.495 86.225 205.799 86.573C205.115 86.909 204.347 87.077 203.495 87.077ZM203.621 85.655C204.377 85.655 205.031 85.385 205.583 84.845C206.135 84.305 206.495 83.501 206.663 82.433C206.843 81.317 206.729 80.489 206.321 79.949C205.925 79.397 205.331 79.121 204.539 79.121C203.759 79.121 203.099 79.391 202.559 79.931C202.031 80.471 201.677 81.263 201.497 82.307C201.329 83.435 201.437 84.275 201.821 84.827C202.205 85.379 202.805 85.655 203.621 85.655ZM213.558 87.077C212.73 87.077 212.028 86.879 211.452 86.483C210.888 86.087 210.486 85.523 210.246 84.791C210.018 84.047 209.982 83.159 210.138 82.127C210.378 80.675 210.918 79.571 211.758 78.815C212.61 78.059 213.624 77.681 214.8 77.681C215.58 77.681 216.234 77.879 216.762 78.275C217.29 78.659 217.614 79.187 217.734 79.859H217.536L218.526 73.667H220.344L218.238 86.915H216.438L216.762 84.863H217.032C216.72 85.547 216.27 86.087 215.682 86.483C215.094 86.879 214.386 87.077 213.558 87.077ZM214.098 85.655C214.866 85.655 215.526 85.385 216.078 84.845C216.642 84.305 217.008 83.501 217.176 82.433C217.356 81.317 217.242 80.489 216.834 79.949C216.438 79.397 215.832 79.121 215.016 79.121C214.248 79.121 213.588 79.391 213.036 79.931C212.496 80.471 212.136 81.263 211.956 82.307C211.788 83.435 211.896 84.275 212.28 84.827C212.676 85.379 213.282 85.655 214.098 85.655ZM221.7 83.405L222.582 74.225H224.832L222.816 83.405H221.7ZM220.62 86.915L220.962 84.773H223.104L222.762 86.915H220.62Z" fill="white"/>
</svg>
